Mitr-700.ufo
<glyph name="dollar" format="1">
  <advance width="615"/>
  <unicode hex="0024"/>
  <note>
	dollar
  </note>
  <outline>
    <contour>
      <point x="355" y="-93" type="line" smooth="yes"/>
      <point x="401" y="-93"/>
      <point x="416" y="-74"/>
      <point x="416" y="-36" type="curve" smooth="yes"/>
      <point x="416" y="-8" type="line"/>
      <point x="543" y="15"/>
      <point x="600" y="91"/>
      <point x="600" y="186" type="curve" smooth="yes"/>
      <point x="600" y="306"/>
      <point x="533" y="352"/>
      <point x="395" y="407" type="curve" smooth="yes"/>
      <point x="327" y="434"/>
      <point x="285" y="448"/>
      <point x="285" y="485" type="curve" smooth="yes"/>
      <point x="285" y="516"/>
      <point x="311" y="527"/>
      <point x="356" y="527" type="curve" smooth="yes"/>
      <point x="410" y="527"/>
      <point x="455" y="510"/>
      <point x="484" y="490" type="curve" smooth="yes"/>
      <point x="501" y="479"/>
      <point x="510" y="479"/>
      <point x="521" y="496" type="curve" smooth="yes"/>
      <point x="579" y="587" type="line" smooth="yes"/>
      <point x="591" y="606"/>
      <point x="589" y="617"/>
      <point x="566" y="633" type="curve" smooth="yes"/>
      <point x="526" y="661"/>
      <point x="478" y="679"/>
      <point x="416" y="688" type="curve"/>
      <point x="416" y="718" type="line" smooth="yes"/>
      <point x="416" y="756"/>
      <point x="401" y="775"/>
      <point x="355" y="775" type="curve" smooth="yes"/>
      <point x="256" y="775" type="line" smooth="yes"/>
      <point x="211" y="775"/>
      <point x="196" y="756"/>
      <point x="196" y="718" type="curve" smooth="yes"/>
      <point x="196" y="680" type="line"/>
      <point x="104" y="653"/>
      <point x="46" y="589"/>
      <point x="46" y="486" type="curve" smooth="yes"/>
      <point x="46" y="366"/>
      <point x="152" y="309"/>
      <point x="263" y="266" type="curve" smooth="yes"/>
      <point x="325" y="242"/>
      <point x="361" y="227"/>
      <point x="361" y="194" type="curve" smooth="yes"/>
      <point x="361" y="166"/>
      <point x="341" y="153"/>
      <point x="291" y="153" type="curve" smooth="yes"/>
      <point x="232" y="153"/>
      <point x="166" y="171"/>
      <point x="118" y="200" type="curve" smooth="yes"/>
      <point x="101" y="210"/>
      <point x="92" y="211"/>
      <point x="81" y="194" type="curve" smooth="yes"/>
      <point x="23" y="103" type="line" smooth="yes"/>
      <point x="11" y="84"/>
      <point x="13" y="73"/>
      <point x="36" y="57" type="curve" smooth="yes"/>
      <point x="75" y="29"/>
      <point x="131" y="8"/>
      <point x="196" y="-3" type="curve"/>
      <point x="196" y="-36" type="line" smooth="yes"/>
      <point x="196" y="-74"/>
      <point x="211" y="-93"/>
      <point x="256" y="-93" type="curve" smooth="yes"/>
    </contour>
  </outline>
</glyph>
<glyph name="percent" format="1">
  <advance width="791"/>
  <unicode hex="0025"/>
  <note>
	percent
  </note>
  <outline>
    <contour>
      <point x="259" y="0" type="line" smooth="yes"/>
      <point x="281" y="0"/>
      <point x="283" y="5"/>
      <point x="293" y="20" type="curve" smooth="yes"/>
      <point x="719" y="637" type="line" smooth="yes"/>
      <point x="733" y="657"/>
      <point x="726" y="680"/>
      <point x="702" y="680" type="curve" smooth="yes"/>
      <point x="533" y="680" type="line" smooth="yes"/>
      <point x="511" y="680"/>
      <point x="501" y="670"/>
      <point x="489" y="653" type="curve" smooth="yes"/>
      <point x="68" y="43" type="line" smooth="yes"/>
      <point x="54" y="23"/>
      <point x="61" y="0"/>
      <point x="85" y="0" type="curve" smooth="yes"/>
    </contour>
    <contour>
      <point x="269" y="368"/>
      <point x="342" y="435"/>
      <point x="342" y="531" type="curve" smooth="yes"/>
      <point x="342" y="628"/>
      <point x="269" y="695"/>
      <point x="178" y="695" type="curve" smooth="yes"/>
      <point x="88" y="695"/>
      <point x="15" y="628"/>
      <point x="15" y="531" type="curve" smooth="yes"/>
      <point x="15" y="435"/>
      <point x="88" y="368"/>
      <point x="178" y="368" type="curve" smooth="yes"/>
    </contour>
    <contour>
      <point x="151" y="481"/>
      <point x="128" y="502"/>
      <point x="128" y="531" type="curve" smooth="yes"/>
      <point x="128" y="561"/>
      <point x="151" y="582"/>
      <point x="178" y="582" type="curve" smooth="yes"/>
      <point x="206" y="582"/>
      <point x="229" y="561"/>
      <point x="229" y="531" type="curve" smooth="yes"/>
      <point x="229" y="502"/>
      <point x="206" y="481"/>
      <point x="178" y="481" type="curve" smooth="yes"/>
    </contour>
    <contour>
      <point x="703" y="-15"/>
      <point x="776" y="52"/>
      <point x="776" y="148" type="curve" smooth="yes"/>
      <point x="776" y="245"/>
      <point x="703" y="312"/>
      <point x="612" y="312" type="curve" smooth="yes"/>
      <point x="522" y="312"/>
      <point x="449" y="245"/>
      <point x="449" y="148" type="curve" smooth="yes"/>
      <point x="449" y="52"/>
      <point x="522" y="-15"/>
      <point x="612" y="-15" type="curve" smooth="yes"/>
    </contour>
    <contour>
      <point x="585" y="98"/>
      <point x="562" y="119"/>
      <point x="562" y="148" type="curve" smooth="yes"/>
      <point x="562" y="178"/>
      <point x="585" y="199"/>
      <point x="612" y="199" type="curve" smooth="yes"/>
      <point x="640" y="199"/>
      <point x="663" y="178"/>
      <point x="663" y="148" type="curve" smooth="yes"/>
      <point x="663" y="119"/>
      <point x="640" y="98"/>
      <point x="612" y="98" type="curve" smooth="yes"/>
    </contour>
  </outline>
</glyph>
<glyph name="quotesingle" format="1">
  <advance width="225"/>
  <unicode hex="0027"/>
  <note>
	quotesingle
  </note>
  <outline>
    <contour>
      <point x="156" y="480" type="line" smooth="yes"/>
      <point x="182" y="480"/>
      <point x="193" y="489"/>
      <point x="196" y="519" type="curve" smooth="yes"/>
      <point x="209" y="667" type="line" smooth="yes"/>
      <point x="212" y="697"/>
      <point x="200" y="705"/>
      <point x="169" y="705" type="curve" smooth="yes"/>
      <point x="54" y="705" type="line" smooth="yes"/>
      <point x="24" y="705"/>
      <point x="14" y="697"/>
      <point x="16" y="667" type="curve" smooth="yes"/>
      <point x="26" y="519" type="line" smooth="yes"/>
      <point x="28" y="489"/>
      <point x="42" y="480"/>
      <point x="67" y="480" type="curve" smooth="yes"/>
    </contour>
  </outline>
</glyph>
<glyph name="parenleft" format="1">
  <advance width="383"/>
  <unicode hex="0028"/>
  <note>
	parenleft
  </note>
  <outline>
    <contour>
      <point x="331" y="-146"/>
      <point x="378" y="-141"/>
      <point x="378" y="-63" type="curve" smooth="yes"/>
      <point x="378" y="-6"/>
      <point x="376" y="3"/>
      <point x="339" y="36" type="curve" smooth="yes"/>
      <point x="271" y="96"/>
      <point x="254" y="182"/>
      <point x="254" y="316" type="curve" smooth="yes"/>
      <point x="254" y="450"/>
      <point x="271" y="536"/>
      <point x="339" y="596" type="curve" smooth="yes"/>
      <point x="376" y="629"/>
      <point x="378" y="638"/>
      <point x="378" y="695" type="curve" smooth="yes"/>
      <point x="378" y="773"/>
      <point x="331" y="778"/>
      <point x="249" y="749" type="curve" smooth="yes"/>
      <point x="110" y="700"/>
      <point x="15" y="520"/>
      <point x="15" y="316" type="curve" smooth="yes"/>
      <point x="15" y="112"/>
      <point x="110" y="-68"/>
      <point x="249" y="-117" type="curve" smooth="yes"/>
    </contour>
  </outline>
</glyph>
<glyph name="parenright" format="1">
  <advance width="383"/>
  <unicode hex="0029"/>
  <note>
	parenright
  </note>
  <outline>
    <contour>
      <point x="273" y="-68"/>
      <point x="368" y="112"/>
      <point x="368" y="316" type="curve" smooth="yes"/>
      <point x="368" y="520"/>
      <point x="273" y="700"/>
      <point x="134" y="749" type="curve" smooth="yes"/>
      <point x="52" y="778"/>
      <point x="5" y="773"/>
      <point x="5" y="695" type="curve" smooth="yes"/>
      <point x="5" y="638"/>
      <point x="7" y="629"/>
      <point x="44" y="596" type="curve" smooth="yes"/>
      <point x="112" y="536"/>
      <point x="129" y="450"/>
      <point x="129" y="316" type="curve" smooth="yes"/>
      <point x="129" y="182"/>
      <point x="112" y="96"/>
      <point x="44" y="36" type="curve" smooth="yes"/>
      <point x="7" y="3"/>
      <point x="5" y="-6"/>
      <point x="5" y="-63" type="curve" smooth="yes"/>
      <point x="5" y="-141"/>
      <point x="52" y="-146"/>
      <point x="134" y="-117" type="curve" smooth="yes"/>
    </contour>
  </outline>
</glyph>
<glyph name="asterisk" format="1">
  <advance width="446"/>
  <unicode hex="002A"/>
  <note>
	asterisk
  </note>
  <outline>
    <contour>
      <point x="390" y="426" type="line" smooth="yes"/>
      <point x="401" y="435"/>
      <point x="404" y="446"/>
      <point x="393" y="457" type="curve" smooth="yes"/>
      <point x="339" y="513" type="line"/>
      <point x="416" y="546" type="line" smooth="yes"/>
      <point x="429" y="552"/>
      <point x="434" y="560"/>
      <point x="428" y="574" type="curve" smooth="yes"/>
      <point x="393" y="649" type="line" smooth="yes"/>
      <point x="388" y="660"/>
      <point x="379" y="663"/>
      <point x="365" y="657" type="curve" smooth="yes"/>
      <point x="295" y="626" type="line"/>
      <point x="295" y="696" type="line" smooth="yes"/>
      <point x="295" y="711"/>
      <point x="285" y="722"/>
      <point x="269" y="722" type="curve" smooth="yes"/>
      <point x="177" y="722" type="line" smooth="yes"/>
      <point x="161" y="722"/>
      <point x="151" y="711"/>
      <point x="151" y="696" type="curve" smooth="yes"/>
      <point x="151" y="627" type="line"/>
      <point x="81" y="658" type="line" smooth="yes"/>
      <point x="67" y="664"/>
      <point x="58" y="661"/>
      <point x="53" y="650" type="curve" smooth="yes"/>
      <point x="18" y="575" type="line" smooth="yes"/>
      <point x="12" y="561"/>
      <point x="17" y="553"/>
      <point x="30" y="547" type="curve" smooth="yes"/>
      <point x="107" y="514" type="line"/>
      <point x="53" y="458" type="line" smooth="yes"/>
      <point x="42" y="447"/>
      <point x="45" y="436"/>
      <point x="56" y="427" type="curve" smooth="yes"/>
      <point x="121" y="371" type="line" smooth="yes"/>
      <point x="131" y="362"/>
      <point x="141" y="365"/>
      <point x="151" y="375" type="curve" smooth="yes"/>
      <point x="223" y="451" type="line"/>
      <point x="295" y="374" type="line" smooth="yes"/>
      <point x="305" y="364"/>
      <point x="315" y="361"/>
      <point x="325" y="370" type="curve" smooth="yes"/>
    </contour>
  </outline>
</glyph>
<glyph name="plus" format="1">
  <advance width="467"/>
  <unicode hex="002B"/>
  <note>
	plus
  </note>
  <outline>
    <contour>
      <point x="268" y="118" type="line" smooth="yes"/>
      <point x="306" y="118"/>
      <point x="325" y="128"/>
      <point x="325" y="173" type="curve" smooth="yes"/>
      <point x="325" y="221" type="line"/>
      <point x="397" y="221" type="line" smooth="yes"/>
      <point x="442" y="221"/>
      <point x="452" y="240"/>
      <point x="452" y="278" type="curve" smooth="yes"/>
      <point x="452" y="334" type="line" smooth="yes"/>
      <point x="452" y="372"/>
      <point x="442" y="391"/>
      <point x="397" y="391" type="curve" smooth="yes"/>
      <point x="325" y="391" type="line"/>
      <point x="325" y="440" type="line" smooth="yes"/>
      <point x="325" y="485"/>
      <point x="306" y="495"/>
      <point x="268" y="495" type="curve" smooth="yes"/>
      <point x="198" y="495" type="line" smooth="yes"/>
      <point x="160" y="495"/>
      <point x="141" y="485"/>
      <point x="141" y="440" type="curve" smooth="yes"/>
      <point x="141" y="391" type="line"/>
      <point x="70" y="391" type="line" smooth="yes"/>
      <point x="25" y="391"/>
      <point x="15" y="372"/>
      <point x="15" y="334" type="curve" smooth="yes"/>
      <point x="15" y="278" type="line" smooth="yes"/>
      <point x="15" y="240"/>
      <point x="25" y="221"/>
      <point x="70" y="221" type="curve" smooth="yes"/>
      <point x="141" y="221" type="line"/>
      <point x="141" y="173" type="line" smooth="yes"/>
      <point x="141" y="128"/>
      <point x="160" y="118"/>
      <point x="198" y="118" type="curve" smooth="yes"/>
    </contour>
  </outline>
</glyph>
<glyph name="period" format="1">
  <advance width="174"/>
  <unicode hex="002E"/>
  <note>
	period
  </note>
  <outline>
    <contour>
      <point x="100" y="0" type="line" smooth="yes"/>
      <point x="136" y="0"/>
      <point x="159" y="29"/>
      <point x="159" y="62" type="curve" smooth="yes"/>
      <point x="159" y="87" type="line" smooth="yes"/>
      <point x="159" y="122"/>
      <point x="135" y="149"/>
      <point x="100" y="149" type="curve" smooth="yes"/>
      <point x="74" y="149" type="line" smooth="yes"/>
      <point x="39" y="149"/>
      <point x="15" y="122"/>
      <point x="15" y="87" type="curve" smooth="yes"/>
      <point x="15" y="62" type="line" smooth="yes"/>
      <point x="15" y="29"/>
      <point x="39" y="0"/>
      <point x="74" y="0" type="curve" smooth="yes"/>
    </contour>
  </outline>
</glyph>
<glyph name="zero" format="1">
  <advance width="744"/>
  <unicode hex="0030"/>
  <note>
	zero
  </note>
  <outline>
    <contour>
      <point x="613" y="-15"/>
      <point x="729" y="111"/>
      <point x="729" y="340" type="curve" smooth="yes"/>
      <point x="729" y="569"/>
      <point x="613" y="695"/>
      <point x="372" y="695" type="curve" smooth="yes"/>
      <point x="131" y="695"/>
      <point x="15" y="569"/>
      <point x="15" y="340" type="curve" smooth="yes"/>
      <point x="15" y="111"/>
      <point x="131" y="-15"/>
      <point x="372" y="-15" type="curve" smooth="yes"/>
    </contour>
    <contour>
      <point x="353" y="153"/>
      <point x="337" y="155"/>
      <point x="324" y="160" type="curve"/>
      <point x="488" y="392" type="line"/>
      <point x="489" y="376"/>
      <point x="490" y="359"/>
      <point x="490" y="340" type="curve" smooth="yes"/>
      <point x="490" y="213"/>
      <point x="461" y="153"/>
      <point x="372" y="153" type="curve" smooth="yes"/>
    </contour>
    <contour>
      <point x="254" y="308"/>
      <point x="254" y="323"/>
      <point x="254" y="340" type="curve" smooth="yes"/>
      <point x="254" y="468"/>
      <point x="283" y="527"/>
      <point x="372" y="527" type="curve" smooth="yes"/>
      <point x="389" y="527"/>
      <point x="403" y="525"/>
      <point x="416" y="520" type="curve"/>
      <point x="255" y="294" type="line"/>
    </contour>
  </outline>
</glyph>
<glyph name="one" format="1">
  <advance width="518"/>
  <unicode hex="0031"/>
  <note>
	one
  </note>
  <outline>
    <contour>
      <point x="468" y="0" type="line" smooth="yes"/>
      <point x="513" y="0"/>
      <point x="523" y="19"/>
      <point x="523" y="57" type="curve" smooth="yes"/>
      <point x="523" y="113" type="line" smooth="yes"/>
      <point x="523" y="151"/>
      <point x="513" y="170"/>
      <point x="468" y="170" type="curve" smooth="yes"/>
      <point x="404" y="170" type="line"/>
      <point x="404" y="623" type="line" smooth="yes"/>
      <point x="404" y="661"/>
      <point x="389" y="680"/>
      <point x="344" y="680" type="curve" smooth="yes"/>
      <point x="271" y="680" type="line" smooth="yes"/>
      <point x="241" y="680"/>
      <point x="231" y="676"/>
      <point x="216" y="667" type="curve" smooth="yes"/>
      <point x="27" y="553" type="line" smooth="yes"/>
      <point x="15" y="546"/>
      <point x="13" y="536"/>
      <point x="20" y="526" type="curve" smooth="yes"/>
      <point x="96" y="410" type="line" smooth="yes"/>
      <point x="103" y="399"/>
      <point x="114" y="399"/>
      <point x="123" y="405" type="curve" smooth="yes"/>
      <point x="164" y="431" type="line"/>
      <point x="164" y="170" type="line"/>
      <point x="101" y="170" type="line" smooth="yes"/>
      <point x="56" y="170"/>
      <point x="46" y="151"/>
      <point x="46" y="113" type="curve" smooth="yes"/>
      <point x="46" y="57" type="line" smooth="yes"/>
      <point x="46" y="19"/>
      <point x="56" y="0"/>
      <point x="101" y="0" type="curve" smooth="yes"/>
    </contour>
  </outline>
</glyph>
<glyph name="two" format="1">
  <advance width="580"/>
  <unicode hex="0032"/>
  <note>
	two
  </note>
  <outline>
    <contour>
      <point x="510" y="0" type="line" smooth="yes"/>
      <point x="555" y="0"/>
      <point x="565" y="19"/>
      <point x="565" y="57" type="curve" smooth="yes"/>
      <point x="565" y="114" type="line" smooth="yes"/>
      <point x="565" y="152"/>
      <point x="555" y="171"/>
      <point x="510" y="171" type="curve" smooth="yes"/>
      <point x="266" y="171" type="line"/>
      <point x="283" y="190"/>
      <point x="340" y="228"/>
      <point x="385" y="257" type="curve" smooth="yes"/>
      <point x="499" y="331"/>
      <point x="560" y="390"/>
      <point x="560" y="494" type="curve" smooth="yes"/>
      <point x="560" y="625"/>
      <point x="451" y="695"/>
      <point x="287" y="695" type="curve" smooth="yes"/>
      <point x="176" y="695"/>
      <point x="83" y="669"/>
      <point x="27" y="631" type="curve" smooth="yes"/>
      <point x="10" y="619"/>
      <point x="14" y="604"/>
      <point x="24" y="586" type="curve" smooth="yes"/>
      <point x="74" y="500" type="line" smooth="yes"/>
      <point x="86" y="480"/>
      <point x="96" y="484"/>
      <point x="116" y="494" type="curve" smooth="yes"/>
      <point x="148" y="510"/>
      <point x="191" y="527"/>
      <point x="246" y="527" type="curve" smooth="yes"/>
      <point x="299" y="527"/>
      <point x="321" y="503"/>
      <point x="321" y="471" type="curve" smooth="yes"/>
      <point x="321" y="417"/>
      <point x="294" y="410"/>
      <point x="200" y="344" type="curve" smooth="yes"/>
      <point x="67" y="251"/>
      <point x="20" y="190"/>
      <point x="20" y="111" type="curve" smooth="yes"/>
      <point x="20" y="52" type="line" smooth="yes"/>
      <point x="20" y="17"/>
      <point x="36" y="0"/>
      <point x="70" y="0" type="curve" smooth="yes"/>
    </contour>
  </outline>
</glyph>
<glyph name="four" format="1">
  <advance width="600"/>
  <unicode hex="0034"/>
  <note>
	four
  </note>
  <outline>
    <contour>
      <point x="451" y="0" type="line" smooth="yes"/>
      <point x="497" y="0"/>
      <point x="512" y="14"/>
      <point x="512" y="52" type="curve" smooth="yes"/>
      <point x="512" y="130" type="line"/>
      <point x="550" y="130" type="line" smooth="yes"/>
      <point x="595" y="130"/>
      <point x="605" y="149"/>
      <point x="605" y="187" type="curve" smooth="yes"/>
      <point x="605" y="243" type="line" smooth="yes"/>
      <point x="605" y="281"/>
      <point x="595" y="300"/>
      <point x="550" y="300" type="curve" smooth="yes"/>
      <point x="512" y="300" type="line"/>
      <point x="512" y="623" type="line" smooth="yes"/>
      <point x="512" y="661"/>
      <point x="497" y="680"/>
      <point x="452" y="680" type="curve" smooth="yes"/>
      <point x="356" y="680" type="line" smooth="yes"/>
      <point x="317" y="680"/>
      <point x="310" y="672"/>
      <point x="290" y="648" type="curve" smooth="yes"/>
      <point x="18" y="320" type="line" smooth="yes"/>
      <point x="-1" y="297"/>
      <point x="-5" y="289"/>
      <point x="-5" y="257" type="curve" smooth="yes"/>
      <point x="-5" y="165" type="line" smooth="yes"/>
      <point x="-5" y="143"/>
      <point x="6" y="130"/>
      <point x="31" y="130" type="curve" smooth="yes"/>
      <point x="272" y="130" type="line"/>
      <point x="272" y="52" type="line" smooth="yes"/>
      <point x="272" y="14"/>
      <point x="287" y="0"/>
      <point x="332" y="0" type="curve" smooth="yes"/>
    </contour>
    <contour>
      <point x="325" y="431" type="line"/>
      <point x="325" y="300" type="line"/>
      <point x="229" y="300" type="line"/>
    </contour>
  </outline>
</glyph>
<glyph name="five" format="1">
  <advance width="645"/>
  <unicode hex="0035"/>
  <note>
	five
  </note>
  <outline>
    <contour>
      <point x="488" y="-15"/>
      <point x="630" y="75"/>
      <point x="630" y="236" type="curve" smooth="yes"/>
      <point x="630" y="414"/>
      <point x="513" y="470"/>
      <point x="343" y="470" type="curve" smooth="yes"/>
      <point x="320" y="470"/>
      <point x="267" y="466"/>
      <point x="245" y="461" type="curve"/>
      <point x="248" y="509" type="line"/>
      <point x="540" y="509" type="line" smooth="yes"/>
      <point x="585" y="509"/>
      <point x="595" y="528"/>
      <point x="595" y="566" type="curve" smooth="yes"/>
      <point x="595" y="623" type="line" smooth="yes"/>
      <point x="595" y="661"/>
      <point x="585" y="680"/>
      <point x="540" y="680" type="curve" smooth="yes"/>
      <point x="113" y="680" type="line" smooth="yes"/>
      <point x="69" y="680"/>
      <point x="58" y="662"/>
      <point x="56" y="630" type="curve" smooth="yes"/>
      <point x="40" y="378" type="line" smooth="yes"/>
      <point x="35" y="293"/>
      <point x="127" y="275"/>
      <point x="202" y="300" type="curve" smooth="yes"/>
      <point x="225" y="308"/>
      <point x="266" y="316"/>
      <point x="305" y="316" type="curve" smooth="yes"/>
      <point x="351" y="316"/>
      <point x="391" y="300"/>
      <point x="391" y="236" type="curve" smooth="yes"/>
      <point x="391" y="180"/>
      <point x="349" y="153"/>
      <point x="286" y="153" type="curve" smooth="yes"/>
      <point x="212" y="153"/>
      <point x="157" y="171"/>
      <point x="116" y="194" type="curve" smooth="yes"/>
      <point x="96" y="205"/>
      <point x="86" y="208"/>
      <point x="74" y="188" type="curve" smooth="yes"/>
      <point x="24" y="102" type="line" smooth="yes"/>
      <point x="14" y="84"/>
      <point x="10" y="69"/>
      <point x="27" y="57" type="curve" smooth="yes"/>
      <point x="91" y="11"/>
      <point x="195" y="-15"/>
      <point x="302" y="-15" type="curve" smooth="yes"/>
    </contour>
  </outline>
</glyph>
<glyph name="seven" format="1">
  <advance width="602"/>
  <unicode hex="0037"/>
  <note>
	seven
  </note>
  <outline>
    <contour>
      <point x="282" y="0" type="line" smooth="yes"/>
      <point x="304" y="0"/>
      <point x="313" y="11"/>
      <point x="321" y="27" type="curve" smooth="yes"/>
      <point x="584" y="559" type="line" smooth="yes"/>
      <point x="592" y="574"/>
      <point x="597" y="594"/>
      <point x="597" y="621" type="curve" smooth="yes"/>
      <point x="597" y="666"/>
      <point x="582" y="680"/>
      <point x="524" y="680" type="curve" smooth="yes"/>
      <point x="60" y="680" type="line" smooth="yes"/>
      <point x="15" y="680"/>
      <point x="5" y="661"/>
      <point x="5" y="623" type="curve" smooth="yes"/>
      <point x="5" y="567" type="line" smooth="yes"/>
      <point x="5" y="529"/>
      <point x="15" y="510"/>
      <point x="60" y="510" type="curve" smooth="yes"/>
      <point x="308" y="510" type="line"/>
      <point x="77" y="43" type="line" smooth="yes"/>
      <point x="66" y="21"/>
      <point x="70" y="0"/>
      <point x="94" y="0" type="curve" smooth="yes"/>
    </contour>
  </outline>
</glyph>
<glyph name="colon" format="1">
  <advance width="214"/>
  <unicode hex="003A"/>
  <note>
	colon
  </note>
  <outline>
    <contour>
      <point x="124" y="307" type="line" smooth="yes"/>
      <point x="170" y="307"/>
      <point x="199" y="344"/>
      <point x="199" y="387" type="curve" smooth="yes"/>
      <point x="199" y="414" type="line" smooth="yes"/>
      <point x="199" y="459"/>
      <point x="169" y="493"/>
      <point x="124" y="493" type="curve" smooth="yes"/>
      <point x="90" y="493" type="line" smooth="yes"/>
      <point x="45" y="493"/>
      <point x="15" y="459"/>
      <point x="15" y="414" type="curve" smooth="yes"/>
      <point x="15" y="387" type="line" smooth="yes"/>
      <point x="15" y="344"/>
      <point x="45" y="307"/>
      <point x="90" y="307" type="curve" smooth="yes"/>
    </contour>
    <contour>
      <point x="124" y="0" type="line" smooth="yes"/>
      <point x="170" y="0"/>
      <point x="199" y="37"/>
      <point x="199" y="80" type="curve" smooth="yes"/>
      <point x="199" y="107" type="line" smooth="yes"/>
      <point x="199" y="152"/>
      <point x="169" y="186"/>
      <point x="124" y="186" type="curve" smooth="yes"/>
      <point x="90" y="186" type="line" smooth="yes"/>
      <point x="45" y="186"/>
      <point x="15" y="152"/>
      <point x="15" y="107" type="curve" smooth="yes"/>
      <point x="15" y="80" type="line" smooth="yes"/>
      <point x="15" y="37"/>
      <point x="45" y="0"/>
      <point x="90" y="0" type="curve" smooth="yes"/>
    </contour>
  </outline>
</glyph>
<glyph name="semicolon" format="1">
  <advance width="277"/>
  <unicode hex="003B"/>
  <note>
	semicolon
  </note>
  <outline>
    <contour>
      <point x="138" y="-119" type="line" smooth="yes"/>
      <point x="164" y="-119"/>
      <point x="174" y="-109"/>
      <point x="181" y="-93" type="curve" smooth="yes"/>
      <point x="253" y="77" type="line" smooth="yes"/>
      <point x="270" y="119"/>
      <point x="263" y="135"/>
      <point x="218" y="135" type="curve" smooth="yes"/>
      <point x="124" y="135" type="line" smooth="yes"/>
      <point x="89" y="135"/>
      <point x="77" y="128"/>
      <point x="67" y="93" type="curve" smooth="yes"/>
      <point x="18" y="-82" type="line" smooth="yes"/>
      <point x="12" y="-103"/>
      <point x="17" y="-119"/>
      <point x="46" y="-119" type="curve" smooth="yes"/>
    </contour>
    <contour>
      <point x="184" y="307" type="line" smooth="yes"/>
      <point x="230" y="307"/>
      <point x="259" y="344"/>
      <point x="259" y="387" type="curve" smooth="yes"/>
      <point x="259" y="414" type="line" smooth="yes"/>
      <point x="259" y="459"/>
      <point x="229" y="493"/>
      <point x="184" y="493" type="curve" smooth="yes"/>
      <point x="150" y="493" type="line" smooth="yes"/>
      <point x="105" y="493"/>
      <point x="75" y="459"/>
      <point x="75" y="414" type="curve" smooth="yes"/>
      <point x="75" y="387" type="line" smooth="yes"/>
      <point x="75" y="344"/>
      <point x="105" y="307"/>
      <point x="150" y="307" type="curve" smooth="yes"/>
    </contour>
  </outline>
</glyph>
<glyph name="equal" format="1">
  <advance width="467"/>
  <unicode hex="003D"/>
  <note>
	equal
  </note>
  <outline>
    <contour>
      <point x="397" y="321" type="line" smooth="yes"/>
      <point x="442" y="321"/>
      <point x="452" y="340"/>
      <point x="452" y="378" type="curve" smooth="yes"/>
      <point x="452" y="429" type="line" smooth="yes"/>
      <point x="452" y="467"/>
      <point x="442" y="486"/>
      <point x="397" y="486" type="curve" smooth="yes"/>
      <point x="70" y="486" type="line" smooth="yes"/>
      <point x="25" y="486"/>
      <point x="15" y="467"/>
      <point x="15" y="429" type="curve" smooth="yes"/>
      <point x="15" y="378" type="line" smooth="yes"/>
      <point x="15" y="340"/>
      <point x="25" y="321"/>
      <point x="70" y="321" type="curve" smooth="yes"/>
    </contour>
    <contour>
      <point x="397" y="95" type="line" smooth="yes"/>
      <point x="442" y="95"/>
      <point x="452" y="114"/>
      <point x="452" y="152" type="curve" smooth="yes"/>
      <point x="452" y="203" type="line" smooth="yes"/>
      <point x="452" y="241"/>
      <point x="442" y="260"/>
      <point x="397" y="260" type="curve" smooth="yes"/>
      <point x="70" y="260" type="line" smooth="yes"/>
      <point x="25" y="260"/>
      <point x="15" y="241"/>
      <point x="15" y="203" type="curve" smooth="yes"/>
      <point x="15" y="152" type="line" smooth="yes"/>
      <point x="15" y="114"/>
      <point x="25" y="95"/>
      <point x="70" y="95" type="curve" smooth="yes"/>
    </contour>
  </outline>
</glyph>
<glyph name="greater" format="1">
  <advance width="510"/>
  <unicode hex="003E"/>
  <note>
	greater
  </note>
  <outline>
    <contour>
      <point x="478" y="197" type="line" smooth="yes"/>
      <point x="491" y="203"/>
      <point x="495" y="210"/>
      <point x="495" y="226" type="curve" smooth="yes"/>
      <point x="495" y="319" type="line" smooth="yes"/>
      <point x="495" y="335"/>
      <point x="491" y="342"/>
      <point x="478" y="348" type="curve" smooth="yes"/>
      <point x="39" y="539" type="line" smooth="yes"/>
      <point x="25" y="545"/>
      <point x="15" y="540"/>
      <point x="15" y="527" type="curve" smooth="yes"/>
      <point x="15" y="371" type="line" smooth="yes"/>
      <point x="15" y="355"/>
      <point x="20" y="350"/>
      <point x="32" y="346" type="curve"/>
      <point x="217" y="274" type="line"/>
      <point x="32" y="202" type="line"/>
      <point x="20" y="198"/>
      <point x="15" y="193"/>
      <point x="15" y="177" type="curve" smooth="yes"/>
      <point x="15" y="18" type="line" smooth="yes"/>
      <point x="15" y="5"/>
      <point x="25" y="0"/>
      <point x="39" y="6" type="curve" smooth="yes"/>
    </contour>
  </outline>
</glyph>
<glyph name="B" format="1">
  <advance width="668"/>
  <unicode hex="0042"/>
  <note>
	B
  </note>
  <outline>
    <contour>
      <point x="391" y="0" type="line" smooth="yes"/>
      <point x="571" y="0"/>
      <point x="653" y="94"/>
      <point x="653" y="212" type="curve" smooth="yes"/>
      <point x="653" y="288"/>
      <point x="621" y="333"/>
      <point x="564" y="352" type="curve"/>
      <point x="607" y="370"/>
      <point x="635" y="420"/>
      <point x="635" y="480" type="curve" smooth="yes"/>
      <point x="635" y="602"/>
      <point x="567" y="680"/>
      <point x="398" y="680" type="curve" smooth="yes"/>
      <point x="95" y="680" type="line" smooth="yes"/>
      <point x="50" y="680"/>
      <point x="35" y="661"/>
      <point x="35" y="623" type="curve" smooth="yes"/>
      <point x="35" y="57" type="line" smooth="yes"/>
      <point x="35" y="19"/>
      <point x="50" y="0"/>
      <point x="95" y="0" type="curve" smooth="yes"/>
    </contour>
    <contour>
      <point x="274" y="269" type="line"/>
      <point x="367" y="269" type="line" smooth="yes"/>
      <point x="395" y="269"/>
      <point x="414" y="252"/>
      <point x="414" y="219" type="curve" smooth="yes"/>
      <point x="414" y="188"/>
      <point x="395" y="169"/>
      <point x="367" y="169" type="curve" smooth="yes"/>
      <point x="274" y="169" type="line"/>
    </contour>
    <contour>
      <point x="274" y="511" type="line"/>
      <point x="350" y="511" type="line" smooth="yes"/>
      <point x="378" y="511"/>
      <point x="396" y="500"/>
      <point x="396" y="467" type="curve" smooth="yes"/>
      <point x="396" y="436"/>
      <point x="378" y="423"/>
      <point x="350" y="423" type="curve" smooth="yes"/>
      <point x="274" y="423" type="line"/>
    </contour>
  </outline>
</glyph>
<glyph name="D" format="1">
  <advance width="693"/>
  <unicode hex="0044"/>
  <note>
	D
  </note>
  <outline>
    <contour>
      <point x="325" y="0" type="line" smooth="yes"/>
      <point x="553" y="0"/>
      <point x="678" y="114"/>
      <point x="678" y="340" type="curve" smooth="yes"/>
      <point x="678" y="575"/>
      <point x="553" y="680"/>
      <point x="325" y="680" type="curve" smooth="yes"/>
      <point x="95" y="680" type="line" smooth="yes"/>
      <point x="50" y="680"/>
      <point x="35" y="661"/>
      <point x="35" y="623" type="curve" smooth="yes"/>
      <point x="35" y="57" type="line" smooth="yes"/>
      <point x="35" y="19"/>
      <point x="50" y="0"/>
      <point x="95" y="0" type="curve" smooth="yes"/>
    </contour>
    <contour>
      <point x="275" y="510" type="line"/>
      <point x="334" y="510" type="line" smooth="yes"/>
      <point x="406" y="510"/>
      <point x="439" y="471"/>
      <point x="439" y="340" type="curve" smooth="yes"/>
      <point x="439" y="209"/>
      <point x="406" y="170"/>
      <point x="334" y="170" type="curve" smooth="yes"/>
      <point x="275" y="170" type="line"/>
    </contour>
  </outline>
</glyph>
<glyph name="F" format="1">
  <advance width="564"/>
  <unicode hex="0046"/>
  <note>
	F
  </note>
  <outline>
    <contour>
      <point x="214" y="0" type="line" smooth="yes"/>
      <point x="260" y="0"/>
      <point x="275" y="19"/>
      <point x="275" y="57" type="curve" smooth="yes"/>
      <point x="275" y="255" type="line"/>
      <point x="419" y="255" type="line" smooth="yes"/>
      <point x="464" y="255"/>
      <point x="474" y="274"/>
      <point x="474" y="312" type="curve" smooth="yes"/>
      <point x="474" y="368" type="line" smooth="yes"/>
      <point x="474" y="406"/>
      <point x="464" y="425"/>
      <point x="419" y="425" type="curve" smooth="yes"/>
      <point x="275" y="425" type="line"/>
      <point x="275" y="510" type="line"/>
      <point x="509" y="510" type="line" smooth="yes"/>
      <point x="554" y="510"/>
      <point x="564" y="529"/>
      <point x="564" y="567" type="curve" smooth="yes"/>
      <point x="564" y="623" type="line" smooth="yes"/>
      <point x="564" y="661"/>
      <point x="554" y="680"/>
      <point x="509" y="680" type="curve" smooth="yes"/>
      <point x="95" y="680" type="line" smooth="yes"/>
      <point x="50" y="680"/>
      <point x="35" y="661"/>
      <point x="35" y="623" type="curve" smooth="yes"/>
      <point x="35" y="57" type="line" smooth="yes"/>
      <point x="35" y="19"/>
      <point x="50" y="0"/>
      <point x="95" y="0" type="curve" smooth="yes"/>
    </contour>
  </outline>
</glyph>
<glyph name="H" format="1">
  <advance width="728"/>
  <unicode hex="0048"/>
  <note>
	H
  </note>
  <outline>
    <contour>
      <point x="214" y="0" type="line" smooth="yes"/>
      <point x="260" y="0"/>
      <point x="275" y="19"/>
      <point x="275" y="57" type="curve" smooth="yes"/>
      <point x="275" y="255" type="line"/>
      <point x="453" y="255" type="line"/>
      <point x="453" y="57" type="line" smooth="yes"/>
      <point x="453" y="19"/>
      <point x="468" y="0"/>
      <point x="513" y="0" type="curve" smooth="yes"/>
      <point x="632" y="0" type="line" smooth="yes"/>
      <point x="678" y="0"/>
      <point x="693" y="19"/>
      <point x="693" y="57" type="curve" smooth="yes"/>
      <point x="693" y="623" type="line" smooth="yes"/>
      <point x="693" y="661"/>
      <point x="678" y="680"/>
      <point x="632" y="680" type="curve" smooth="yes"/>
      <point x="513" y="680" type="line" smooth="yes"/>
      <point x="468" y="680"/>
      <point x="453" y="661"/>
      <point x="453" y="623" type="curve" smooth="yes"/>
      <point x="453" y="425" type="line"/>
      <point x="275" y="425" type="line"/>
      <point x="275" y="623" type="line" smooth="yes"/>
      <point x="275" y="661"/>
      <point x="260" y="680"/>
      <point x="214" y="680" type="curve" smooth="yes"/>
      <point x="95" y="680" type="line" smooth="yes"/>
      <point x="50" y="680"/>
      <point x="35" y="661"/>
      <point x="35" y="623" type="curve" smooth="yes"/>
      <point x="35" y="57" type="line" smooth="yes"/>
      <point x="35" y="19"/>
      <point x="50" y="0"/>
      <point x="95" y="0" type="curve" smooth="yes"/>
    </contour>
  </outline>
</glyph>
<glyph name="I" format="1">
  <advance width="310"/>
  <unicode hex="0049"/>
  <note>
	I
  </note>
  <outline>
    <contour>
      <point x="214" y="0" type="line" smooth="yes"/>
      <point x="260" y="0"/>
      <point x="275" y="19"/>
      <point x="275" y="57" type="curve" smooth="yes"/>
      <point x="275" y="623" type="line" smooth="yes"/>
      <point x="275" y="661"/>
      <point x="260" y="680"/>
      <point x="214" y="680" type="curve" smooth="yes"/>
      <point x="95" y="680" type="line" smooth="yes"/>
      <point x="50" y="680"/>
      <point x="35" y="661"/>
      <point x="35" y="623" type="curve" smooth="yes"/>
      <point x="35" y="57" type="line" smooth="yes"/>
      <point x="35" y="19"/>
      <point x="50" y="0"/>
      <point x="95" y="0" type="curve" smooth="yes"/>
    </contour>
  </outline>
</glyph>
<glyph name="M" format="1">
  <advance width="766"/>
  <unicode hex="004D"/>
  <note>
	M
  </note>
  <outline>
    <contour>
      <point x="191" y="0" type="line" smooth="yes"/>
      <point x="237" y="0"/>
      <point x="252" y="19"/>
      <point x="252" y="57" type="curve" smooth="yes"/>
      <point x="252" y="330" type="line"/>
      <point x="311" y="194" type="line" smooth="yes"/>
      <point x="325" y="161"/>
      <point x="337" y="140"/>
      <point x="383" y="140" type="curve" smooth="yes"/>
      <point x="429" y="140"/>
      <point x="441" y="161"/>
      <point x="455" y="194" type="curve" smooth="yes"/>
      <point x="514" y="330" type="line"/>
      <point x="514" y="57" type="line" smooth="yes"/>
      <point x="514" y="19"/>
      <point x="529" y="0"/>
      <point x="575" y="0" type="curve" smooth="yes"/>
      <point x="671" y="0" type="line" smooth="yes"/>
      <point x="716" y="0"/>
      <point x="731" y="19"/>
      <point x="731" y="57" type="curve" smooth="yes"/>
      <point x="731" y="624" type="line" smooth="yes"/>
      <point x="731" y="662"/>
      <point x="716" y="680"/>
      <point x="670" y="680" type="curve" smooth="yes"/>
      <point x="555" y="680" type="line" smooth="yes"/>
      <point x="528" y="680"/>
      <point x="510" y="676"/>
      <point x="500" y="653" type="curve" smooth="yes"/>
      <point x="383" y="360" type="line"/>
      <point x="266" y="653" type="line" smooth="yes"/>
      <point x="256" y="676"/>
      <point x="238" y="680"/>
      <point x="211" y="680" type="curve" smooth="yes"/>
      <point x="96" y="680" type="line" smooth="yes"/>
      <point x="50" y="680"/>
      <point x="35" y="662"/>
      <point x="35" y="624" type="curve" smooth="yes"/>
      <point x="35" y="57" type="line" smooth="yes"/>
      <point x="35" y="19"/>
      <point x="50" y="0"/>
      <point x="95" y="0" type="curve" smooth="yes"/>
    </contour>
  </outline>
</glyph>
<glyph name="T" format="1">
  <advance width="628"/>
  <unicode hex="0054"/>
  <note>
	T
  </note>
  <outline>
    <contour>
      <point x="373" y="0" type="line" smooth="yes"/>
      <point x="419" y="0"/>
      <point x="434" y="19"/>
      <point x="434" y="57" type="curve" smooth="yes"/>
      <point x="434" y="510" type="line"/>
      <point x="578" y="510" type="line" smooth="yes"/>
      <point x="623" y="510"/>
      <point x="633" y="529"/>
      <point x="633" y="567" type="curve" smooth="yes"/>
      <point x="633" y="623" type="line" smooth="yes"/>
      <point x="633" y="661"/>
      <point x="623" y="680"/>
      <point x="578" y="680" type="curve" smooth="yes"/>
      <point x="50" y="680" type="line" smooth="yes"/>
      <point x="5" y="680"/>
      <point x="-5" y="661"/>
      <point x="-5" y="623" type="curve" smooth="yes"/>
      <point x="-5" y="567" type="line" smooth="yes"/>
      <point x="-5" y="529"/>
      <point x="5" y="510"/>
      <point x="50" y="510" type="curve" smooth="yes"/>
      <point x="194" y="510" type="line"/>
      <point x="194" y="57" type="line" smooth="yes"/>
      <point x="194" y="19"/>
      <point x="209" y="0"/>
      <point x="254" y="0" type="curve" smooth="yes"/>
    </contour>
  </outline>
</glyph>
<glyph name="V" format="1">
  <advance width="732"/>
  <unicode hex="0056"/>
  <note>
	V
  </note>
  <outline>
    <contour>
      <point x="421" y="0" type="line" smooth="yes"/>
      <point x="450" y="0"/>
      <point x="463" y="10"/>
      <point x="474" y="38" type="curve" smooth="yes"/>
      <point x="712" y="637" type="line" smooth="yes"/>
      <point x="721" y="660"/>
      <point x="719" y="680"/>
      <point x="695" y="680" type="curve" smooth="yes"/>
      <point x="507" y="680" type="line" smooth="yes"/>
      <point x="485" y="680"/>
      <point x="473" y="670"/>
      <point x="468" y="653" type="curve" smooth="yes"/>
      <point x="366" y="327" type="line"/>
      <point x="264" y="653" type="line" smooth="yes"/>
      <point x="259" y="670"/>
      <point x="247" y="680"/>
      <point x="225" y="680" type="curve" smooth="yes"/>
      <point x="37" y="680" type="line" smooth="yes"/>
      <point x="13" y="680"/>
      <point x="11" y="660"/>
      <point x="20" y="637" type="curve" smooth="yes"/>
      <point x="259" y="38" type="line" smooth="yes"/>
      <point x="270" y="10"/>
      <point x="283" y="0"/>
      <point x="312" y="0" type="curve" smooth="yes"/>
    </contour>
  </outline>
</glyph>
<glyph name="X" format="1">
  <advance width="767"/>
  <unicode hex="0058"/>
  <note>
	X
  </note>
  <outline>
    <contour>
      <point x="227" y="0" type="line" smooth="yes"/>
      <point x="247" y="0"/>
      <point x="256" y="4"/>
      <point x="264" y="15" type="curve" smooth="yes"/>
      <point x="383" y="176" type="line"/>
      <point x="503" y="15" type="line" smooth="yes"/>
      <point x="511" y="4"/>
      <point x="520" y="0"/>
      <point x="540" y="0" type="curve" smooth="yes"/>
      <point x="727" y="0" type="line" smooth="yes"/>
      <point x="751" y="0"/>
      <point x="759" y="23"/>
      <point x="744" y="43" type="curve" smooth="yes"/>
      <point x="514" y="352" type="line"/>
      <point x="726" y="637" type="line" smooth="yes"/>
      <point x="741" y="657"/>
      <point x="733" y="680"/>
      <point x="709" y="680" type="curve" smooth="yes"/>
      <point x="522" y="680" type="line" smooth="yes"/>
      <point x="502" y="680"/>
      <point x="493" y="676"/>
      <point x="485" y="665" type="curve" smooth="yes"/>
      <point x="383" y="528" type="line"/>
      <point x="282" y="665" type="line" smooth="yes"/>
      <point x="274" y="676"/>
      <point x="265" y="680"/>
      <point x="245" y="680" type="curve" smooth="yes"/>
      <point x="58" y="680" type="line" smooth="yes"/>
      <point x="34" y="680"/>
      <point x="26" y="657"/>
      <point x="41" y="637" type="curve" smooth="yes"/>
      <point x="252" y="352" type="line"/>
      <point x="23" y="43" type="line" smooth="yes"/>
      <point x="8" y="23"/>
      <point x="16" y="0"/>
      <point x="40" y="0" type="curve" smooth="yes"/>
    </contour>
  </outline>
</glyph>
<glyph name="bracketleft" format="1">
  <advance width="379"/>
  <unicode hex="005B"/>
  <note>
	bracketleft
  </note>
  <outline>
    <contour>
      <point x="319" y="-70" type="line" smooth="yes"/>
      <point x="364" y="-70"/>
      <point x="374" y="-51"/>
      <point x="374" y="-13" type="curve" smooth="yes"/>
      <point x="374" y="43" type="line" smooth="yes"/>
      <point x="374" y="81"/>
      <point x="364" y="100"/>
      <point x="319" y="100" type="curve" smooth="yes"/>
      <point x="255" y="100" type="line"/>
      <point x="255" y="580" type="line"/>
      <point x="319" y="580" type="line" smooth="yes"/>
      <point x="364" y="580"/>
      <point x="374" y="599"/>
      <point x="374" y="637" type="curve" smooth="yes"/>
      <point x="374" y="693" type="line" smooth="yes"/>
      <point x="374" y="731"/>
      <point x="364" y="750"/>
      <point x="319" y="750" type="curve" smooth="yes"/>
      <point x="75" y="750" type="line" smooth="yes"/>
      <point x="30" y="750"/>
      <point x="15" y="731"/>
      <point x="15" y="693" type="curve" smooth="yes"/>
      <point x="15" y="-13" type="line" smooth="yes"/>
      <point x="15" y="-51"/>
      <point x="30" y="-70"/>
      <point x="75" y="-70" type="curve" smooth="yes"/>
    </contour>
  </outline>
</glyph>
<glyph name="backslash" format="1">
  <advance width="536"/>
  <unicode hex="005C"/>
  <note>
	backslash
  </note>
  <outline>
    <contour>
      <point x="499" y="0" type="line" smooth="yes"/>
      <point x="523" y="0"/>
      <point x="525" y="20"/>
      <point x="516" y="43" type="curve" smooth="yes"/>
      <point x="260" y="668" type="line" smooth="yes"/>
      <point x="253" y="684"/>
      <point x="243" y="695"/>
      <point x="221" y="695" type="curve" smooth="yes"/>
      <point x="37" y="695" type="line" smooth="yes"/>
      <point x="13" y="695"/>
      <point x="11" y="675"/>
      <point x="20" y="652" type="curve" smooth="yes"/>
      <point x="276" y="27" type="line" smooth="yes"/>
      <point x="283" y="11"/>
      <point x="293" y="0"/>
      <point x="315" y="0" type="curve" smooth="yes"/>
    </contour>
  </outline>
</glyph>
<glyph name="bracketright" format="1">
  <advance width="379"/>
  <unicode hex="005D"/>
  <note>
	bracketright
  </note>
  <outline>
    <contour>
      <point x="304" y="-70" type="line" smooth="yes"/>
      <point x="349" y="-70"/>
      <point x="364" y="-51"/>
      <point x="364" y="-13" type="curve" smooth="yes"/>
      <point x="364" y="693" type="line" smooth="yes"/>
      <point x="364" y="731"/>
      <point x="349" y="750"/>
      <point x="304" y="750" type="curve" smooth="yes"/>
      <point x="60" y="750" type="line" smooth="yes"/>
      <point x="15" y="750"/>
      <point x="5" y="731"/>
      <point x="5" y="693" type="curve" smooth="yes"/>
      <point x="5" y="637" type="line" smooth="yes"/>
      <point x="5" y="599"/>
      <point x="15" y="580"/>
      <point x="60" y="580" type="curve" smooth="yes"/>
      <point x="124" y="580" type="line"/>
      <point x="124" y="100" type="line"/>
      <point x="60" y="100" type="line" smooth="yes"/>
      <point x="15" y="100"/>
      <point x="5" y="81"/>
      <point x="5" y="43" type="curve" smooth="yes"/>
      <point x="5" y="-13" type="line" smooth="yes"/>
      <point x="5" y="-51"/>
      <point x="15" y="-70"/>
      <point x="60" y="-70" type="curve" smooth="yes"/>
    </contour>
  </outline>
</glyph>
<glyph name="asciicircum" format="1">
  <advance width="642"/>
  <unicode hex="005E"/>
  <note>
	asciicircum
  </note>
  <outline>
    <contour>
      <point x="201" y="339" type="line" smooth="yes"/>
      <point x="223" y="339"/>
      <point x="235" y="347"/>
      <point x="247" y="366" type="curve" smooth="yes"/>
      <point x="322" y="491" type="line"/>
      <point x="395" y="366" type="line" smooth="yes"/>
      <point x="407" y="347"/>
      <point x="419" y="339"/>
      <point x="441" y="339" type="curve" smooth="yes"/>
      <point x="602" y="339" type="line" smooth="yes"/>
      <point x="626" y="339"/>
      <point x="633" y="361"/>
      <point x="619" y="382" type="curve" smooth="yes"/>
      <point x="427" y="674" type="line" smooth="yes"/>
      <point x="408" y="703"/>
      <point x="398" y="719"/>
      <point x="355" y="719" type="curve" smooth="yes"/>
      <point x="287" y="719" type="line" smooth="yes"/>
      <point x="244" y="719"/>
      <point x="234" y="703"/>
      <point x="215" y="674" type="curve" smooth="yes"/>
      <point x="23" y="382" type="line" smooth="yes"/>
      <point x="9" y="361"/>
      <point x="16" y="339"/>
      <point x="40" y="339" type="curve" smooth="yes"/>
    </contour>
  </outline>
</glyph>
<glyph name="underscore" format="1">
  <advance width="507"/>
  <unicode hex="005F"/>
  <note>
	underscore
  </note>
  <outline>
    <contour>
      <point x="437" y="-185" type="line" smooth="yes"/>
      <point x="482" y="-185"/>
      <point x="492" y="-166"/>
      <point x="492" y="-128" type="curve" smooth="yes"/>
      <point x="492" y="-72" type="line" smooth="yes"/>
      <point x="492" y="-34"/>
      <point x="482" y="-15"/>
      <point x="437" y="-15" type="curve" smooth="yes"/>
      <point x="70" y="-15" type="line" smooth="yes"/>
      <point x="25" y="-15"/>
      <point x="15" y="-34"/>
      <point x="15" y="-72" type="curve" smooth="yes"/>
      <point x="15" y="-128" type="line" smooth="yes"/>
      <point x="15" y="-166"/>
      <point x="25" y="-185"/>
      <point x="70" y="-185" type="curve" smooth="yes"/>
    </contour>
  </outline>
</glyph>
<glyph name="grave" format="1">
  <advance width="325"/>
  <unicode hex="0060"/>
  <note>
	grave
  </note>
  <outline>
    <contour>
      <point x="269" y="546" type="line" smooth="yes"/>
      <point x="306" y="546"/>
      <point x="316" y="565"/>
      <point x="306" y="591" type="curve" smooth="yes"/>
      <point x="264" y="707" type="line" smooth="yes"/>
      <point x="254" y="736"/>
      <point x="247" y="746"/>
      <point x="204" y="746" type="curve" smooth="yes"/>
      <point x="61" y="746" type="line" smooth="yes"/>
      <point x="24" y="746"/>
      <point x="3" y="728"/>
      <point x="24" y="692" type="curve" smooth="yes"/>
      <point x="88" y="584" type="line" smooth="yes"/>
      <point x="106" y="554"/>
      <point x="114" y="546"/>
      <point x="162" y="546" type="curve" smooth="yes"/>
    </contour>
  </outline>
</glyph>
<glyph name="b" format="1">
  <advance width="626"/>
  <unicode hex="0062"/>
  <note>
	b
  </note>
  <outline>
    <contour>
      <point x="507" y="-15"/>
      <point x="611" y="89"/>
      <point x="611" y="259" type="curve" smooth="yes"/>
      <point x="611" y="407"/>
      <point x="528" y="495"/>
      <point x="363" y="495" type="curve" smooth="yes"/>
      <point x="334" y="495"/>
      <point x="289" y="487"/>
      <point x="270" y="477" type="curve"/>
      <point x="270" y="623" type="line" smooth="yes"/>
      <point x="270" y="661"/>
      <point x="255" y="680"/>
      <point x="209" y="680" type="curve" smooth="yes"/>
      <point x="95" y="680" type="line" smooth="yes"/>
      <point x="50" y="680"/>
      <point x="35" y="661"/>
      <point x="35" y="623" type="curve" smooth="yes"/>
      <point x="35" y="59" type="line"/>
      <point x="95" y="18"/>
      <point x="199" y="-15"/>
      <point x="307" y="-15" type="curve" smooth="yes"/>
    </contour>
    <contour>
      <point x="284" y="144"/>
      <point x="274" y="145"/>
      <point x="266" y="148" type="curve"/>
      <point x="266" y="284" type="line" smooth="yes"/>
      <point x="266" y="319"/>
      <point x="287" y="337"/>
      <point x="319" y="337" type="curve" smooth="yes"/>
      <point x="355" y="337"/>
      <point x="372" y="312"/>
      <point x="372" y="259" type="curve" smooth="yes"/>
      <point x="372" y="183"/>
      <point x="345" y="144"/>
      <point x="293" y="144" type="curve" smooth="yes"/>
    </contour>
  </outline>
</glyph>
<glyph name="d" format="1">
  <advance width="626"/>
  <unicode hex="0064"/>
  <note>
	d
  </note>
  <outline>
    <contour>
      <point x="435" y="-15"/>
      <point x="533" y="17"/>
      <point x="591" y="59" type="curve"/>
      <point x="591" y="623" type="line" smooth="yes"/>
      <point x="591" y="661"/>
      <point x="576" y="680"/>
      <point x="531" y="680" type="curve" smooth="yes"/>
      <point x="417" y="680" type="line" smooth="yes"/>
      <point x="371" y="680"/>
      <point x="356" y="661"/>
      <point x="356" y="623" type="curve" smooth="yes"/>
      <point x="356" y="478" type="line"/>
      <point x="335" y="487"/>
      <point x="296" y="495"/>
      <point x="263" y="495" type="curve" smooth="yes"/>
      <point x="98" y="495"/>
      <point x="15" y="392"/>
      <point x="15" y="244" type="curve" smooth="yes"/>
      <point x="15" y="74"/>
      <point x="117" y="-15"/>
      <point x="322" y="-15" type="curve" smooth="yes"/>
    </contour>
    <contour>
      <point x="284" y="144"/>
      <point x="254" y="168"/>
      <point x="254" y="244" type="curve" smooth="yes"/>
      <point x="254" y="297"/>
      <point x="272" y="337"/>
      <point x="314" y="337" type="curve" smooth="yes"/>
      <point x="348" y="337"/>
      <point x="360" y="322"/>
      <point x="360" y="288" type="curve" smooth="yes"/>
      <point x="360" y="148" type="line"/>
      <point x="352" y="145"/>
      <point x="340" y="144"/>
      <point x="331" y="144" type="curve" smooth="yes"/>
    </contour>
  </outline>
</glyph>
<glyph name="i" format="1">
  <advance width="318"/>
  <unicode hex="0069"/>
  <note>
	i
  </note>
  <outline>
    <contour>
      <point x="218" y="0" type="line" smooth="yes"/>
      <point x="264" y="0"/>
      <point x="279" y="19"/>
      <point x="279" y="57" type="curve" smooth="yes"/>
      <point x="279" y="423" type="line" smooth="yes"/>
      <point x="279" y="461"/>
      <point x="264" y="480"/>
      <point x="218" y="480" type="curve" smooth="yes"/>
      <point x="99" y="480" type="line" smooth="yes"/>
      <point x="54" y="480"/>
      <point x="39" y="461"/>
      <point x="39" y="423" type="curve" smooth="yes"/>
      <point x="39" y="57" type="line" smooth="yes"/>
      <point x="39" y="19"/>
      <point x="54" y="0"/>
      <point x="99" y="0" type="curve" smooth="yes"/>
    </contour>
    <contour>
      <point x="202" y="515" type="line" smooth="yes"/>
      <point x="258" y="515"/>
      <point x="283" y="550"/>
      <point x="283" y="585" type="curve" smooth="yes"/>
      <point x="283" y="610" type="line" smooth="yes"/>
      <point x="283" y="645"/>
      <point x="258" y="680"/>
      <point x="202" y="680" type="curve" smooth="yes"/>
      <point x="115" y="680" type="line" smooth="yes"/>
      <point x="60" y="680"/>
      <point x="35" y="645"/>
      <point x="35" y="610" type="curve" smooth="yes"/>
      <point x="35" y="585" type="line" smooth="yes"/>
      <point x="35" y="550"/>
      <point x="60" y="515"/>
      <point x="115" y="515" type="curve" smooth="yes"/>
    </contour>
  </outline>
</glyph>
<glyph name="j" format="1">
  <advance width="385"/>
  <unicode hex="006A"/>
  <note>
	j
  </note>
  <outline>
    <contour>
      <point x="264" y="-170"/>
      <point x="350" y="-77"/>
      <point x="350" y="61" type="curve" smooth="yes"/>
      <point x="350" y="423" type="line" smooth="yes"/>
      <point x="350" y="461"/>
      <point x="335" y="480"/>
      <point x="289" y="480" type="curve" smooth="yes"/>
      <point x="170" y="480" type="line" smooth="yes"/>
      <point x="125" y="480"/>
      <point x="110" y="461"/>
      <point x="110" y="423" type="curve" smooth="yes"/>
      <point x="110" y="63" type="line" smooth="yes"/>
      <point x="110" y="22"/>
      <point x="90" y="-2"/>
      <point x="42" y="-2" type="curve" smooth="yes"/>
      <point x="4" y="-2"/>
      <point x="-26" y="16"/>
      <point x="-50" y="34" type="curve" smooth="yes"/>
      <point x="-66" y="46"/>
      <point x="-79" y="47"/>
      <point x="-91" y="27" type="curve" smooth="yes"/>
      <point x="-141" y="-59" type="line" smooth="yes"/>
      <point x="-151" y="-77"/>
      <point x="-155" y="-92"/>
      <point x="-138" y="-104" type="curve" smooth="yes"/>
      <point x="-85" y="-143"/>
      <point x="-9" y="-170"/>
      <point x="94" y="-170" type="curve" smooth="yes"/>
    </contour>
    <contour>
      <point x="272" y="515" type="line" smooth="yes"/>
      <point x="328" y="515"/>
      <point x="353" y="550"/>
      <point x="353" y="585" type="curve" smooth="yes"/>
      <point x="353" y="610" type="line" smooth="yes"/>
      <point x="353" y="645"/>
      <point x="328" y="680"/>
      <point x="272" y="680" type="curve" smooth="yes"/>
      <point x="185" y="680" type="line" smooth="yes"/>
      <point x="130" y="680"/>
      <point x="105" y="645"/>
      <point x="105" y="610" type="curve" smooth="yes"/>
      <point x="105" y="585" type="line" smooth="yes"/>
      <point x="105" y="550"/>
      <point x="130" y="515"/>
      <point x="185" y="515" type="curve" smooth="yes"/>
    </contour>
  </outline>
</glyph>
<glyph name="o" format="1">
  <advance width="627"/>
  <unicode hex="006F"/>
  <note>
	o
  </note>
  <outline>
    <contour>
      <point x="503" y="-15"/>
      <point x="612" y="85"/>
      <point x="612" y="240" type="curve" smooth="yes"/>
      <point x="612" y="396"/>
      <point x="503" y="495"/>
      <point x="313" y="495" type="curve" smooth="yes"/>
      <point x="124" y="495"/>
      <point x="15" y="396"/>
      <point x="15" y="240" type="curve" smooth="yes"/>
      <point x="15" y="85"/>
      <point x="124" y="-15"/>
      <point x="313" y="-15" type="curve" smooth="yes"/>
    </contour>
    <contour>
      <point x="277" y="153"/>
      <point x="254" y="177"/>
      <point x="254" y="240" type="curve" smooth="yes"/>
      <point x="254" y="304"/>
      <point x="277" y="326"/>
      <point x="313" y="326" type="curve" smooth="yes"/>
      <point x="350" y="326"/>
      <point x="373" y="304"/>
      <point x="373" y="240" type="curve" smooth="yes"/>
      <point x="373" y="177"/>
      <point x="350" y="153"/>
      <point x="313" y="153" type="curve" smooth="yes"/>
    </contour>
  </outline>
</glyph>
<glyph name="t" format="1">
  <advance width="503"/>
  <unicode hex="0074"/>
  <note>
	t
  </note>
  <outline>
    <contour>
      <point x="393" y="-15"/>
      <point x="449" y="3"/>
      <point x="496" y="34" type="curve" smooth="yes"/>
      <point x="513" y="45"/>
      <point x="509" y="61"/>
      <point x="499" y="79" type="curve" smooth="yes"/>
      <point x="452" y="160" type="line" smooth="yes"/>
      <point x="443" y="175"/>
      <point x="431" y="178"/>
      <point x="415" y="168" type="curve" smooth="yes"/>
      <point x="401" y="159"/>
      <point x="394" y="153"/>
      <point x="372" y="153" type="curve" smooth="yes"/>
      <point x="344" y="153"/>
      <point x="332" y="168"/>
      <point x="332" y="199" type="curve" smooth="yes"/>
      <point x="332" y="320" type="line"/>
      <point x="392" y="320" type="line" smooth="yes"/>
      <point x="437" y="320"/>
      <point x="447" y="339"/>
      <point x="447" y="377" type="curve" smooth="yes"/>
      <point x="447" y="423" type="line" smooth="yes"/>
      <point x="447" y="461"/>
      <point x="437" y="480"/>
      <point x="392" y="480" type="curve" smooth="yes"/>
      <point x="332" y="480" type="line"/>
      <point x="332" y="583" type="line" smooth="yes"/>
      <point x="332" y="621"/>
      <point x="317" y="640"/>
      <point x="271" y="640" type="curve" smooth="yes"/>
      <point x="199" y="640" type="line" smooth="yes"/>
      <point x="162" y="640"/>
      <point x="155" y="633"/>
      <point x="141" y="609" type="curve" smooth="yes"/>
      <point x="123" y="579"/>
      <point x="92" y="531"/>
      <point x="92" y="491" type="curve" smooth="yes"/>
      <point x="92" y="480" type="line"/>
      <point x="60" y="480" type="line" smooth="yes"/>
      <point x="15" y="480"/>
      <point x="5" y="461"/>
      <point x="5" y="423" type="curve" smooth="yes"/>
      <point x="5" y="377" type="line" smooth="yes"/>
      <point x="5" y="339"/>
      <point x="15" y="320"/>
      <point x="60" y="320" type="curve" smooth="yes"/>
      <point x="92" y="320" type="line"/>
      <point x="92" y="195" type="line" smooth="yes"/>
      <point x="92" y="65"/>
      <point x="167" y="-15"/>
      <point x="304" y="-15" type="curve" smooth="yes"/>
    </contour>
  </outline>
</glyph>
<glyph name="x" format="1">
  <advance width="641"/>
  <unicode hex="0078"/>
  <note>
	x
  </note>
  <outline>
    <contour>
      <point x="228" y="0" type="line" smooth="yes"/>
      <point x="248" y="0"/>
      <point x="256" y="4"/>
      <point x="265" y="15" type="curve" smooth="yes"/>
      <point x="320" y="83" type="line"/>
      <point x="376" y="15" type="line" smooth="yes"/>
      <point x="385" y="4"/>
      <point x="393" y="0"/>
      <point x="413" y="0" type="curve" smooth="yes"/>
      <point x="600" y="0" type="line" smooth="yes"/>
      <point x="624" y="0"/>
      <point x="633" y="24"/>
      <point x="617" y="43" type="curve" smooth="yes"/>
      <point x="452" y="244" type="line"/>
      <point x="610" y="437" type="line" smooth="yes"/>
      <point x="626" y="456"/>
      <point x="617" y="480"/>
      <point x="593" y="480" type="curve" smooth="yes"/>
      <point x="406" y="480" type="line" smooth="yes"/>
      <point x="386" y="480"/>
      <point x="378" y="476"/>
      <point x="369" y="465" type="curve" smooth="yes"/>
      <point x="320" y="405" type="line"/>
      <point x="272" y="465" type="line" smooth="yes"/>
      <point x="263" y="476"/>
      <point x="255" y="480"/>
      <point x="235" y="480" type="curve" smooth="yes"/>
      <point x="48" y="480" type="line" smooth="yes"/>
      <point x="24" y="480"/>
      <point x="15" y="456"/>
      <point x="31" y="437" type="curve" smooth="yes"/>
      <point x="188" y="244" type="line"/>
      <point x="24" y="43" type="line" smooth="yes"/>
      <point x="8" y="24"/>
      <point x="17" y="0"/>
      <point x="41" y="0" type="curve" smooth="yes"/>
    </contour>
  </outline>
</glyph>
<glyph name="y" format="1">
  <advance width="618"/>
  <unicode hex="0079"/>
  <note>
	y
  </note>
  <outline>
    <contour>
      <point x="308" y="-156"/>
      <point x="366" y="-87"/>
      <point x="428" y="45" type="curve" smooth="yes"/>
      <point x="613" y="437" type="line" smooth="yes"/>
      <point x="623" y="459"/>
      <point x="620" y="480"/>
      <point x="596" y="480" type="curve" smooth="yes"/>
      <point x="418" y="480" type="line" smooth="yes"/>
      <point x="396" y="480"/>
      <point x="385" y="470"/>
      <point x="379" y="453" type="curve" smooth="yes"/>
      <point x="317" y="267" type="line"/>
      <point x="255" y="453" type="line" smooth="yes"/>
      <point x="249" y="470"/>
      <point x="238" y="480"/>
      <point x="216" y="480" type="curve" smooth="yes"/>
      <point x="38" y="480" type="line" smooth="yes"/>
      <point x="14" y="480"/>
      <point x="10" y="459"/>
      <point x="21" y="437" type="curve" smooth="yes"/>
      <point x="211" y="37" type="line"/>
      <point x="207" y="24"/>
      <point x="197" y="10"/>
      <point x="170" y="10" type="curve" smooth="yes"/>
      <point x="147" y="10"/>
      <point x="133" y="17"/>
      <point x="116" y="27" type="curve" smooth="yes"/>
      <point x="96" y="38"/>
      <point x="85" y="38"/>
      <point x="75" y="20" type="curve" smooth="yes"/>
      <point x="28" y="-62" type="line" smooth="yes"/>
      <point x="18" y="-80"/>
      <point x="17" y="-90"/>
      <point x="33" y="-103" type="curve" smooth="yes"/>
      <point x="70" y="-135"/>
      <point x="121" y="-156"/>
      <point x="187" y="-156" type="curve" smooth="yes"/>
    </contour>
  </outline>
</glyph>
<glyph name="braceleft" format="1">
  <advance width="404"/>
  <unicode hex="007B"/>
  <note>
	braceleft
  </note>
  <outline>
    <contour>
      <point x="344" y="-70" type="line" smooth="yes"/>
      <point x="389" y="-70"/>
      <point x="399" y="-51"/>
      <point x="399" y="-13" type="curve" smooth="yes"/>
      <point x="399" y="33" type="line" smooth="yes"/>
      <point x="399" y="71"/>
      <point x="389" y="90"/>
      <point x="344" y="90" type="curve" smooth="yes"/>
      <point x="321" y="90" type="line"/>
      <point x="321" y="590" type="line"/>
      <point x="344" y="590" type="line" smooth="yes"/>
      <point x="389" y="590"/>
      <point x="399" y="609"/>
      <point x="399" y="647" type="curve" smooth="yes"/>
      <point x="399" y="693" type="line" smooth="yes"/>
      <point x="399" y="731"/>
      <point x="389" y="750"/>
      <point x="344" y="750" type="curve" smooth="yes"/>
      <point x="146" y="750" type="line" smooth="yes"/>
      <point x="101" y="750"/>
      <point x="86" y="731"/>
      <point x="86" y="693" type="curve" smooth="yes"/>
      <point x="86" y="421" type="line"/>
      <point x="50" y="421" type="line" smooth="yes"/>
      <point x="5" y="421"/>
      <point x="-5" y="402"/>
      <point x="-5" y="364" type="curve" smooth="yes"/>
      <point x="-5" y="318" type="line" smooth="yes"/>
      <point x="-5" y="280"/>
      <point x="5" y="261"/>
      <point x="50" y="261" type="curve" smooth="yes"/>
      <point x="86" y="261" type="line"/>
      <point x="86" y="-13" type="line" smooth="yes"/>
      <point x="86" y="-51"/>
      <point x="101" y="-70"/>
      <point x="146" y="-70" type="curve" smooth="yes"/>
    </contour>
  </outline>
</glyph>
<glyph name="bar" format="1">
  <advance width="270"/>
  <unicode hex="007C"/>
  <note>
	bar
  </note>
  <outline>
    <contour>
      <point x="194" y="-90" type="line" smooth="yes"/>
      <point x="240" y="-90"/>
      <point x="255" y="-71"/>
      <point x="255" y="-33" type="curve" smooth="yes"/>
      <point x="255" y="713" type="line" smooth="yes"/>
      <point x="255" y="751"/>
      <point x="240" y="770"/>
      <point x="194" y="770" type="curve" smooth="yes"/>
      <point x="75" y="770" type="line" smooth="yes"/>
      <point x="30" y="770"/>
      <point x="15" y="751"/>
      <point x="15" y="713" type="curve" smooth="yes"/>
      <point x="15" y="-33" type="line" smooth="yes"/>
      <point x="15" y="-71"/>
      <point x="30" y="-90"/>
      <point x="75" y="-90" type="curve" smooth="yes"/>
    </contour>
  </outline>
</glyph>
<glyph name="braceright" format="1">
  <advance width="404"/>
  <unicode hex="007D"/>
  <note>
	braceright
  </note>
  <outline>
    <contour>
      <point x="258" y="-70" type="line" smooth="yes"/>
      <point x="303" y="-70"/>
      <point x="318" y="-51"/>
      <point x="318" y="-13" type="curve" smooth="yes"/>
      <point x="318" y="261" type="line"/>
      <point x="354" y="261" type="line" smooth="yes"/>
      <point x="399" y="261"/>
      <point x="409" y="280"/>
      <point x="409" y="318" type="curve" smooth="yes"/>
      <point x="409" y="364" type="line" smooth="yes"/>
      <point x="409" y="402"/>
      <point x="399" y="421"/>
      <point x="354" y="421" type="curve" smooth="yes"/>
      <point x="318" y="421" type="line"/>
      <point x="318" y="693" type="line" smooth="yes"/>
      <point x="318" y="731"/>
      <point x="303" y="750"/>
      <point x="258" y="750" type="curve" smooth="yes"/>
      <point x="60" y="750" type="line" smooth="yes"/>
      <point x="15" y="750"/>
      <point x="5" y="731"/>
      <point x="5" y="693" type="curve" smooth="yes"/>
      <point x="5" y="647" type="line" smooth="yes"/>
      <point x="5" y="609"/>
      <point x="15" y="590"/>
      <point x="60" y="590" type="curve" smooth="yes"/>
      <point x="83" y="590" type="line"/>
      <point x="83" y="90" type="line"/>
      <point x="60" y="90" type="line" smooth="yes"/>
      <point x="15" y="90"/>
      <point x="5" y="71"/>
      <point x="5" y="33" type="curve" smooth="yes"/>
      <point x="5" y="-13" type="line" smooth="yes"/>
      <point x="5" y="-51"/>
      <point x="15" y="-70"/>
      <point x="60" y="-70" type="curve" smooth="yes"/>
    </contour>
  </outline>
</glyph>
<glyph name="asciitilde" format="1">
  <advance width="644"/>
  <unicode hex="007E"/>
  <note>
	asciitilde
  </note>
  <outline>
    <contour>
      <point x="517" y="192"/>
      <point x="571" y="237"/>
      <point x="609" y="291" type="curve" smooth="yes"/>
      <point x="640" y="336"/>
      <point x="634" y="357"/>
      <point x="588" y="392" type="curve" smooth="yes"/>
      <point x="533" y="434"/>
      <point x="510" y="439"/>
      <point x="491" y="416" type="curve" smooth="yes"/>
      <point x="469" y="389"/>
      <point x="456" y="370"/>
      <point x="416" y="370" type="curve" smooth="yes"/>
      <point x="348" y="370"/>
      <point x="309" y="433"/>
      <point x="212" y="433" type="curve" smooth="yes"/>
      <point x="130" y="433"/>
      <point x="73" y="388"/>
      <point x="35" y="334" type="curve" smooth="yes"/>
      <point x="4" y="289"/>
      <point x="10" y="268"/>
      <point x="56" y="233" type="curve" smooth="yes"/>
      <point x="111" y="191"/>
      <point x="133" y="187"/>
      <point x="153" y="209" type="curve" smooth="yes"/>
      <point x="173" y="232"/>
      <point x="188" y="255"/>
      <point x="228" y="255" type="curve" smooth="yes"/>
      <point x="311" y="255"/>
      <point x="346" y="192"/>
      <point x="442" y="192" type="curve" smooth="yes"/>
    </contour>
  </outline>
</glyph>
<glyph name="exclamdown" format="1">
  <advance width="278"/>
  <unicode hex="00A1"/>
  <note>
	exclamdown
  </note>
  <outline>
    <contour>
      <point x="199" y="-155" type="line" smooth="yes"/>
      <point x="245" y="-155"/>
      <point x="261" y="-136"/>
      <point x="260" y="-98" type="curve" smooth="yes"/>
      <point x="253" y="295" type="line" smooth="yes"/>
      <point x="252" y="333"/>
      <point x="238" y="352"/>
      <point x="192" y="352" type="curve" smooth="yes"/>
      <point x="86" y="352" type="line" smooth="yes"/>
      <point x="41" y="352"/>
      <point x="27" y="333"/>
      <point x="26" y="295" type="curve" smooth="yes"/>
      <point x="20" y="-98" type="line" smooth="yes"/>
      <point x="19" y="-136"/>
      <point x="35" y="-155"/>
      <point x="80" y="-155" type="curve" smooth="yes"/>
    </contour>
    <contour>
      <point x="182" y="390" type="line" smooth="yes"/>
      <point x="238" y="390"/>
      <point x="263" y="410"/>
      <point x="263" y="445" type="curve" smooth="yes"/>
      <point x="263" y="470" type="line" smooth="yes"/>
      <point x="263" y="505"/>
      <point x="238" y="525"/>
      <point x="182" y="525" type="curve" smooth="yes"/>
      <point x="95" y="525" type="line" smooth="yes"/>
      <point x="40" y="525"/>
      <point x="15" y="505"/>
      <point x="15" y="470" type="curve" smooth="yes"/>
      <point x="15" y="445" type="line" smooth="yes"/>
      <point x="15" y="410"/>
      <point x="40" y="390"/>
      <point x="95" y="390" type="curve" smooth="yes"/>
    </contour>
  </outline>
</glyph>
<glyph name="sterling" format="1">
  <advance width="564"/>
  <unicode hex="00A3"/>
  <note>
	sterling
  </note>
  <outline>
    <contour>
      <point x="494" y="0" type="line" smooth="yes"/>
      <point x="539" y="0"/>
      <point x="549" y="19"/>
      <point x="549" y="57" type="curve" smooth="yes"/>
      <point x="549" y="103" type="line" smooth="yes"/>
      <point x="549" y="141"/>
      <point x="539" y="160"/>
      <point x="494" y="160" type="curve" smooth="yes"/>
      <point x="317" y="160" type="line"/>
      <point x="331" y="173"/>
      <point x="337" y="196"/>
      <point x="337" y="220" type="curve" smooth="yes"/>
      <point x="337" y="285" type="line"/>
      <point x="402" y="285" type="line" smooth="yes"/>
      <point x="447" y="285"/>
      <point x="457" y="304"/>
      <point x="457" y="342" type="curve" smooth="yes"/>
      <point x="457" y="388" type="line" smooth="yes"/>
      <point x="457" y="426"/>
      <point x="447" y="445"/>
      <point x="402" y="445" type="curve" smooth="yes"/>
      <point x="337" y="445" type="line"/>
      <point x="337" y="495" type="line" smooth="yes"/>
      <point x="337" y="525"/>
      <point x="349" y="542"/>
      <point x="384" y="542" type="curve" smooth="yes"/>
      <point x="402" y="542"/>
      <point x="419" y="539"/>
      <point x="432" y="532" type="curve" smooth="yes"/>
      <point x="447" y="524"/>
      <point x="457" y="525"/>
      <point x="466" y="540" type="curve" smooth="yes"/>
      <point x="508" y="611" type="line" smooth="yes"/>
      <point x="517" y="627"/>
      <point x="518" y="637"/>
      <point x="501" y="649" type="curve" smooth="yes"/>
      <point x="462" y="677"/>
      <point x="404" y="695"/>
      <point x="323" y="695" type="curve" smooth="yes"/>
      <point x="168" y="695"/>
      <point x="97" y="616"/>
      <point x="97" y="485" type="curve" smooth="yes"/>
      <point x="97" y="445" type="line"/>
      <point x="70" y="445" type="line" smooth="yes"/>
      <point x="25" y="445"/>
      <point x="15" y="426"/>
      <point x="15" y="388" type="curve" smooth="yes"/>
      <point x="15" y="342" type="line" smooth="yes"/>
      <point x="15" y="304"/>
      <point x="25" y="285"/>
      <point x="70" y="285" type="curve" smooth="yes"/>
      <point x="97" y="285" type="line"/>
      <point x="97" y="188" type="line" smooth="yes"/>
      <point x="97" y="166"/>
      <point x="91" y="160"/>
      <point x="70" y="160" type="curve" smooth="yes"/>
      <point x="25" y="160"/>
      <point x="15" y="141"/>
      <point x="15" y="103" type="curve" smooth="yes"/>
      <point x="15" y="57" type="line" smooth="yes"/>
      <point x="15" y="19"/>
      <point x="25" y="0"/>
      <point x="70" y="0" type="curve" smooth="yes"/>
    </contour>
  </outline>
</glyph>
<glyph name="currency" format="1">
  <advance width="584"/>
  <unicode hex="00A4"/>
  <note>
	currency
  </note>
  <outline>
    <contour>
      <point x="217" y="94" type="line"/>
      <point x="242" y="86"/>
      <point x="266" y="84"/>
      <point x="292" y="84" type="curve" smooth="yes"/>
      <point x="318" y="84"/>
      <point x="342" y="86"/>
      <point x="367" y="94" type="curve"/>
      <point x="414" y="54" type="line" smooth="yes"/>
      <point x="433" y="38"/>
      <point x="450" y="39"/>
      <point x="469" y="57" type="curve" smooth="yes"/>
      <point x="555" y="138" type="line" smooth="yes"/>
      <point x="573" y="155"/>
      <point x="572" y="168"/>
      <point x="557" y="184" type="curve" smooth="yes"/>
      <point x="524" y="218" type="line"/>
      <point x="538" y="247"/>
      <point x="546" y="277"/>
      <point x="546" y="305" type="curve" smooth="yes"/>
      <point x="546" y="334"/>
      <point x="538" y="364"/>
      <point x="524" y="393" type="curve"/>
      <point x="557" y="427" type="line" smooth="yes"/>
      <point x="572" y="443"/>
      <point x="573" y="456"/>
      <point x="555" y="473" type="curve" smooth="yes"/>
      <point x="469" y="554" type="line" smooth="yes"/>
      <point x="450" y="572"/>
      <point x="433" y="573"/>
      <point x="414" y="557" type="curve" smooth="yes"/>
      <point x="367" y="517" type="line"/>
      <point x="345" y="522"/>
      <point x="318" y="527"/>
      <point x="292" y="527" type="curve" smooth="yes"/>
      <point x="266" y="527"/>
      <point x="239" y="522"/>
      <point x="217" y="517" type="curve"/>
      <point x="170" y="557" type="line" smooth="yes"/>
      <point x="151" y="573"/>
      <point x="134" y="572"/>
      <point x="115" y="554" type="curve" smooth="yes"/>
      <point x="29" y="473" type="line" smooth="yes"/>
      <point x="11" y="456"/>
      <point x="12" y="443"/>
      <point x="27" y="427" type="curve" smooth="yes"/>
      <point x="60" y="393" type="line"/>
      <point x="46" y="364"/>
      <point x="38" y="334"/>
      <point x="38" y="305" type="curve" smooth="yes"/>
      <point x="38" y="277"/>
      <point x="46" y="247"/>
      <point x="60" y="218" type="curve"/>
      <point x="27" y="184" type="line" smooth="yes"/>
      <point x="12" y="168"/>
      <point x="11" y="155"/>
      <point x="29" y="138" type="curve" smooth="yes"/>
      <point x="115" y="57" type="line" smooth="yes"/>
      <point x="134" y="39"/>
      <point x="151" y="38"/>
      <point x="170" y="54" type="curve" smooth="yes"/>
    </contour>
    <contour>
      <point x="263" y="252"/>
      <point x="239" y="276"/>
      <point x="239" y="305" type="curve" smooth="yes"/>
      <point x="239" y="334"/>
      <point x="263" y="358"/>
      <point x="292" y="358" type="curve" smooth="yes"/>
      <point x="321" y="358"/>
      <point x="345" y="334"/>
      <point x="345" y="305" type="curve" smooth="yes"/>
      <point x="345" y="276"/>
      <point x="321" y="252"/>
      <point x="292" y="252" type="curve" smooth="yes"/>
    </contour>
  </outline>
</glyph>
<glyph name="yen" format="1">
  <advance width="750"/>
  <unicode hex="00A5"/>
  <note>
	yen
  </note>
  <outline>
    <contour>
      <point x="434" y="0" type="line" smooth="yes"/>
      <point x="480" y="0"/>
      <point x="495" y="19"/>
      <point x="495" y="57" type="curve" smooth="yes"/>
      <point x="495" y="62" type="line"/>
      <point x="578" y="62" type="line" smooth="yes"/>
      <point x="623" y="62"/>
      <point x="633" y="71"/>
      <point x="633" y="109" type="curve" smooth="yes"/>
      <point x="633" y="145" type="line" smooth="yes"/>
      <point x="633" y="183"/>
      <point x="623" y="192"/>
      <point x="578" y="192" type="curve" smooth="yes"/>
      <point x="495" y="192" type="line"/>
      <point x="495" y="224" type="line"/>
      <point x="578" y="224" type="line" smooth="yes"/>
      <point x="623" y="224"/>
      <point x="633" y="233"/>
      <point x="633" y="271" type="curve" smooth="yes"/>
      <point x="633" y="307" type="line" smooth="yes"/>
      <point x="633" y="345"/>
      <point x="623" y="354"/>
      <point x="578" y="354" type="curve" smooth="yes"/>
      <point x="562" y="354" type="line"/>
      <point x="728" y="637" type="line" smooth="yes"/>
      <point x="740" y="658"/>
      <point x="735" y="680"/>
      <point x="711" y="680" type="curve" smooth="yes"/>
      <point x="523" y="680" type="line" smooth="yes"/>
      <point x="501" y="680"/>
      <point x="492" y="668"/>
      <point x="484" y="653" type="curve" smooth="yes"/>
      <point x="375" y="452" type="line"/>
      <point x="266" y="653" type="line" smooth="yes"/>
      <point x="258" y="668"/>
      <point x="249" y="680"/>
      <point x="227" y="680" type="curve" smooth="yes"/>
      <point x="39" y="680" type="line" smooth="yes"/>
      <point x="15" y="680"/>
      <point x="10" y="658"/>
      <point x="22" y="637" type="curve" smooth="yes"/>
      <point x="187" y="354" type="line"/>
      <point x="172" y="354" type="line" smooth="yes"/>
      <point x="127" y="354"/>
      <point x="117" y="345"/>
      <point x="117" y="307" type="curve" smooth="yes"/>
      <point x="117" y="271" type="line" smooth="yes"/>
      <point x="117" y="233"/>
      <point x="127" y="224"/>
      <point x="172" y="224" type="curve" smooth="yes"/>
      <point x="255" y="224" type="line"/>
      <point x="255" y="192" type="line"/>
      <point x="172" y="192" type="line" smooth="yes"/>
      <point x="127" y="192"/>
      <point x="117" y="183"/>
      <point x="117" y="145" type="curve" smooth="yes"/>
      <point x="117" y="109" type="line" smooth="yes"/>
      <point x="117" y="71"/>
      <point x="127" y="62"/>
      <point x="172" y="62" type="curve" smooth="yes"/>
      <point x="255" y="62" type="line"/>
      <point x="255" y="57" type="line" smooth="yes"/>
      <point x="255" y="19"/>
      <point x="270" y="0"/>
      <point x="315" y="0" type="curve" smooth="yes"/>
    </contour>
  </outline>
</glyph>
<glyph name="brokenbar" format="1">
  <advance width="270"/>
  <unicode hex="00A6"/>
  <note>
	brokenbar
  </note>
  <outline>
    <contour>
      <point x="194" y="350" type="line" smooth="yes"/>
      <point x="240" y="350"/>
      <point x="255" y="369"/>
      <point x="255" y="407" type="curve" smooth="yes"/>
      <point x="255" y="673" type="line" smooth="yes"/>
      <point x="255" y="711"/>
      <point x="240" y="730"/>
      <point x="194" y="730" type="curve" smooth="yes"/>
      <point x="75" y="730" type="line" smooth="yes"/>
      <point x="30" y="730"/>
      <point x="15" y="711"/>
      <point x="15" y="673" type="curve" smooth="yes"/>
      <point x="15" y="407" type="line" smooth="yes"/>
      <point x="15" y="369"/>
      <point x="30" y="350"/>
      <point x="75" y="350" type="curve" smooth="yes"/>
    </contour>
    <contour>
      <point x="194" y="-219" type="line" smooth="yes"/>
      <point x="240" y="-219"/>
      <point x="255" y="-200"/>
      <point x="255" y="-162" type="curve" smooth="yes"/>
      <point x="255" y="104" type="line" smooth="yes"/>
      <point x="255" y="142"/>
      <point x="240" y="161"/>
      <point x="194" y="161" type="curve" smooth="yes"/>
      <point x="75" y="161" type="line" smooth="yes"/>
      <point x="30" y="161"/>
      <point x="15" y="142"/>
      <point x="15" y="104" type="curve" smooth="yes"/>
      <point x="15" y="-162" type="line" smooth="yes"/>
      <point x="15" y="-200"/>
      <point x="30" y="-219"/>
      <point x="75" y="-219" type="curve" smooth="yes"/>
    </contour>
  </outline>
</glyph>
<glyph name="ordfeminine" format="1">
  <advance width="354"/>
  <unicode hex="00AA"/>
  <note>
	ordfeminine
  </note>
  <outline>
    <contour>
      <point x="175" y="368"/>
      <point x="202" y="380"/>
      <point x="226" y="403" type="curve"/>
      <point x="230" y="390" type="line"/>
      <point x="232" y="382"/>
      <point x="237" y="377"/>
      <point x="246" y="377" type="curve" smooth="yes"/>
      <point x="324" y="377" type="line" smooth="yes"/>
      <point x="334" y="377"/>
      <point x="339" y="382"/>
      <point x="339" y="390" type="curve" smooth="yes"/>
      <point x="339" y="564" type="line" smooth="yes"/>
      <point x="339" y="651"/>
      <point x="293" y="695"/>
      <point x="177" y="695" type="curve" smooth="yes"/>
      <point x="127" y="695"/>
      <point x="87" y="686"/>
      <point x="59" y="673" type="curve" smooth="yes"/>
      <point x="51" y="669"/>
      <point x="47" y="665"/>
      <point x="50" y="659" type="curve"/>
      <point x="87" y="595" type="line"/>
      <point x="90" y="589"/>
      <point x="92" y="587"/>
      <point x="99" y="590" type="curve" smooth="yes"/>
      <point x="123" y="601"/>
      <point x="144" y="605"/>
      <point x="163" y="605" type="curve" smooth="yes"/>
      <point x="195" y="605"/>
      <point x="223" y="597"/>
      <point x="223" y="579" type="curve" smooth="yes"/>
      <point x="223" y="577" type="line"/>
      <point x="138" y="577" type="line" smooth="yes"/>
      <point x="65" y="577"/>
      <point x="15" y="540"/>
      <point x="15" y="470" type="curve" smooth="yes"/>
      <point x="15" y="409"/>
      <point x="60" y="368"/>
      <point x="123" y="368" type="curve" smooth="yes"/>
    </contour>
    <contour>
      <point x="150" y="451"/>
      <point x="140" y="459"/>
      <point x="140" y="478" type="curve" smooth="yes"/>
      <point x="140" y="493"/>
      <point x="150" y="502"/>
      <point x="171" y="502" type="curve" smooth="yes"/>
      <point x="223" y="502" type="line"/>
      <point x="223" y="498" type="line" smooth="yes"/>
      <point x="223" y="469"/>
      <point x="205" y="451"/>
      <point x="171" y="451" type="curve" smooth="yes"/>
    </contour>
  </outline>
</glyph>
<glyph name="degree" format="1">
  <advance width="342"/>
  <unicode hex="00B0"/>
  <note>
	degree
  </note>
  <outline>
    <contour>
      <point x="265" y="431"/>
      <point x="327" y="485"/>
      <point x="327" y="586" type="curve" smooth="yes"/>
      <point x="327" y="687"/>
      <point x="265" y="741"/>
      <point x="171" y="741" type="curve" smooth="yes"/>
      <point x="77" y="741"/>
      <point x="15" y="687"/>
      <point x="15" y="586" type="curve" smooth="yes"/>
      <point x="15" y="485"/>
      <point x="77" y="431"/>
      <point x="171" y="431" type="curve" smooth="yes"/>
    </contour>
    <contour>
      <point x="148" y="546"/>
      <point x="132" y="560"/>
      <point x="132" y="586" type="curve" smooth="yes"/>
      <point x="132" y="612"/>
      <point x="148" y="626"/>
      <point x="171" y="626" type="curve" smooth="yes"/>
      <point x="194" y="626"/>
      <point x="210" y="612"/>
      <point x="210" y="586" type="curve" smooth="yes"/>
      <point x="210" y="560"/>
      <point x="194" y="546"/>
      <point x="171" y="546" type="curve" smooth="yes"/>
    </contour>
  </outline>
</glyph>
<glyph name="twosuperior" format="1">
  <advance width="374"/>
  <unicode hex="00B2"/>
  <note>
	twosuperior
  </note>
  <outline>
    <contour>
      <point x="327" y="286" type="line" smooth="yes"/>
      <point x="353" y="286"/>
      <point x="359" y="297"/>
      <point x="359" y="319" type="curve" smooth="yes"/>
      <point x="359" y="373" type="line" smooth="yes"/>
      <point x="359" y="395"/>
      <point x="353" y="406"/>
      <point x="327" y="406" type="curve" smooth="yes"/>
      <point x="212" y="406" type="line"/>
      <point x="226" y="419"/>
      <point x="245" y="434"/>
      <point x="272" y="450" type="curve" smooth="yes"/>
      <point x="337" y="489"/>
      <point x="356" y="521"/>
      <point x="356" y="577" type="curve" smooth="yes"/>
      <point x="356" y="654"/>
      <point x="290" y="695"/>
      <point x="201" y="695" type="curve" smooth="yes"/>
      <point x="117" y="695"/>
      <point x="55" y="680"/>
      <point x="22" y="657" type="curve" smooth="yes"/>
      <point x="12" y="650"/>
      <point x="14" y="642"/>
      <point x="20" y="631" type="curve"/>
      <point x="50" y="571" type="line"/>
      <point x="57" y="559"/>
      <point x="62" y="561"/>
      <point x="74" y="567" type="curve" smooth="yes"/>
      <point x="93" y="576"/>
      <point x="121" y="586"/>
      <point x="154" y="586" type="curve" smooth="yes"/>
      <point x="184" y="586"/>
      <point x="195" y="576"/>
      <point x="195" y="558" type="curve" smooth="yes"/>
      <point x="195" y="527"/>
      <point x="178" y="525"/>
      <point x="124" y="488" type="curve" smooth="yes"/>
      <point x="45" y="434"/>
      <point x="18" y="411"/>
      <point x="18" y="364" type="curve" smooth="yes"/>
      <point x="18" y="317" type="line" smooth="yes"/>
      <point x="18" y="296"/>
      <point x="27" y="286"/>
      <point x="47" y="286" type="curve" smooth="yes"/>
    </contour>
  </outline>
</glyph>
<glyph name="threesuperior" format="1">
  <advance width="379"/>
  <unicode hex="00B3"/>
  <note>
	threesuperior
  </note>
  <outline>
    <contour>
      <point x="298" y="279"/>
      <point x="364" y="330"/>
      <point x="364" y="408" type="curve" smooth="yes"/>
      <point x="364" y="446"/>
      <point x="348" y="475"/>
      <point x="318" y="493" type="curve"/>
      <point x="343" y="513"/>
      <point x="354" y="540"/>
      <point x="354" y="572" type="curve" smooth="yes"/>
      <point x="354" y="648"/>
      <point x="283" y="695"/>
      <point x="180" y="695" type="curve" smooth="yes"/>
      <point x="115" y="695"/>
      <point x="61" y="681"/>
      <point x="27" y="659" type="curve"/>
      <point x="17" y="652"/>
      <point x="20" y="643"/>
      <point x="26" y="633" type="curve"/>
      <point x="55" y="578" type="line"/>
      <point x="62" y="567"/>
      <point x="67" y="569"/>
      <point x="79" y="575" type="curve" smooth="yes"/>
      <point x="98" y="584"/>
      <point x="114" y="593"/>
      <point x="146" y="593" type="curve" smooth="yes"/>
      <point x="176" y="593"/>
      <point x="184" y="582"/>
      <point x="184" y="566" type="curve" smooth="yes"/>
      <point x="184" y="550"/>
      <point x="177" y="541"/>
      <point x="158" y="541" type="curve" smooth="yes"/>
      <point x="130" y="541" type="line" smooth="yes"/>
      <point x="103" y="541"/>
      <point x="94" y="531"/>
      <point x="94" y="509" type="curve" smooth="yes"/>
      <point x="94" y="473" type="line" smooth="yes"/>
      <point x="94" y="450"/>
      <point x="103" y="439"/>
      <point x="130" y="439" type="curve" smooth="yes"/>
      <point x="166" y="439" type="line" smooth="yes"/>
      <point x="185" y="439"/>
      <point x="195" y="431"/>
      <point x="195" y="413" type="curve" smooth="yes"/>
      <point x="195" y="393"/>
      <point x="178" y="381"/>
      <point x="145" y="381" type="curve" smooth="yes"/>
      <point x="115" y="381"/>
      <point x="93" y="390"/>
      <point x="74" y="399" type="curve"/>
      <point x="63" y="405"/>
      <point x="57" y="407"/>
      <point x="50" y="396" type="curve"/>
      <point x="20" y="341" type="line"/>
      <point x="14" y="331"/>
      <point x="12" y="322"/>
      <point x="22" y="315" type="curve" smooth="yes"/>
      <point x="55" y="293"/>
      <point x="118" y="279"/>
      <point x="182" y="279" type="curve" smooth="yes"/>
    </contour>
  </outline>
</glyph>
<glyph name="acute" format="1">
  <advance width="325"/>
  <unicode hex="00B4"/>
  <note>
	acute
  </note>
  <outline>
    <contour>
      <point x="163" y="546" type="line" smooth="yes"/>
      <point x="211" y="546"/>
      <point x="219" y="554"/>
      <point x="237" y="584" type="curve" smooth="yes"/>
      <point x="301" y="692" type="line" smooth="yes"/>
      <point x="322" y="728"/>
      <point x="301" y="746"/>
      <point x="264" y="746" type="curve" smooth="yes"/>
      <point x="121" y="746" type="line" smooth="yes"/>
      <point x="78" y="746"/>
      <point x="71" y="735"/>
      <point x="61" y="707" type="curve" smooth="yes"/>
      <point x="19" y="591" type="line" smooth="yes"/>
      <point x="10" y="565"/>
      <point x="19" y="546"/>
      <point x="56" y="546" type="curve" smooth="yes"/>
    </contour>
  </outline>
</glyph>
<glyph name="paragraph" format="1">
  <advance width="804"/>
  <unicode hex="00B6"/>
  <note>
	paragraph
  </note>
  <outline>
    <contour>
      <point x="389" y="-100" type="line" smooth="yes"/>
      <point x="435" y="-100"/>
      <point x="450" y="-81"/>
      <point x="450" y="-43" type="curve" smooth="yes"/>
      <point x="450" y="509" type="line"/>
      <point x="496" y="509" type="line"/>
      <point x="496" y="-43" type="line" smooth="yes"/>
      <point x="496" y="-81"/>
      <point x="511" y="-100"/>
      <point x="556" y="-100" type="curve" smooth="yes"/>
      <point x="673" y="-100" type="line" smooth="yes"/>
      <point x="719" y="-100"/>
      <point x="734" y="-81"/>
      <point x="734" y="-43" type="curve" smooth="yes"/>
      <point x="734" y="510" type="line"/>
      <point x="779" y="510"/>
      <point x="789" y="529"/>
      <point x="789" y="567" type="curve" smooth="yes"/>
      <point x="789" y="623" type="line" smooth="yes"/>
      <point x="789" y="661"/>
      <point x="779" y="680"/>
      <point x="734" y="680" type="curve" smooth="yes"/>
      <point x="310" y="680" type="line" smooth="yes"/>
      <point x="103" y="680"/>
      <point x="15" y="602"/>
      <point x="15" y="449" type="curve" smooth="yes"/>
      <point x="15" y="326"/>
      <point x="97" y="239"/>
      <point x="212" y="239" type="curve"/>
      <point x="212" y="-43" type="line" smooth="yes"/>
      <point x="212" y="-81"/>
      <point x="227" y="-100"/>
      <point x="272" y="-100" type="curve" smooth="yes"/>
    </contour>
  </outline>
</glyph>
<glyph name="cedilla" format="1">
  <advance width="291"/>
  <unicode hex="00B8"/>
  <note>
	cedilla
  </note>
  <outline>
    <contour>
      <point x="235" y="-245"/>
      <point x="276" y="-201"/>
      <point x="276" y="-155" type="curve" smooth="yes"/>
      <point x="276" y="-112"/>
      <point x="257" y="-90"/>
      <point x="213" y="-81" type="curve"/>
      <point x="236" y="-31" type="line" smooth="yes"/>
      <point x="241" y="-21"/>
      <point x="238" y="-15"/>
      <point x="226" y="-15" type="curve" smooth="yes"/>
      <point x="104" y="-15" type="line" smooth="yes"/>
      <point x="90" y="-15"/>
      <point x="86" y="-18"/>
      <point x="82" y="-29" type="curve" smooth="yes"/>
      <point x="55" y="-96" type="line" smooth="yes"/>
      <point x="51" y="-106"/>
      <point x="55" y="-112"/>
      <point x="65" y="-112" type="curve" smooth="yes"/>
      <point x="83" y="-112" type="line" smooth="yes"/>
      <point x="116" y="-112"/>
      <point x="130" y="-118"/>
      <point x="130" y="-135" type="curve" smooth="yes"/>
      <point x="130" y="-145"/>
      <point x="122" y="-152"/>
      <point x="100" y="-152" type="curve" smooth="yes"/>
      <point x="88" y="-152"/>
      <point x="71" y="-148"/>
      <point x="59" y="-142" type="curve" smooth="yes"/>
      <point x="51" y="-138"/>
      <point x="45" y="-137"/>
      <point x="41" y="-146" type="curve"/>
      <point x="17" y="-209" type="line" smooth="yes"/>
      <point x="13" y="-219"/>
      <point x="15" y="-221"/>
      <point x="27" y="-227" type="curve" smooth="yes"/>
      <point x="47" y="-237"/>
      <point x="96" y="-245"/>
      <point x="135" y="-245" type="curve" smooth="yes"/>
    </contour>
  </outline>
</glyph>
<glyph name="onesuperior" format="1">
  <advance width="333"/>
  <unicode hex="00B9"/>
  <note>
	onesuperior
  </note>
  <outline>
    <contour>
      <point x="307" y="286" type="line" smooth="yes"/>
      <point x="333" y="286"/>
      <point x="338" y="297"/>
      <point x="338" y="319" type="curve" smooth="yes"/>
      <point x="338" y="361" type="line" smooth="yes"/>
      <point x="338" y="383"/>
      <point x="333" y="394"/>
      <point x="307" y="394" type="curve" smooth="yes"/>
      <point x="270" y="394" type="line"/>
      <point x="270" y="647" type="line" smooth="yes"/>
      <point x="270" y="669"/>
      <point x="261" y="680"/>
      <point x="235" y="680" type="curve" smooth="yes"/>
      <point x="162" y="680" type="line" smooth="yes"/>
      <point x="145" y="680"/>
      <point x="140" y="677"/>
      <point x="131" y="672" type="curve"/>
      <point x="22" y="606" type="line" smooth="yes"/>
      <point x="15" y="602"/>
      <point x="14" y="597"/>
      <point x="18" y="591" type="curve" smooth="yes"/>
      <point x="65" y="520" type="line"/>
      <point x="69" y="513"/>
      <point x="76" y="513"/>
      <point x="81" y="517" type="curve"/>
      <point x="110" y="536" type="line"/>
      <point x="110" y="394" type="line"/>
      <point x="74" y="394" type="line" smooth="yes"/>
      <point x="48" y="394"/>
      <point x="42" y="383"/>
      <point x="42" y="361" type="curve" smooth="yes"/>
      <point x="42" y="319" type="line" smooth="yes"/>
      <point x="42" y="297"/>
      <point x="48" y="286"/>
      <point x="74" y="286" type="curve" smooth="yes"/>
    </contour>
  </outline>
</glyph>
<glyph name="onequarter" format="1">
  <advance width="872"/>
  <unicode hex="00BC"/>
  <note>
	onequarter
  </note>
  <outline>
    <contour>
      <point x="313" y="0" type="line" smooth="yes"/>
      <point x="335" y="0"/>
      <point x="338" y="4"/>
      <point x="347" y="20" type="curve" smooth="yes"/>
      <point x="713" y="637" type="line" smooth="yes"/>
      <point x="725" y="658"/>
      <point x="720" y="680"/>
      <point x="696" y="680" type="curve" smooth="yes"/>
      <point x="557" y="680" type="line" smooth="yes"/>
      <point x="535" y="680"/>
      <point x="524" y="671"/>
      <point x="513" y="653" type="curve" smooth="yes"/>
      <point x="152" y="43" type="line" smooth="yes"/>
      <point x="140" y="22"/>
      <point x="145" y="0"/>
      <point x="169" y="0" type="curve" smooth="yes"/>
    </contour>
    <contour>
      <point x="249" y="286" type="line" smooth="yes"/>
      <point x="275" y="286"/>
      <point x="280" y="297"/>
      <point x="280" y="319" type="curve" smooth="yes"/>
      <point x="280" y="647" type="line" smooth="yes"/>
      <point x="280" y="669"/>
      <point x="271" y="680"/>
      <point x="245" y="680" type="curve" smooth="yes"/>
      <point x="162" y="680" type="line" smooth="yes"/>
      <point x="145" y="680"/>
      <point x="140" y="677"/>
      <point x="131" y="672" type="curve"/>
      <point x="22" y="606" type="line" smooth="yes"/>
      <point x="15" y="602"/>
      <point x="14" y="597"/>
      <point x="18" y="591" type="curve" smooth="yes"/>
      <point x="65" y="520" type="line"/>
      <point x="69" y="513"/>
      <point x="76" y="513"/>
      <point x="81" y="517" type="curve"/>
      <point x="110" y="536" type="line"/>
      <point x="110" y="319" type="line" smooth="yes"/>
      <point x="110" y="297"/>
      <point x="116" y="286"/>
      <point x="142" y="286" type="curve" smooth="yes"/>
    </contour>
    <contour>
      <point x="768" y="0" type="line" smooth="yes"/>
      <point x="795" y="0"/>
      <point x="804" y="8"/>
      <point x="804" y="30" type="curve" smooth="yes"/>
      <point x="804" y="76" type="line"/>
      <point x="826" y="76" type="line" smooth="yes"/>
      <point x="852" y="76"/>
      <point x="857" y="86"/>
      <point x="857" y="108" type="curve" smooth="yes"/>
      <point x="857" y="146" type="line" smooth="yes"/>
      <point x="857" y="167"/>
      <point x="852" y="179"/>
      <point x="826" y="179" type="curve" smooth="yes"/>
      <point x="804" y="179" type="line"/>
      <point x="804" y="361" type="line" smooth="yes"/>
      <point x="804" y="383"/>
      <point x="795" y="394"/>
      <point x="769" y="394" type="curve" smooth="yes"/>
      <point x="663" y="394" type="line" smooth="yes"/>
      <point x="641" y="394"/>
      <point x="636" y="390"/>
      <point x="625" y="376" type="curve" smooth="yes"/>
      <point x="467" y="186" type="line" smooth="yes"/>
      <point x="455" y="172"/>
      <point x="454" y="167"/>
      <point x="454" y="149" type="curve" smooth="yes"/>
      <point x="454" y="96" type="line" smooth="yes"/>
      <point x="454" y="83"/>
      <point x="460" y="76"/>
      <point x="474" y="76" type="curve" smooth="yes"/>
      <point x="634" y="76" type="line"/>
      <point x="634" y="30" type="line" smooth="yes"/>
      <point x="634" y="8"/>
      <point x="643" y="0"/>
      <point x="669" y="0" type="curve" smooth="yes"/>
    </contour>
    <contour>
      <point x="673" y="250" type="line"/>
      <point x="673" y="179" type="line"/>
      <point x="618" y="179" type="line"/>
    </contour>
  </outline>
</glyph>
<glyph name="onehalf" format="1">
  <advance width="909"/>
  <unicode hex="00BD"/>
  <note>
	onehalf
  </note>
  <outline>
    <contour>
      <point x="313" y="0" type="line" smooth="yes"/>
      <point x="335" y="0"/>
      <point x="338" y="4"/>
      <point x="347" y="20" type="curve" smooth="yes"/>
      <point x="713" y="637" type="line" smooth="yes"/>
      <point x="725" y="658"/>
      <point x="720" y="680"/>
      <point x="696" y="680" type="curve" smooth="yes"/>
      <point x="557" y="680" type="line" smooth="yes"/>
      <point x="535" y="680"/>
      <point x="524" y="671"/>
      <point x="513" y="653" type="curve" smooth="yes"/>
      <point x="152" y="43" type="line" smooth="yes"/>
      <point x="140" y="22"/>
      <point x="145" y="0"/>
      <point x="169" y="0" type="curve" smooth="yes"/>
    </contour>
    <contour>
      <point x="249" y="286" type="line" smooth="yes"/>
      <point x="275" y="286"/>
      <point x="280" y="297"/>
      <point x="280" y="319" type="curve" smooth="yes"/>
      <point x="280" y="647" type="line" smooth="yes"/>
      <point x="280" y="669"/>
      <point x="271" y="680"/>
      <point x="245" y="680" type="curve" smooth="yes"/>
      <point x="162" y="680" type="line" smooth="yes"/>
      <point x="145" y="680"/>
      <point x="140" y="677"/>
      <point x="131" y="672" type="curve"/>
      <point x="22" y="606" type="line" smooth="yes"/>
      <point x="15" y="602"/>
      <point x="14" y="597"/>
      <point x="18" y="591" type="curve" smooth="yes"/>
      <point x="65" y="520" type="line"/>
      <point x="69" y="513"/>
      <point x="76" y="513"/>
      <point x="81" y="517" type="curve"/>
      <point x="110" y="536" type="line"/>
      <point x="110" y="319" type="line" smooth="yes"/>
      <point x="110" y="297"/>
      <point x="116" y="286"/>
      <point x="142" y="286" type="curve" smooth="yes"/>
    </contour>
    <contour>
      <point x="862" y="0" type="line" smooth="yes"/>
      <point x="888" y="0"/>
      <point x="894" y="11"/>
      <point x="894" y="33" type="curve" smooth="yes"/>
      <point x="894" y="87" type="line" smooth="yes"/>
      <point x="894" y="109"/>
      <point x="888" y="120"/>
      <point x="862" y="120" type="curve" smooth="yes"/>
      <point x="747" y="120" type="line"/>
      <point x="761" y="133"/>
      <point x="780" y="148"/>
      <point x="807" y="164" type="curve" smooth="yes"/>
      <point x="872" y="203"/>
      <point x="891" y="235"/>
      <point x="891" y="291" type="curve" smooth="yes"/>
      <point x="891" y="368"/>
      <point x="820" y="409"/>
      <point x="731" y="409" type="curve" smooth="yes"/>
      <point x="660" y="409"/>
      <point x="612" y="399"/>
      <point x="577" y="376" type="curve" smooth="yes"/>
      <point x="567" y="369"/>
      <point x="569" y="361"/>
      <point x="575" y="350" type="curve"/>
      <point x="605" y="290" type="line"/>
      <point x="612" y="278"/>
      <point x="617" y="280"/>
      <point x="629" y="286" type="curve" smooth="yes"/>
      <point x="648" y="295"/>
      <point x="662" y="300"/>
      <point x="689" y="300" type="curve" smooth="yes"/>
      <point x="719" y="300"/>
      <point x="730" y="290"/>
      <point x="730" y="272" type="curve" smooth="yes"/>
      <point x="730" y="241"/>
      <point x="713" y="239"/>
      <point x="659" y="202" type="curve" smooth="yes"/>
      <point x="580" y="148"/>
      <point x="563" y="115"/>
      <point x="563" y="68" type="curve" smooth="yes"/>
      <point x="563" y="31" type="line" smooth="yes"/>
      <point x="563" y="10"/>
      <point x="572" y="0"/>
      <point x="592" y="0" type="curve" smooth="yes"/>
    </contour>
  </outline>
</glyph>
<glyph name="threequarters" format="1">
  <advance width="910"/>
  <unicode hex="00BE"/>
  <note>
	threequarters
  </note>
  <outline>
    <contour>
      <point x="351" y="0" type="line" smooth="yes"/>
      <point x="373" y="0"/>
      <point x="376" y="4"/>
      <point x="385" y="20" type="curve" smooth="yes"/>
      <point x="751" y="637" type="line" smooth="yes"/>
      <point x="763" y="658"/>
      <point x="758" y="680"/>
      <point x="734" y="680" type="curve" smooth="yes"/>
      <point x="595" y="680" type="line" smooth="yes"/>
      <point x="573" y="680"/>
      <point x="562" y="671"/>
      <point x="551" y="653" type="curve" smooth="yes"/>
      <point x="190" y="43" type="line" smooth="yes"/>
      <point x="178" y="22"/>
      <point x="183" y="0"/>
      <point x="207" y="0" type="curve" smooth="yes"/>
    </contour>
    <contour>
      <point x="298" y="279"/>
      <point x="364" y="330"/>
      <point x="364" y="408" type="curve" smooth="yes"/>
      <point x="364" y="446"/>
      <point x="348" y="475"/>
      <point x="318" y="493" type="curve"/>
      <point x="343" y="513"/>
      <point x="354" y="540"/>
      <point x="354" y="572" type="curve" smooth="yes"/>
      <point x="354" y="648"/>
      <point x="283" y="695"/>
      <point x="180" y="695" type="curve" smooth="yes"/>
      <point x="115" y="695"/>
      <point x="61" y="681"/>
      <point x="27" y="659" type="curve"/>
      <point x="17" y="652"/>
      <point x="20" y="643"/>
      <point x="26" y="633" type="curve"/>
      <point x="55" y="578" type="line"/>
      <point x="62" y="567"/>
      <point x="67" y="569"/>
      <point x="79" y="575" type="curve" smooth="yes"/>
      <point x="98" y="584"/>
      <point x="114" y="593"/>
      <point x="146" y="593" type="curve" smooth="yes"/>
      <point x="176" y="593"/>
      <point x="184" y="582"/>
      <point x="184" y="566" type="curve" smooth="yes"/>
      <point x="184" y="550"/>
      <point x="177" y="541"/>
      <point x="158" y="541" type="curve" smooth="yes"/>
      <point x="130" y="541" type="line" smooth="yes"/>
      <point x="103" y="541"/>
      <point x="94" y="531"/>
      <point x="94" y="509" type="curve" smooth="yes"/>
      <point x="94" y="473" type="line" smooth="yes"/>
      <point x="94" y="450"/>
      <point x="103" y="439"/>
      <point x="130" y="439" type="curve" smooth="yes"/>
      <point x="166" y="439" type="line" smooth="yes"/>
      <point x="185" y="439"/>
      <point x="195" y="431"/>
      <point x="195" y="413" type="curve" smooth="yes"/>
      <point x="195" y="393"/>
      <point x="178" y="381"/>
      <point x="145" y="381" type="curve" smooth="yes"/>
      <point x="115" y="381"/>
      <point x="93" y="390"/>
      <point x="74" y="399" type="curve"/>
      <point x="63" y="405"/>
      <point x="57" y="407"/>
      <point x="50" y="396" type="curve"/>
      <point x="20" y="341" type="line"/>
      <point x="14" y="331"/>
      <point x="12" y="322"/>
      <point x="22" y="315" type="curve" smooth="yes"/>
      <point x="55" y="293"/>
      <point x="118" y="279"/>
      <point x="182" y="279" type="curve" smooth="yes"/>
    </contour>
    <contour>
      <point x="806" y="0" type="line" smooth="yes"/>
      <point x="833" y="0"/>
      <point x="842" y="8"/>
      <point x="842" y="30" type="curve" smooth="yes"/>
      <point x="842" y="76" type="line"/>
      <point x="864" y="76" type="line" smooth="yes"/>
      <point x="890" y="76"/>
      <point x="895" y="86"/>
      <point x="895" y="108" type="curve" smooth="yes"/>
      <point x="895" y="146" type="line" smooth="yes"/>
      <point x="895" y="167"/>
      <point x="890" y="179"/>
      <point x="864" y="179" type="curve" smooth="yes"/>
      <point x="842" y="179" type="line"/>
      <point x="842" y="361" type="line" smooth="yes"/>
      <point x="842" y="383"/>
      <point x="833" y="394"/>
      <point x="807" y="394" type="curve" smooth="yes"/>
      <point x="701" y="394" type="line" smooth="yes"/>
      <point x="679" y="394"/>
      <point x="674" y="390"/>
      <point x="663" y="376" type="curve" smooth="yes"/>
      <point x="505" y="186" type="line" smooth="yes"/>
      <point x="493" y="172"/>
      <point x="492" y="167"/>
      <point x="492" y="149" type="curve" smooth="yes"/>
      <point x="492" y="96" type="line" smooth="yes"/>
      <point x="492" y="83"/>
      <point x="498" y="76"/>
      <point x="512" y="76" type="curve" smooth="yes"/>
      <point x="672" y="76" type="line"/>
      <point x="672" y="30" type="line" smooth="yes"/>
      <point x="672" y="8"/>
      <point x="681" y="0"/>
      <point x="707" y="0" type="curve" smooth="yes"/>
    </contour>
    <contour>
      <point x="711" y="250" type="line"/>
      <point x="711" y="179" type="line"/>
      <point x="656" y="179" type="line"/>
    </contour>
  </outline>
</glyph>
<glyph name="Aacute" format="1">
  <advance width="752"/>
  <unicode hex="00C1"/>
  <note>
	Aacute
  </note>
  <outline>
    <contour>
      <point x="225" y="0" type="line" smooth="yes"/>
      <point x="247" y="0"/>
      <point x="259" y="10"/>
      <point x="264" y="27" type="curve" smooth="yes"/>
      <point x="287" y="101" type="line"/>
      <point x="464" y="101" type="line"/>
      <point x="488" y="27" type="line" smooth="yes"/>
      <point x="493" y="10"/>
      <point x="505" y="0"/>
      <point x="527" y="0" type="curve" smooth="yes"/>
      <point x="715" y="0" type="line" smooth="yes"/>
      <point x="739" y="0"/>
      <point x="742" y="20"/>
      <point x="732" y="43" type="curve" smooth="yes"/>
      <point x="484" y="642" type="line" smooth="yes"/>
      <point x="472" y="670"/>
      <point x="460" y="680"/>
      <point x="431" y="680" type="curve" smooth="yes"/>
      <point x="322" y="680" type="line" smooth="yes"/>
      <point x="293" y="680"/>
      <point x="281" y="670"/>
      <point x="269" y="642" type="curve" smooth="yes"/>
      <point x="20" y="43" type="line" smooth="yes"/>
      <point x="10" y="20"/>
      <point x="13" y="0"/>
      <point x="37" y="0" type="curve" smooth="yes"/>
    </contour>
    <contour>
      <point x="376" y="383" type="line"/>
      <point x="415" y="259" type="line"/>
      <point x="337" y="259" type="line"/>
    </contour>
    <contour>
      <point x="416" y="712" type="line" smooth="yes"/>
      <point x="464" y="712"/>
      <point x="472" y="720"/>
      <point x="490" y="750" type="curve" smooth="yes"/>
      <point x="554" y="858" type="line" smooth="yes"/>
      <point x="575" y="894"/>
      <point x="554" y="912"/>
      <point x="517" y="912" type="curve" smooth="yes"/>
      <point x="374" y="912" type="line" smooth="yes"/>
      <point x="331" y="912"/>
      <point x="324" y="901"/>
      <point x="314" y="873" type="curve" smooth="yes"/>
      <point x="272" y="757" type="line" smooth="yes"/>
      <point x="263" y="731"/>
      <point x="272" y="712"/>
      <point x="309" y="712" type="curve" smooth="yes"/>
    </contour>
  </outline>
</glyph>
<glyph name="Acircumflex" format="1">
  <advance width="752"/>
  <unicode hex="00C2"/>
  <note>
	Acircumflex
  </note>
  <outline>
    <contour>
      <point x="225" y="0" type="line" smooth="yes"/>
      <point x="247" y="0"/>
      <point x="259" y="10"/>
      <point x="264" y="27" type="curve" smooth="yes"/>
      <point x="287" y="101" type="line"/>
      <point x="464" y="101" type="line"/>
      <point x="488" y="27" type="line" smooth="yes"/>
      <point x="493" y="10"/>
      <point x="505" y="0"/>
      <point x="527" y="0" type="curve" smooth="yes"/>
      <point x="715" y="0" type="line" smooth="yes"/>
      <point x="739" y="0"/>
      <point x="742" y="20"/>
      <point x="732" y="43" type="curve" smooth="yes"/>
      <point x="484" y="642" type="line" smooth="yes"/>
      <point x="472" y="670"/>
      <point x="460" y="680"/>
      <point x="431" y="680" type="curve" smooth="yes"/>
      <point x="322" y="680" type="line" smooth="yes"/>
      <point x="293" y="680"/>
      <point x="281" y="670"/>
      <point x="269" y="642" type="curve" smooth="yes"/>
      <point x="20" y="43" type="line" smooth="yes"/>
      <point x="10" y="20"/>
      <point x="13" y="0"/>
      <point x="37" y="0" type="curve" smooth="yes"/>
    </contour>
    <contour>
      <point x="376" y="383" type="line"/>
      <point x="415" y="259" type="line"/>
      <point x="337" y="259" type="line"/>
    </contour>
    <contour>
      <point x="271" y="715" type="line" smooth="yes"/>
      <point x="309" y="715"/>
      <point x="320" y="722"/>
      <point x="334" y="743" type="curve" smooth="yes"/>
      <point x="376" y="808" type="line"/>
      <point x="418" y="743" type="line" smooth="yes"/>
      <point x="432" y="722"/>
      <point x="443" y="715"/>
      <point x="481" y="715" type="curve" smooth="yes"/>
      <point x="570" y="715" type="line" smooth="yes"/>
      <point x="607" y="715"/>
      <point x="617" y="736"/>
      <point x="591" y="769" type="curve" smooth="yes"/>
      <point x="499" y="886" type="line" smooth="yes"/>
      <point x="482" y="908"/>
      <point x="478" y="915"/>
      <point x="438" y="915" type="curve" smooth="yes"/>
      <point x="314" y="915" type="line" smooth="yes"/>
      <point x="274" y="915"/>
      <point x="270" y="908"/>
      <point x="253" y="886" type="curve" smooth="yes"/>
      <point x="161" y="769" type="line" smooth="yes"/>
      <point x="135" y="736"/>
      <point x="145" y="715"/>
      <point x="182" y="715" type="curve" smooth="yes"/>
    </contour>
  </outline>
</glyph>
<glyph name="Atilde" format="1">
  <advance width="752"/>
  <unicode hex="00C3"/>
  <note>
	Atilde
  </note>
  <outline>
    <contour>
      <point x="225" y="0" type="line" smooth="yes"/>
      <point x="247" y="0"/>
      <point x="259" y="10"/>
      <point x="264" y="27" type="curve" smooth="yes"/>
      <point x="287" y="101" type="line"/>
      <point x="464" y="101" type="line"/>
      <point x="488" y="27" type="line" smooth="yes"/>
      <point x="493" y="10"/>
      <point x="505" y="0"/>
      <point x="527" y="0" type="curve" smooth="yes"/>
      <point x="715" y="0" type="line" smooth="yes"/>
      <point x="739" y="0"/>
      <point x="742" y="20"/>
      <point x="732" y="43" type="curve" smooth="yes"/>
      <point x="484" y="642" type="line" smooth="yes"/>
      <point x="472" y="670"/>
      <point x="460" y="680"/>
      <point x="431" y="680" type="curve" smooth="yes"/>
      <point x="322" y="680" type="line" smooth="yes"/>
      <point x="293" y="680"/>
      <point x="281" y="670"/>
      <point x="269" y="642" type="curve" smooth="yes"/>
      <point x="20" y="43" type="line" smooth="yes"/>
      <point x="10" y="20"/>
      <point x="13" y="0"/>
      <point x="37" y="0" type="curve" smooth="yes"/>
    </contour>
    <contour>
      <point x="376" y="383" type="line"/>
      <point x="415" y="259" type="line"/>
      <point x="337" y="259" type="line"/>
    </contour>
    <contour>
      <point x="528" y="705"/>
      <point x="561" y="734"/>
      <point x="603" y="795" type="curve" smooth="yes"/>
      <point x="628" y="831"/>
      <point x="624" y="848"/>
      <point x="581" y="880" type="curve" smooth="yes"/>
      <point x="537" y="913"/>
      <point x="514" y="921"/>
      <point x="495" y="898" type="curve" smooth="yes"/>
      <point x="475" y="874"/>
      <point x="465" y="865"/>
      <point x="442" y="865" type="curve" smooth="yes"/>
      <point x="399" y="865"/>
      <point x="364" y="914"/>
      <point x="286" y="914" type="curve" smooth="yes"/>
      <point x="225" y="914"/>
      <point x="192" y="883"/>
      <point x="150" y="822" type="curve" smooth="yes"/>
      <point x="125" y="786"/>
      <point x="131" y="771"/>
      <point x="174" y="739" type="curve" smooth="yes"/>
      <point x="218" y="706"/>
      <point x="241" y="698"/>
      <point x="260" y="721" type="curve" smooth="yes"/>
      <point x="280" y="745"/>
      <point x="293" y="754"/>
      <point x="317" y="754" type="curve" smooth="yes"/>
      <point x="366" y="754"/>
      <point x="406" y="705"/>
      <point x="467" y="705" type="curve" smooth="yes"/>
    </contour>
  </outline>
</glyph>
<glyph name="Adieresis" format="1">
  <advance width="752"/>
  <unicode hex="00C4"/>
  <note>
	Adieresis
  </note>
  <outline>
    <contour>
      <point x="225" y="0" type="line" smooth="yes"/>
      <point x="247" y="0"/>
      <point x="259" y="10"/>
      <point x="264" y="27" type="curve" smooth="yes"/>
      <point x="287" y="101" type="line"/>
      <point x="464" y="101" type="line"/>
      <point x="488" y="27" type="line" smooth="yes"/>
      <point x="493" y="10"/>
      <point x="505" y="0"/>
      <point x="527" y="0" type="curve" smooth="yes"/>
      <point x="715" y="0" type="line" smooth="yes"/>
      <point x="739" y="0"/>
      <point x="742" y="20"/>
      <point x="732" y="43" type="curve" smooth="yes"/>
      <point x="484" y="642" type="line" smooth="yes"/>
      <point x="472" y="670"/>
      <point x="460" y="680"/>
      <point x="431" y="680" type="curve" smooth="yes"/>
      <point x="322" y="680" type="line" smooth="yes"/>
      <point x="293" y="680"/>
      <point x="281" y="670"/>
      <point x="269" y="642" type="curve" smooth="yes"/>
      <point x="20" y="43" type="line" smooth="yes"/>
      <point x="10" y="20"/>
      <point x="13" y="0"/>
      <point x="37" y="0" type="curve" smooth="yes"/>
    </contour>
    <contour>
      <point x="376" y="383" type="line"/>
      <point x="415" y="259" type="line"/>
      <point x="337" y="259" type="line"/>
    </contour>
    <contour>
      <point x="280" y="707" type="line" smooth="yes"/>
      <point x="321" y="707"/>
      <point x="348" y="740"/>
      <point x="348" y="778" type="curve" smooth="yes"/>
      <point x="348" y="807" type="line" smooth="yes"/>
      <point x="348" y="847"/>
      <point x="320" y="878"/>
      <point x="280" y="878" type="curve" smooth="yes"/>
      <point x="250" y="878" type="line" smooth="yes"/>
      <point x="210" y="878"/>
      <point x="182" y="847"/>
      <point x="182" y="807" type="curve" smooth="yes"/>
      <point x="182" y="778" type="line" smooth="yes"/>
      <point x="182" y="740"/>
      <point x="210" y="707"/>
      <point x="250" y="707" type="curve" smooth="yes"/>
    </contour>
    <contour>
      <point x="503" y="707" type="line" smooth="yes"/>
      <point x="544" y="707"/>
      <point x="571" y="740"/>
      <point x="571" y="778" type="curve" smooth="yes"/>
      <point x="571" y="807" type="line" smooth="yes"/>
      <point x="571" y="847"/>
      <point x="543" y="878"/>
      <point x="503" y="878" type="curve" smooth="yes"/>
      <point x="473" y="878" type="line" smooth="yes"/>
      <point x="433" y="878"/>
      <point x="405" y="847"/>
      <point x="405" y="807" type="curve" smooth="yes"/>
      <point x="405" y="778" type="line" smooth="yes"/>
      <point x="405" y="740"/>
      <point x="433" y="707"/>
      <point x="473" y="707" type="curve" smooth="yes"/>
    </contour>
  </outline>
</glyph>
<glyph name="Aring" format="1">
  <advance width="752"/>
  <unicode hex="00C5"/>
  <note>
	Aring
  </note>
  <outline>
    <contour>
      <point x="225" y="0" type="line" smooth="yes"/>
      <point x="247" y="0"/>
      <point x="259" y="10"/>
      <point x="264" y="27" type="curve" smooth="yes"/>
      <point x="287" y="101" type="line"/>
      <point x="464" y="101" type="line"/>
      <point x="488" y="27" type="line" smooth="yes"/>
      <point x="493" y="10"/>
      <point x="505" y="0"/>
      <point x="527" y="0" type="curve" smooth="yes"/>
      <point x="715" y="0" type="line" smooth="yes"/>
      <point x="739" y="0"/>
      <point x="742" y="20"/>
      <point x="732" y="43" type="curve" smooth="yes"/>
      <point x="484" y="642" type="line" smooth="yes"/>
      <point x="472" y="670"/>
      <point x="460" y="680"/>
      <point x="431" y="680" type="curve" smooth="yes"/>
      <point x="322" y="680" type="line" smooth="yes"/>
      <point x="293" y="680"/>
      <point x="281" y="670"/>
      <point x="269" y="642" type="curve" smooth="yes"/>
      <point x="20" y="43" type="line" smooth="yes"/>
      <point x="10" y="20"/>
      <point x="13" y="0"/>
      <point x="37" y="0" type="curve" smooth="yes"/>
    </contour>
    <contour>
      <point x="376" y="383" type="line"/>
      <point x="415" y="259" type="line"/>
      <point x="337" y="259" type="line"/>
    </contour>
    <contour>
      <point x="448" y="632"/>
      <point x="505" y="688"/>
      <point x="505" y="759" type="curve" smooth="yes"/>
      <point x="505" y="830"/>
      <point x="448" y="887"/>
      <point x="377" y="887" type="curve" smooth="yes"/>
      <point x="306" y="887"/>
      <point x="250" y="830"/>
      <point x="250" y="759" type="curve" smooth="yes"/>
      <point x="250" y="688"/>
      <point x="306" y="632"/>
      <point x="377" y="632" type="curve" smooth="yes"/>
    </contour>
    <contour>
      <point x="360" y="728"/>
      <point x="346" y="742"/>
      <point x="346" y="759" type="curve" smooth="yes"/>
      <point x="346" y="776"/>
      <point x="360" y="790"/>
      <point x="377" y="790" type="curve" smooth="yes"/>
      <point x="394" y="790"/>
      <point x="408" y="776"/>
      <point x="408" y="759" type="curve" smooth="yes"/>
      <point x="408" y="742"/>
      <point x="394" y="728"/>
      <point x="377" y="728" type="curve" smooth="yes"/>
    </contour>
  </outline>
</glyph>
<glyph name="Ccedilla" format="1">
  <advance width="681"/>
  <unicode hex="00C7"/>
  <note>
	Ccedilla
  </note>
  <outline>
    <contour>
      <point x="510" y="-15"/>
      <point x="598" y="8"/>
      <point x="654" y="46" type="curve" smooth="yes"/>
      <point x="671" y="58"/>
      <point x="667" y="73"/>
      <point x="657" y="91" type="curve" smooth="yes"/>
      <point x="607" y="177" type="line" smooth="yes"/>
      <point x="595" y="197"/>
      <point x="585" y="193"/>
      <point x="565" y="183" type="curve" smooth="yes"/>
      <point x="533" y="167"/>
      <point x="493" y="153"/>
      <point x="433" y="153" type="curve" smooth="yes"/>
      <point x="324" y="153"/>
      <point x="254" y="218"/>
      <point x="254" y="340" type="curve" smooth="yes"/>
      <point x="254" y="462"/>
      <point x="314" y="527"/>
      <point x="425" y="527" type="curve" smooth="yes"/>
      <point x="485" y="527"/>
      <point x="523" y="513"/>
      <point x="555" y="497" type="curve" smooth="yes"/>
      <point x="575" y="487"/>
      <point x="585" y="483"/>
      <point x="597" y="503" type="curve" smooth="yes"/>
      <point x="647" y="589" type="line" smooth="yes"/>
      <point x="657" y="607"/>
      <point x="661" y="622"/>
      <point x="644" y="634" type="curve" smooth="yes"/>
      <point x="588" y="672"/>
      <point x="502" y="695"/>
      <point x="391" y="695" type="curve" smooth="yes"/>
      <point x="153" y="695"/>
      <point x="15" y="579"/>
      <point x="15" y="340" type="curve" smooth="yes"/>
      <point x="15" y="101"/>
      <point x="161" y="-15"/>
      <point x="399" y="-15" type="curve" smooth="yes"/>
    </contour>
    <contour>
      <point x="467" y="-235"/>
      <point x="508" y="-191"/>
      <point x="508" y="-145" type="curve" smooth="yes"/>
      <point x="508" y="-102"/>
      <point x="489" y="-80"/>
      <point x="445" y="-71" type="curve"/>
      <point x="468" y="-21" type="line" smooth="yes"/>
      <point x="473" y="-11"/>
      <point x="470" y="-5"/>
      <point x="458" y="-5" type="curve" smooth="yes"/>
      <point x="336" y="-5" type="line" smooth="yes"/>
      <point x="322" y="-5"/>
      <point x="318" y="-8"/>
      <point x="314" y="-19" type="curve" smooth="yes"/>
      <point x="287" y="-86" type="line" smooth="yes"/>
      <point x="283" y="-96"/>
      <point x="287" y="-102"/>
      <point x="297" y="-102" type="curve" smooth="yes"/>
      <point x="315" y="-102" type="line" smooth="yes"/>
      <point x="348" y="-102"/>
      <point x="362" y="-108"/>
      <point x="362" y="-125" type="curve" smooth="yes"/>
      <point x="362" y="-135"/>
      <point x="354" y="-142"/>
      <point x="332" y="-142" type="curve" smooth="yes"/>
      <point x="320" y="-142"/>
      <point x="303" y="-138"/>
      <point x="291" y="-132" type="curve" smooth="yes"/>
      <point x="283" y="-128"/>
      <point x="277" y="-127"/>
      <point x="273" y="-136" type="curve"/>
      <point x="249" y="-199" type="line" smooth="yes"/>
      <point x="245" y="-209"/>
      <point x="247" y="-211"/>
      <point x="259" y="-217" type="curve" smooth="yes"/>
      <point x="279" y="-227"/>
      <point x="328" y="-235"/>
      <point x="367" y="-235" type="curve" smooth="yes"/>
    </contour>
  </outline>
</glyph>
<glyph name="Egrave" format="1">
  <advance width="579"/>
  <unicode hex="00C8"/>
  <note>
	Egrave
  </note>
  <outline>
    <contour>
      <point x="508" y="0" type="line" smooth="yes"/>
      <point x="553" y="0"/>
      <point x="563" y="19"/>
      <point x="563" y="57" type="curve" smooth="yes"/>
      <point x="563" y="113" type="line" smooth="yes"/>
      <point x="563" y="151"/>
      <point x="553" y="170"/>
      <point x="508" y="170" type="curve" smooth="yes"/>
      <point x="275" y="170" type="line"/>
      <point x="275" y="256" type="line"/>
      <point x="419" y="256" type="line" smooth="yes"/>
      <point x="464" y="256"/>
      <point x="474" y="275"/>
      <point x="474" y="313" type="curve" smooth="yes"/>
      <point x="474" y="367" type="line" smooth="yes"/>
      <point x="474" y="405"/>
      <point x="464" y="424"/>
      <point x="419" y="424" type="curve" smooth="yes"/>
      <point x="275" y="424" type="line"/>
      <point x="275" y="510" type="line"/>
      <point x="509" y="510" type="line" smooth="yes"/>
      <point x="554" y="510"/>
      <point x="564" y="529"/>
      <point x="564" y="567" type="curve" smooth="yes"/>
      <point x="564" y="623" type="line" smooth="yes"/>
      <point x="564" y="661"/>
      <point x="554" y="680"/>
      <point x="509" y="680" type="curve" smooth="yes"/>
      <point x="95" y="680" type="line" smooth="yes"/>
      <point x="50" y="680"/>
      <point x="35" y="661"/>
      <point x="35" y="623" type="curve" smooth="yes"/>
      <point x="35" y="57" type="line" smooth="yes"/>
      <point x="35" y="19"/>
      <point x="50" y="0"/>
      <point x="95" y="0" type="curve" smooth="yes"/>
    </contour>
    <contour>
      <point x="388" y="736" type="line" smooth="yes"/>
      <point x="425" y="736"/>
      <point x="435" y="755"/>
      <point x="425" y="781" type="curve" smooth="yes"/>
      <point x="383" y="897" type="line" smooth="yes"/>
      <point x="373" y="926"/>
      <point x="366" y="936"/>
      <point x="323" y="936" type="curve" smooth="yes"/>
      <point x="180" y="936" type="line" smooth="yes"/>
      <point x="143" y="936"/>
      <point x="122" y="918"/>
      <point x="143" y="882" type="curve" smooth="yes"/>
      <point x="207" y="774" type="line" smooth="yes"/>
      <point x="225" y="744"/>
      <point x="233" y="736"/>
      <point x="281" y="736" type="curve" smooth="yes"/>
    </contour>
  </outline>
</glyph>
<glyph name="Ecircumflex" format="1">
  <advance width="574"/>
  <unicode hex="00CA"/>
  <note>
	Ecircumflex
  </note>
  <outline>
    <contour>
      <point x="508" y="0" type="line" smooth="yes"/>
      <point x="553" y="0"/>
      <point x="563" y="19"/>
      <point x="563" y="57" type="curve" smooth="yes"/>
      <point x="563" y="113" type="line" smooth="yes"/>
      <point x="563" y="151"/>
      <point x="553" y="170"/>
      <point x="508" y="170" type="curve" smooth="yes"/>
      <point x="275" y="170" type="line"/>
      <point x="275" y="256" type="line"/>
      <point x="419" y="256" type="line" smooth="yes"/>
      <point x="464" y="256"/>
      <point x="474" y="275"/>
      <point x="474" y="313" type="curve" smooth="yes"/>
      <point x="474" y="367" type="line" smooth="yes"/>
      <point x="474" y="405"/>
      <point x="464" y="424"/>
      <point x="419" y="424" type="curve" smooth="yes"/>
      <point x="275" y="424" type="line"/>
      <point x="275" y="510" type="line"/>
      <point x="509" y="510" type="line" smooth="yes"/>
      <point x="554" y="510"/>
      <point x="564" y="529"/>
      <point x="564" y="567" type="curve" smooth="yes"/>
      <point x="564" y="623" type="line" smooth="yes"/>
      <point x="564" y="661"/>
      <point x="554" y="680"/>
      <point x="509" y="680" type="curve" smooth="yes"/>
      <point x="95" y="680" type="line" smooth="yes"/>
      <point x="50" y="680"/>
      <point x="35" y="661"/>
      <point x="35" y="623" type="curve" smooth="yes"/>
      <point x="35" y="57" type="line" smooth="yes"/>
      <point x="35" y="19"/>
      <point x="50" y="0"/>
      <point x="95" y="0" type="curve" smooth="yes"/>
    </contour>
    <contour>
      <point x="195" y="739" type="line" smooth="yes"/>
      <point x="233" y="739"/>
      <point x="244" y="746"/>
      <point x="258" y="767" type="curve" smooth="yes"/>
      <point x="300" y="832" type="line"/>
      <point x="342" y="767" type="line" smooth="yes"/>
      <point x="356" y="746"/>
      <point x="367" y="739"/>
      <point x="405" y="739" type="curve" smooth="yes"/>
      <point x="494" y="739" type="line" smooth="yes"/>
      <point x="531" y="739"/>
      <point x="541" y="760"/>
      <point x="515" y="793" type="curve" smooth="yes"/>
      <point x="423" y="910" type="line" smooth="yes"/>
      <point x="406" y="932"/>
      <point x="402" y="939"/>
      <point x="362" y="939" type="curve" smooth="yes"/>
      <point x="238" y="939" type="line" smooth="yes"/>
      <point x="198" y="939"/>
      <point x="194" y="932"/>
      <point x="177" y="910" type="curve" smooth="yes"/>
      <point x="85" y="793" type="line" smooth="yes"/>
      <point x="59" y="760"/>
      <point x="69" y="739"/>
      <point x="106" y="739" type="curve" smooth="yes"/>
    </contour>
  </outline>
</glyph>
<glyph name="Edieresis" format="1">
  <advance width="579"/>
  <unicode hex="00CB"/>
  <note>
	Edieresis
  </note>
  <outline>
    <contour>
      <point x="508" y="0" type="line" smooth="yes"/>
      <point x="553" y="0"/>
      <point x="563" y="19"/>
      <point x="563" y="57" type="curve" smooth="yes"/>
      <point x="563" y="113" type="line" smooth="yes"/>
      <point x="563" y="151"/>
      <point x="553" y="170"/>
      <point x="508" y="170" type="curve" smooth="yes"/>
      <point x="275" y="170" type="line"/>
      <point x="275" y="256" type="line"/>
      <point x="419" y="256" type="line" smooth="yes"/>
      <point x="464" y="256"/>
      <point x="474" y="275"/>
      <point x="474" y="313" type="curve" smooth="yes"/>
      <point x="474" y="367" type="line" smooth="yes"/>
      <point x="474" y="405"/>
      <point x="464" y="424"/>
      <point x="419" y="424" type="curve" smooth="yes"/>
      <point x="275" y="424" type="line"/>
      <point x="275" y="510" type="line"/>
      <point x="509" y="510" type="line" smooth="yes"/>
      <point x="554" y="510"/>
      <point x="564" y="529"/>
      <point x="564" y="567" type="curve" smooth="yes"/>
      <point x="564" y="623" type="line" smooth="yes"/>
      <point x="564" y="661"/>
      <point x="554" y="680"/>
      <point x="509" y="680" type="curve" smooth="yes"/>
      <point x="95" y="680" type="line" smooth="yes"/>
      <point x="50" y="680"/>
      <point x="35" y="661"/>
      <point x="35" y="623" type="curve" smooth="yes"/>
      <point x="35" y="57" type="line" smooth="yes"/>
      <point x="35" y="19"/>
      <point x="50" y="0"/>
      <point x="95" y="0" type="curve" smooth="yes"/>
    </contour>
    <contour>
      <point x="201" y="711" type="line" smooth="yes"/>
      <point x="242" y="711"/>
      <point x="269" y="744"/>
      <point x="269" y="782" type="curve" smooth="yes"/>
      <point x="269" y="811" type="line" smooth="yes"/>
      <point x="269" y="851"/>
      <point x="241" y="882"/>
      <point x="201" y="882" type="curve" smooth="yes"/>
      <point x="171" y="882" type="line" smooth="yes"/>
      <point x="131" y="882"/>
      <point x="103" y="851"/>
      <point x="103" y="811" type="curve" smooth="yes"/>
      <point x="103" y="782" type="line" smooth="yes"/>
      <point x="103" y="744"/>
      <point x="131" y="711"/>
      <point x="171" y="711" type="curve" smooth="yes"/>
    </contour>
    <contour>
      <point x="424" y="711" type="line" smooth="yes"/>
      <point x="465" y="711"/>
      <point x="492" y="744"/>
      <point x="492" y="782" type="curve" smooth="yes"/>
      <point x="492" y="811" type="line" smooth="yes"/>
      <point x="492" y="851"/>
      <point x="464" y="882"/>
      <point x="424" y="882" type="curve" smooth="yes"/>
      <point x="394" y="882" type="line" smooth="yes"/>
      <point x="354" y="882"/>
      <point x="326" y="851"/>
      <point x="326" y="811" type="curve" smooth="yes"/>
      <point x="326" y="782" type="line" smooth="yes"/>
      <point x="326" y="744"/>
      <point x="354" y="711"/>
      <point x="394" y="711" type="curve" smooth="yes"/>
    </contour>
  </outline>
</glyph>
<glyph name="Igrave" format="1">
  <advance width="320"/>
  <unicode hex="00CC"/>
  <note>
	Igrave
  </note>
  <outline>
    <contour>
      <point x="219" y="0" type="line" smooth="yes"/>
      <point x="265" y="0"/>
      <point x="280" y="19"/>
      <point x="280" y="57" type="curve" smooth="yes"/>
      <point x="280" y="623" type="line" smooth="yes"/>
      <point x="280" y="661"/>
      <point x="265" y="680"/>
      <point x="219" y="680" type="curve" smooth="yes"/>
      <point x="100" y="680" type="line" smooth="yes"/>
      <point x="55" y="680"/>
      <point x="40" y="661"/>
      <point x="40" y="623" type="curve" smooth="yes"/>
      <point x="40" y="57" type="line" smooth="yes"/>
      <point x="40" y="19"/>
      <point x="55" y="0"/>
      <point x="100" y="0" type="curve" smooth="yes"/>
    </contour>
    <contour>
      <point x="233" y="736" type="line" smooth="yes"/>
      <point x="270" y="736"/>
      <point x="280" y="755"/>
      <point x="270" y="781" type="curve" smooth="yes"/>
      <point x="228" y="897" type="line" smooth="yes"/>
      <point x="218" y="926"/>
      <point x="211" y="936"/>
      <point x="168" y="936" type="curve" smooth="yes"/>
      <point x="25" y="936" type="line" smooth="yes"/>
      <point x="-12" y="936"/>
      <point x="-33" y="918"/>
      <point x="-12" y="882" type="curve" smooth="yes"/>
      <point x="52" y="774" type="line" smooth="yes"/>
      <point x="70" y="744"/>
      <point x="78" y="736"/>
      <point x="126" y="736" type="curve" smooth="yes"/>
    </contour>
  </outline>
</glyph>
<glyph name="Iacute" format="1">
  <advance width="320"/>
  <unicode hex="00CD"/>
  <note>
	Iacute
  </note>
  <outline>
    <contour>
      <point x="219" y="0" type="line" smooth="yes"/>
      <point x="265" y="0"/>
      <point x="280" y="19"/>
      <point x="280" y="57" type="curve" smooth="yes"/>
      <point x="280" y="623" type="line" smooth="yes"/>
      <point x="280" y="661"/>
      <point x="265" y="680"/>
      <point x="219" y="680" type="curve" smooth="yes"/>
      <point x="100" y="680" type="line" smooth="yes"/>
      <point x="55" y="680"/>
      <point x="40" y="661"/>
      <point x="40" y="623" type="curve" smooth="yes"/>
      <point x="40" y="57" type="line" smooth="yes"/>
      <point x="40" y="19"/>
      <point x="55" y="0"/>
      <point x="100" y="0" type="curve" smooth="yes"/>
    </contour>
    <contour>
      <point x="210" y="736" type="line" smooth="yes"/>
      <point x="258" y="736"/>
      <point x="266" y="744"/>
      <point x="284" y="774" type="curve" smooth="yes"/>
      <point x="348" y="882" type="line" smooth="yes"/>
      <point x="369" y="918"/>
      <point x="348" y="936"/>
      <point x="311" y="936" type="curve" smooth="yes"/>
      <point x="168" y="936" type="line" smooth="yes"/>
      <point x="125" y="936"/>
      <point x="118" y="925"/>
      <point x="108" y="897" type="curve" smooth="yes"/>
      <point x="66" y="781" type="line" smooth="yes"/>
      <point x="57" y="755"/>
      <point x="66" y="736"/>
      <point x="103" y="736" type="curve" smooth="yes"/>
    </contour>
  </outline>
</glyph>
<glyph name="Icircumflex" format="1">
  <advance width="320"/>
  <unicode hex="00CE"/>
  <note>
	Icircumflex
  </note>
  <outline>
    <contour>
      <point x="219" y="0" type="line" smooth="yes"/>
      <point x="265" y="0"/>
      <point x="280" y="19"/>
      <point x="280" y="57" type="curve" smooth="yes"/>
      <point x="280" y="623" type="line" smooth="yes"/>
      <point x="280" y="661"/>
      <point x="265" y="680"/>
      <point x="219" y="680" type="curve" smooth="yes"/>
      <point x="100" y="680" type="line" smooth="yes"/>
      <point x="55" y="680"/>
      <point x="40" y="661"/>
      <point x="40" y="623" type="curve" smooth="yes"/>
      <point x="40" y="57" type="line" smooth="yes"/>
      <point x="40" y="19"/>
      <point x="55" y="0"/>
      <point x="100" y="0" type="curve" smooth="yes"/>
    </contour>
    <contour>
      <point x="54" y="746" type="line" smooth="yes"/>
      <point x="92" y="746"/>
      <point x="103" y="753"/>
      <point x="117" y="774" type="curve" smooth="yes"/>
      <point x="159" y="839" type="line"/>
      <point x="201" y="774" type="line" smooth="yes"/>
      <point x="215" y="753"/>
      <point x="226" y="746"/>
      <point x="264" y="746" type="curve" smooth="yes"/>
      <point x="353" y="746" type="line" smooth="yes"/>
      <point x="390" y="746"/>
      <point x="400" y="767"/>
      <point x="374" y="800" type="curve" smooth="yes"/>
      <point x="282" y="917" type="line" smooth="yes"/>
      <point x="265" y="939"/>
      <point x="261" y="946"/>
      <point x="221" y="946" type="curve" smooth="yes"/>
      <point x="97" y="946" type="line" smooth="yes"/>
      <point x="57" y="946"/>
      <point x="53" y="939"/>
      <point x="36" y="917" type="curve" smooth="yes"/>
      <point x="-56" y="800" type="line" smooth="yes"/>
      <point x="-82" y="767"/>
      <point x="-72" y="746"/>
      <point x="-35" y="746" type="curve" smooth="yes"/>
    </contour>
  </outline>
</glyph>
<glyph name="Eth" format="1">
  <advance width="731"/>
  <unicode hex="00D0"/>
  <note>
	Eth
  </note>
  <outline>
    <contour>
      <point x="363" y="0" type="line" smooth="yes"/>
      <point x="591" y="0"/>
      <point x="716" y="114"/>
      <point x="716" y="340" type="curve" smooth="yes"/>
      <point x="716" y="575"/>
      <point x="591" y="680"/>
      <point x="363" y="680" type="curve" smooth="yes"/>
      <point x="133" y="680" type="line" smooth="yes"/>
      <point x="88" y="680"/>
      <point x="73" y="661"/>
      <point x="73" y="623" type="curve" smooth="yes"/>
      <point x="73" y="426" type="line"/>
      <point x="50" y="426" type="line" smooth="yes"/>
      <point x="5" y="426"/>
      <point x="-5" y="407"/>
      <point x="-5" y="369" type="curve" smooth="yes"/>
      <point x="-5" y="313" type="line" smooth="yes"/>
      <point x="-5" y="275"/>
      <point x="5" y="256"/>
      <point x="50" y="256" type="curve" smooth="yes"/>
      <point x="73" y="256" type="line"/>
      <point x="73" y="57" type="line" smooth="yes"/>
      <point x="73" y="19"/>
      <point x="88" y="0"/>
      <point x="133" y="0" type="curve" smooth="yes"/>
    </contour>
    <contour>
      <point x="313" y="256" type="line"/>
      <point x="377" y="256" type="line" smooth="yes"/>
      <point x="422" y="256"/>
      <point x="432" y="275"/>
      <point x="432" y="313" type="curve" smooth="yes"/>
      <point x="432" y="369" type="line" smooth="yes"/>
      <point x="432" y="407"/>
      <point x="422" y="426"/>
      <point x="377" y="426" type="curve" smooth="yes"/>
      <point x="313" y="426" type="line"/>
      <point x="313" y="510" type="line"/>
      <point x="372" y="510" type="line" smooth="yes"/>
      <point x="444" y="510"/>
      <point x="477" y="471"/>
      <point x="477" y="340" type="curve" smooth="yes"/>
      <point x="477" y="209"/>
      <point x="444" y="170"/>
      <point x="372" y="170" type="curve" smooth="yes"/>
      <point x="313" y="170" type="line"/>
    </contour>
  </outline>
</glyph>
<glyph name="Ntilde" format="1">
  <advance width="702"/>
  <unicode hex="00D1"/>
  <note>
	Ntilde
  </note>
  <outline>
    <contour>
      <point x="214" y="0" type="line" smooth="yes"/>
      <point x="260" y="0"/>
      <point x="275" y="18"/>
      <point x="275" y="56" type="curve" smooth="yes"/>
      <point x="275" y="296" type="line"/>
      <point x="456" y="27" type="line" smooth="yes"/>
      <point x="471" y="5"/>
      <point x="484" y="0"/>
      <point x="511" y="0" type="curve" smooth="yes"/>
      <point x="606" y="0" type="line" smooth="yes"/>
      <point x="652" y="0"/>
      <point x="667" y="18"/>
      <point x="667" y="56" type="curve" smooth="yes"/>
      <point x="667" y="623" type="line" smooth="yes"/>
      <point x="667" y="661"/>
      <point x="652" y="680"/>
      <point x="606" y="680" type="curve" smooth="yes"/>
      <point x="487" y="680" type="line" smooth="yes"/>
      <point x="442" y="680"/>
      <point x="427" y="661"/>
      <point x="427" y="623" type="curve" smooth="yes"/>
      <point x="427" y="384" type="line"/>
      <point x="246" y="653" type="line" smooth="yes"/>
      <point x="231" y="675"/>
      <point x="218" y="680"/>
      <point x="191" y="680" type="curve" smooth="yes"/>
      <point x="96" y="680" type="line" smooth="yes"/>
      <point x="50" y="680"/>
      <point x="35" y="662"/>
      <point x="35" y="624" type="curve" smooth="yes"/>
      <point x="35" y="57" type="line" smooth="yes"/>
      <point x="35" y="19"/>
      <point x="50" y="0"/>
      <point x="95" y="0" type="curve" smooth="yes"/>
    </contour>
    <contour>
      <point x="501" y="729"/>
      <point x="534" y="758"/>
      <point x="576" y="819" type="curve" smooth="yes"/>
      <point x="601" y="855"/>
      <point x="597" y="872"/>
      <point x="554" y="904" type="curve" smooth="yes"/>
      <point x="510" y="937"/>
      <point x="487" y="945"/>
      <point x="468" y="922" type="curve" smooth="yes"/>
      <point x="448" y="898"/>
      <point x="438" y="889"/>
      <point x="415" y="889" type="curve" smooth="yes"/>
      <point x="372" y="889"/>
      <point x="337" y="938"/>
      <point x="259" y="938" type="curve" smooth="yes"/>
      <point x="198" y="938"/>
      <point x="165" y="907"/>
      <point x="123" y="846" type="curve" smooth="yes"/>
      <point x="98" y="810"/>
      <point x="104" y="795"/>
      <point x="147" y="763" type="curve" smooth="yes"/>
      <point x="191" y="730"/>
      <point x="214" y="722"/>
      <point x="233" y="745" type="curve" smooth="yes"/>
      <point x="253" y="769"/>
      <point x="266" y="778"/>
      <point x="290" y="778" type="curve" smooth="yes"/>
      <point x="339" y="778"/>
      <point x="379" y="729"/>
      <point x="440" y="729" type="curve" smooth="yes"/>
    </contour>
  </outline>
</glyph>
<glyph name="Ograve" format="1">
  <advance width="754"/>
  <unicode hex="00D2"/>
  <note>
	Ograve
  </note>
  <outline>
    <contour>
      <point x="618" y="-15"/>
      <point x="739" y="116"/>
      <point x="739" y="340" type="curve" smooth="yes"/>
      <point x="739" y="564"/>
      <point x="618" y="695"/>
      <point x="377" y="695" type="curve" smooth="yes"/>
      <point x="136" y="695"/>
      <point x="15" y="564"/>
      <point x="15" y="340" type="curve" smooth="yes"/>
      <point x="15" y="116"/>
      <point x="136" y="-15"/>
      <point x="377" y="-15" type="curve" smooth="yes"/>
    </contour>
    <contour>
      <point x="288" y="153"/>
      <point x="254" y="218"/>
      <point x="254" y="340" type="curve" smooth="yes"/>
      <point x="254" y="463"/>
      <point x="288" y="527"/>
      <point x="377" y="527" type="curve" smooth="yes"/>
      <point x="466" y="527"/>
      <point x="500" y="463"/>
      <point x="500" y="340" type="curve" smooth="yes"/>
      <point x="500" y="218"/>
      <point x="466" y="153"/>
      <point x="377" y="153" type="curve" smooth="yes"/>
    </contour>
    <contour>
      <point x="455" y="736" type="line" smooth="yes"/>
      <point x="492" y="736"/>
      <point x="502" y="755"/>
      <point x="492" y="781" type="curve" smooth="yes"/>
      <point x="450" y="897" type="line" smooth="yes"/>
      <point x="440" y="926"/>
      <point x="433" y="936"/>
      <point x="390" y="936" type="curve" smooth="yes"/>
      <point x="247" y="936" type="line" smooth="yes"/>
      <point x="210" y="936"/>
      <point x="189" y="918"/>
      <point x="210" y="882" type="curve" smooth="yes"/>
      <point x="274" y="774" type="line" smooth="yes"/>
      <point x="292" y="744"/>
      <point x="300" y="736"/>
      <point x="348" y="736" type="curve" smooth="yes"/>
    </contour>
  </outline>
</glyph>
<glyph name="Oacute" format="1">
  <advance width="754"/>
  <unicode hex="00D3"/>
  <note>
	Oacute
  </note>
  <outline>
    <contour>
      <point x="618" y="-15"/>
      <point x="739" y="116"/>
      <point x="739" y="340" type="curve" smooth="yes"/>
      <point x="739" y="564"/>
      <point x="618" y="695"/>
      <point x="377" y="695" type="curve" smooth="yes"/>
      <point x="136" y="695"/>
      <point x="15" y="564"/>
      <point x="15" y="340" type="curve" smooth="yes"/>
      <point x="15" y="116"/>
      <point x="136" y="-15"/>
      <point x="377" y="-15" type="curve" smooth="yes"/>
    </contour>
    <contour>
      <point x="288" y="153"/>
      <point x="254" y="218"/>
      <point x="254" y="340" type="curve" smooth="yes"/>
      <point x="254" y="463"/>
      <point x="288" y="527"/>
      <point x="377" y="527" type="curve" smooth="yes"/>
      <point x="466" y="527"/>
      <point x="500" y="463"/>
      <point x="500" y="340" type="curve" smooth="yes"/>
      <point x="500" y="218"/>
      <point x="466" y="153"/>
      <point x="377" y="153" type="curve" smooth="yes"/>
    </contour>
    <contour>
      <point x="418" y="736" type="line" smooth="yes"/>
      <point x="466" y="736"/>
      <point x="474" y="744"/>
      <point x="492" y="774" type="curve" smooth="yes"/>
      <point x="556" y="882" type="line" smooth="yes"/>
      <point x="577" y="918"/>
      <point x="556" y="936"/>
      <point x="519" y="936" type="curve" smooth="yes"/>
      <point x="376" y="936" type="line" smooth="yes"/>
      <point x="333" y="936"/>
      <point x="326" y="925"/>
      <point x="316" y="897" type="curve" smooth="yes"/>
      <point x="274" y="781" type="line" smooth="yes"/>
      <point x="265" y="755"/>
      <point x="274" y="736"/>
      <point x="311" y="736" type="curve" smooth="yes"/>
    </contour>
  </outline>
</glyph>
<glyph name="Ocircumflex" format="1">
  <advance width="754"/>
  <unicode hex="00D4"/>
  <note>
	Ocircumflex
  </note>
  <outline>
    <contour>
      <point x="618" y="-15"/>
      <point x="739" y="116"/>
      <point x="739" y="340" type="curve" smooth="yes"/>
      <point x="739" y="564"/>
      <point x="618" y="695"/>
      <point x="377" y="695" type="curve" smooth="yes"/>
      <point x="136" y="695"/>
      <point x="15" y="564"/>
      <point x="15" y="340" type="curve" smooth="yes"/>
      <point x="15" y="116"/>
      <point x="136" y="-15"/>
      <point x="377" y="-15" type="curve" smooth="yes"/>
    </contour>
    <contour>
      <point x="288" y="153"/>
      <point x="254" y="218"/>
      <point x="254" y="340" type="curve" smooth="yes"/>
      <point x="254" y="463"/>
      <point x="288" y="527"/>
      <point x="377" y="527" type="curve" smooth="yes"/>
      <point x="466" y="527"/>
      <point x="500" y="463"/>
      <point x="500" y="340" type="curve" smooth="yes"/>
      <point x="500" y="218"/>
      <point x="466" y="153"/>
      <point x="377" y="153" type="curve" smooth="yes"/>
    </contour>
    <contour>
      <point x="277" y="739" type="line" smooth="yes"/>
      <point x="315" y="739"/>
      <point x="326" y="746"/>
      <point x="340" y="767" type="curve" smooth="yes"/>
      <point x="382" y="832" type="line"/>
      <point x="424" y="767" type="line" smooth="yes"/>
      <point x="438" y="746"/>
      <point x="449" y="739"/>
      <point x="487" y="739" type="curve" smooth="yes"/>
      <point x="576" y="739" type="line" smooth="yes"/>
      <point x="613" y="739"/>
      <point x="623" y="760"/>
      <point x="597" y="793" type="curve" smooth="yes"/>
      <point x="505" y="910" type="line" smooth="yes"/>
      <point x="488" y="932"/>
      <point x="484" y="939"/>
      <point x="444" y="939" type="curve" smooth="yes"/>
      <point x="320" y="939" type="line" smooth="yes"/>
      <point x="280" y="939"/>
      <point x="276" y="932"/>
      <point x="259" y="910" type="curve" smooth="yes"/>
      <point x="167" y="793" type="line" smooth="yes"/>
      <point x="141" y="760"/>
      <point x="151" y="739"/>
      <point x="188" y="739" type="curve" smooth="yes"/>
    </contour>
  </outline>
</glyph>
<glyph name="Odieresis" format="1">
  <advance width="754"/>
  <unicode hex="00D6"/>
  <note>
	Odieresis
  </note>
  <outline>
    <contour>
      <point x="618" y="-15"/>
      <point x="739" y="116"/>
      <point x="739" y="340" type="curve" smooth="yes"/>
      <point x="739" y="564"/>
      <point x="618" y="695"/>
      <point x="377" y="695" type="curve" smooth="yes"/>
      <point x="136" y="695"/>
      <point x="15" y="564"/>
      <point x="15" y="340" type="curve" smooth="yes"/>
      <point x="15" y="116"/>
      <point x="136" y="-15"/>
      <point x="377" y="-15" type="curve" smooth="yes"/>
    </contour>
    <contour>
      <point x="288" y="153"/>
      <point x="254" y="218"/>
      <point x="254" y="340" type="curve" smooth="yes"/>
      <point x="254" y="463"/>
      <point x="288" y="527"/>
      <point x="377" y="527" type="curve" smooth="yes"/>
      <point x="466" y="527"/>
      <point x="500" y="463"/>
      <point x="500" y="340" type="curve" smooth="yes"/>
      <point x="500" y="218"/>
      <point x="466" y="153"/>
      <point x="377" y="153" type="curve" smooth="yes"/>
    </contour>
    <contour>
      <point x="281" y="721" type="line" smooth="yes"/>
      <point x="322" y="721"/>
      <point x="349" y="754"/>
      <point x="349" y="792" type="curve" smooth="yes"/>
      <point x="349" y="821" type="line" smooth="yes"/>
      <point x="349" y="861"/>
      <point x="321" y="892"/>
      <point x="281" y="892" type="curve" smooth="yes"/>
      <point x="251" y="892" type="line" smooth="yes"/>
      <point x="211" y="892"/>
      <point x="183" y="861"/>
      <point x="183" y="821" type="curve" smooth="yes"/>
      <point x="183" y="792" type="line" smooth="yes"/>
      <point x="183" y="754"/>
      <point x="211" y="721"/>
      <point x="251" y="721" type="curve" smooth="yes"/>
    </contour>
    <contour>
      <point x="504" y="721" type="line" smooth="yes"/>
      <point x="545" y="721"/>
      <point x="572" y="754"/>
      <point x="572" y="792" type="curve" smooth="yes"/>
      <point x="572" y="821" type="line" smooth="yes"/>
      <point x="572" y="861"/>
      <point x="544" y="892"/>
      <point x="504" y="892" type="curve" smooth="yes"/>
      <point x="474" y="892" type="line" smooth="yes"/>
      <point x="434" y="892"/>
      <point x="406" y="861"/>
      <point x="406" y="821" type="curve" smooth="yes"/>
      <point x="406" y="792" type="line" smooth="yes"/>
      <point x="406" y="754"/>
      <point x="434" y="721"/>
      <point x="474" y="721" type="curve" smooth="yes"/>
    </contour>
  </outline>
</glyph>
<glyph name="Ugrave" format="1">
  <advance width="716"/>
  <unicode hex="00D9"/>
  <note>
	Ugrave
  </note>
  <outline>
    <contour>
      <point x="553" y="-15"/>
      <point x="686" y="83"/>
      <point x="686" y="249" type="curve" smooth="yes"/>
      <point x="686" y="623" type="line" smooth="yes"/>
      <point x="686" y="661"/>
      <point x="671" y="680"/>
      <point x="625" y="680" type="curve" smooth="yes"/>
      <point x="506" y="680" type="line" smooth="yes"/>
      <point x="461" y="680"/>
      <point x="446" y="661"/>
      <point x="446" y="623" type="curve" smooth="yes"/>
      <point x="446" y="246" type="line" smooth="yes"/>
      <point x="446" y="181"/>
      <point x="411" y="153"/>
      <point x="358" y="153" type="curve" smooth="yes"/>
      <point x="306" y="153"/>
      <point x="270" y="181"/>
      <point x="270" y="246" type="curve" smooth="yes"/>
      <point x="270" y="623" type="line" smooth="yes"/>
      <point x="270" y="661"/>
      <point x="255" y="680"/>
      <point x="209" y="680" type="curve" smooth="yes"/>
      <point x="90" y="680" type="line" smooth="yes"/>
      <point x="45" y="680"/>
      <point x="30" y="661"/>
      <point x="30" y="623" type="curve" smooth="yes"/>
      <point x="30" y="249" type="line" smooth="yes"/>
      <point x="30" y="83"/>
      <point x="163" y="-15"/>
      <point x="358" y="-15" type="curve" smooth="yes"/>
    </contour>
    <contour>
      <point x="451" y="736" type="line" smooth="yes"/>
      <point x="488" y="736"/>
      <point x="498" y="755"/>
      <point x="488" y="781" type="curve" smooth="yes"/>
      <point x="446" y="897" type="line" smooth="yes"/>
      <point x="436" y="926"/>
      <point x="429" y="936"/>
      <point x="386" y="936" type="curve" smooth="yes"/>
      <point x="243" y="936" type="line" smooth="yes"/>
      <point x="206" y="936"/>
      <point x="185" y="918"/>
      <point x="206" y="882" type="curve" smooth="yes"/>
      <point x="270" y="774" type="line" smooth="yes"/>
      <point x="288" y="744"/>
      <point x="296" y="736"/>
      <point x="344" y="736" type="curve" smooth="yes"/>
    </contour>
  </outline>
</glyph>
<glyph name="Udieresis" format="1">
  <advance width="716"/>
  <unicode hex="00DC"/>
  <note>
	Udieresis
  </note>
  <outline>
    <contour>
      <point x="583" y="-15"/>
      <point x="716" y="83"/>
      <point x="716" y="249" type="curve" smooth="yes"/>
      <point x="716" y="623" type="line" smooth="yes"/>
      <point x="716" y="661"/>
      <point x="701" y="680"/>
      <point x="655" y="680" type="curve" smooth="yes"/>
      <point x="536" y="680" type="line" smooth="yes"/>
      <point x="491" y="680"/>
      <point x="476" y="661"/>
      <point x="476" y="623" type="curve" smooth="yes"/>
      <point x="476" y="246" type="line" smooth="yes"/>
      <point x="476" y="181"/>
      <point x="441" y="153"/>
      <point x="388" y="153" type="curve" smooth="yes"/>
      <point x="336" y="153"/>
      <point x="300" y="181"/>
      <point x="300" y="246" type="curve" smooth="yes"/>
      <point x="300" y="623" type="line" smooth="yes"/>
      <point x="300" y="661"/>
      <point x="285" y="680"/>
      <point x="239" y="680" type="curve" smooth="yes"/>
      <point x="120" y="680" type="line" smooth="yes"/>
      <point x="75" y="680"/>
      <point x="60" y="661"/>
      <point x="60" y="623" type="curve" smooth="yes"/>
      <point x="60" y="249" type="line" smooth="yes"/>
      <point x="60" y="83"/>
      <point x="193" y="-15"/>
      <point x="388" y="-15" type="curve" smooth="yes"/>
    </contour>
    <contour>
      <point x="293" y="742" type="line" smooth="yes"/>
      <point x="334" y="742"/>
      <point x="361" y="775"/>
      <point x="361" y="813" type="curve" smooth="yes"/>
      <point x="361" y="842" type="line" smooth="yes"/>
      <point x="361" y="882"/>
      <point x="333" y="913"/>
      <point x="293" y="913" type="curve" smooth="yes"/>
      <point x="263" y="913" type="line" smooth="yes"/>
      <point x="223" y="913"/>
      <point x="195" y="882"/>
      <point x="195" y="842" type="curve" smooth="yes"/>
      <point x="195" y="813" type="line" smooth="yes"/>
      <point x="195" y="775"/>
      <point x="223" y="742"/>
      <point x="263" y="742" type="curve" smooth="yes"/>
    </contour>
    <contour>
      <point x="516" y="742" type="line" smooth="yes"/>
      <point x="557" y="742"/>
      <point x="584" y="775"/>
      <point x="584" y="813" type="curve" smooth="yes"/>
      <point x="584" y="842" type="line" smooth="yes"/>
      <point x="584" y="882"/>
      <point x="556" y="913"/>
      <point x="516" y="913" type="curve" smooth="yes"/>
      <point x="486" y="913" type="line" smooth="yes"/>
      <point x="446" y="913"/>
      <point x="418" y="882"/>
      <point x="418" y="842" type="curve" smooth="yes"/>
      <point x="418" y="813" type="line" smooth="yes"/>
      <point x="418" y="775"/>
      <point x="446" y="742"/>
      <point x="486" y="742" type="curve" smooth="yes"/>
    </contour>
  </outline>
</glyph>
<glyph name="Yacute" format="1">
  <advance width="750"/>
  <unicode hex="00DD"/>
  <note>
	Yacute
  </note>
  <outline>
    <contour>
      <point x="434" y="0" type="line" smooth="yes"/>
      <point x="480" y="0"/>
      <point x="495" y="19"/>
      <point x="495" y="57" type="curve" smooth="yes"/>
      <point x="495" y="238" type="line"/>
      <point x="728" y="637" type="line" smooth="yes"/>
      <point x="740" y="658"/>
      <point x="735" y="680"/>
      <point x="711" y="680" type="curve" smooth="yes"/>
      <point x="523" y="680" type="line" smooth="yes"/>
      <point x="501" y="680"/>
      <point x="493" y="668"/>
      <point x="484" y="653" type="curve" smooth="yes"/>
      <point x="375" y="457" type="line"/>
      <point x="266" y="653" type="line" smooth="yes"/>
      <point x="257" y="668"/>
      <point x="249" y="680"/>
      <point x="227" y="680" type="curve" smooth="yes"/>
      <point x="39" y="680" type="line" smooth="yes"/>
      <point x="15" y="680"/>
      <point x="10" y="658"/>
      <point x="22" y="637" type="curve" smooth="yes"/>
      <point x="255" y="238" type="line"/>
      <point x="255" y="57" type="line" smooth="yes"/>
      <point x="255" y="19"/>
      <point x="270" y="0"/>
      <point x="315" y="0" type="curve" smooth="yes"/>
    </contour>
    <contour>
      <point x="439" y="736" type="line" smooth="yes"/>
      <point x="487" y="736"/>
      <point x="495" y="744"/>
      <point x="513" y="774" type="curve" smooth="yes"/>
      <point x="577" y="882" type="line" smooth="yes"/>
      <point x="598" y="918"/>
      <point x="577" y="936"/>
      <point x="540" y="936" type="curve" smooth="yes"/>
      <point x="397" y="936" type="line" smooth="yes"/>
      <point x="354" y="936"/>
      <point x="347" y="925"/>
      <point x="337" y="897" type="curve" smooth="yes"/>
      <point x="295" y="781" type="line" smooth="yes"/>
      <point x="286" y="755"/>
      <point x="295" y="736"/>
      <point x="332" y="736" type="curve" smooth="yes"/>
    </contour>
  </outline>
</glyph>
<glyph name="germandbls" format="1">
  <advance width="663"/>
  <unicode hex="00DF"/>
  <note>
	germandbls
  </note>
  <outline>
    <contour>
      <point x="582" y="-15"/>
      <point x="648" y="64"/>
      <point x="648" y="196" type="curve" smooth="yes"/>
      <point x="648" y="262"/>
      <point x="616" y="329"/>
      <point x="559" y="348" type="curve"/>
      <point x="602" y="366"/>
      <point x="630" y="420"/>
      <point x="630" y="495" type="curve" smooth="yes"/>
      <point x="630" y="639"/>
      <point x="523" y="720"/>
      <point x="325" y="720" type="curve" smooth="yes"/>
      <point x="136" y="720"/>
      <point x="30" y="632"/>
      <point x="30" y="489" type="curve" smooth="yes"/>
      <point x="30" y="57" type="line" smooth="yes"/>
      <point x="30" y="19"/>
      <point x="45" y="0"/>
      <point x="90" y="0" type="curve" smooth="yes"/>
      <point x="208" y="0" type="line" smooth="yes"/>
      <point x="254" y="0"/>
      <point x="269" y="19"/>
      <point x="269" y="57" type="curve" smooth="yes"/>
      <point x="269" y="457" type="line" smooth="yes"/>
      <point x="269" y="486"/>
      <point x="290" y="511"/>
      <point x="329" y="511" type="curve" smooth="yes"/>
      <point x="379" y="511"/>
      <point x="391" y="493"/>
      <point x="391" y="465" type="curve" smooth="yes"/>
      <point x="391" y="434"/>
      <point x="378" y="419"/>
      <point x="345" y="419" type="curve" smooth="yes"/>
      <point x="312" y="419"/>
      <point x="300" y="410"/>
      <point x="300" y="382" type="curve" smooth="yes"/>
      <point x="300" y="302" type="line" smooth="yes"/>
      <point x="300" y="274"/>
      <point x="318" y="265"/>
      <point x="351" y="265" type="curve" smooth="yes"/>
      <point x="392" y="265"/>
      <point x="409" y="251"/>
      <point x="409" y="210" type="curve" smooth="yes"/>
      <point x="409" y="172"/>
      <point x="399" y="153"/>
      <point x="384" y="153" type="curve" smooth="yes"/>
      <point x="377" y="153"/>
      <point x="371" y="154"/>
      <point x="364" y="158" type="curve" smooth="yes"/>
      <point x="354" y="164"/>
      <point x="345" y="164"/>
      <point x="338" y="152" type="curve" smooth="yes"/>
      <point x="291" y="71" type="line" smooth="yes"/>
      <point x="281" y="53"/>
      <point x="277" y="37"/>
      <point x="294" y="26" type="curve" smooth="yes"/>
      <point x="331" y="1"/>
      <point x="381" y="-15"/>
      <point x="446" y="-15" type="curve" smooth="yes"/>
    </contour>
  </outline>
</glyph>
<glyph name="atilde" format="1">
  <advance width="624"/>
  <unicode hex="00E3"/>
  <note>
	atilde
  </note>
  <outline>
    <contour>
      <point x="292" y="-15"/>
      <point x="340" y="4"/>
      <point x="377" y="39" type="curve"/>
      <point x="393" y="14" type="line" smooth="yes"/>
      <point x="400" y="3"/>
      <point x="407" y="0"/>
      <point x="421" y="0" type="curve" smooth="yes"/>
      <point x="547" y="0" type="line" smooth="yes"/>
      <point x="578" y="0"/>
      <point x="585" y="6"/>
      <point x="585" y="33" type="curve" smooth="yes"/>
      <point x="585" y="429" type="line"/>
      <point x="517" y="473"/>
      <point x="452" y="495"/>
      <point x="341" y="495" type="curve" smooth="yes"/>
      <point x="154" y="495"/>
      <point x="15" y="387"/>
      <point x="15" y="219" type="curve" smooth="yes"/>
      <point x="15" y="68"/>
      <point x="99" y="-15"/>
      <point x="219" y="-15" type="curve" smooth="yes"/>
    </contour>
    <contour>
      <point x="272" y="144"/>
      <point x="254" y="169"/>
      <point x="254" y="219" type="curve" smooth="yes"/>
      <point x="254" y="295"/>
      <point x="287" y="337"/>
      <point x="341" y="337" type="curve" smooth="yes"/>
      <point x="350" y="337"/>
      <point x="358" y="336"/>
      <point x="365" y="333" type="curve"/>
      <point x="365" y="197" type="line" smooth="yes"/>
      <point x="365" y="162"/>
      <point x="340" y="144"/>
      <point x="308" y="144" type="curve" smooth="yes"/>
    </contour>
    <contour>
      <point x="499" y="539"/>
      <point x="532" y="568"/>
      <point x="574" y="629" type="curve" smooth="yes"/>
      <point x="599" y="665"/>
      <point x="595" y="682"/>
      <point x="552" y="714" type="curve" smooth="yes"/>
      <point x="508" y="747"/>
      <point x="485" y="755"/>
      <point x="466" y="732" type="curve" smooth="yes"/>
      <point x="446" y="708"/>
      <point x="436" y="699"/>
      <point x="413" y="699" type="curve" smooth="yes"/>
      <point x="370" y="699"/>
      <point x="335" y="748"/>
      <point x="257" y="748" type="curve" smooth="yes"/>
      <point x="196" y="748"/>
      <point x="163" y="717"/>
      <point x="121" y="656" type="curve" smooth="yes"/>
      <point x="96" y="620"/>
      <point x="102" y="605"/>
      <point x="145" y="573" type="curve" smooth="yes"/>
      <point x="189" y="540"/>
      <point x="212" y="532"/>
      <point x="231" y="555" type="curve" smooth="yes"/>
      <point x="251" y="579"/>
      <point x="264" y="588"/>
      <point x="288" y="588" type="curve" smooth="yes"/>
      <point x="337" y="588"/>
      <point x="377" y="539"/>
      <point x="438" y="539" type="curve" smooth="yes"/>
    </contour>
  </outline>
</glyph>
<glyph name="aring" format="1">
  <advance width="620"/>
  <unicode hex="00E5"/>
  <note>
	aring
  </note>
  <outline>
    <contour>
      <point x="292" y="-15"/>
      <point x="340" y="4"/>
      <point x="377" y="39" type="curve"/>
      <point x="393" y="14" type="line" smooth="yes"/>
      <point x="400" y="3"/>
      <point x="407" y="0"/>
      <point x="421" y="0" type="curve" smooth="yes"/>
      <point x="547" y="0" type="line" smooth="yes"/>
      <point x="578" y="0"/>
      <point x="585" y="6"/>
      <point x="585" y="33" type="curve" smooth="yes"/>
      <point x="585" y="429" type="line"/>
      <point x="517" y="473"/>
      <point x="452" y="495"/>
      <point x="341" y="495" type="curve" smooth="yes"/>
      <point x="154" y="495"/>
      <point x="15" y="387"/>
      <point x="15" y="219" type="curve" smooth="yes"/>
      <point x="15" y="68"/>
      <point x="99" y="-15"/>
      <point x="219" y="-15" type="curve" smooth="yes"/>
    </contour>
    <contour>
      <point x="272" y="144"/>
      <point x="254" y="169"/>
      <point x="254" y="219" type="curve" smooth="yes"/>
      <point x="254" y="295"/>
      <point x="287" y="337"/>
      <point x="341" y="337" type="curve" smooth="yes"/>
      <point x="350" y="337"/>
      <point x="358" y="336"/>
      <point x="365" y="333" type="curve"/>
      <point x="365" y="197" type="line" smooth="yes"/>
      <point x="365" y="162"/>
      <point x="340" y="144"/>
      <point x="308" y="144" type="curve" smooth="yes"/>
    </contour>
    <contour>
      <point x="410" y="541"/>
      <point x="467" y="597"/>
      <point x="467" y="668" type="curve" smooth="yes"/>
      <point x="467" y="739"/>
      <point x="410" y="796"/>
      <point x="339" y="796" type="curve" smooth="yes"/>
      <point x="268" y="796"/>
      <point x="212" y="739"/>
      <point x="212" y="668" type="curve" smooth="yes"/>
      <point x="212" y="597"/>
      <point x="268" y="541"/>
      <point x="339" y="541" type="curve" smooth="yes"/>
    </contour>
    <contour>
      <point x="322" y="637"/>
      <point x="308" y="651"/>
      <point x="308" y="668" type="curve" smooth="yes"/>
      <point x="308" y="685"/>
      <point x="322" y="699"/>
      <point x="339" y="699" type="curve" smooth="yes"/>
      <point x="356" y="699"/>
      <point x="370" y="685"/>
      <point x="370" y="668" type="curve" smooth="yes"/>
      <point x="370" y="651"/>
      <point x="356" y="637"/>
      <point x="339" y="637" type="curve" smooth="yes"/>
    </contour>
  </outline>
</glyph>
<glyph name="eacute" format="1">
  <advance width="592"/>
  <unicode hex="00E9"/>
  <note>
	eacute
  </note>
  <outline>
    <contour>
      <point x="404" y="-15"/>
      <point x="474" y="2"/>
      <point x="531" y="37" type="curve" smooth="yes"/>
      <point x="548" y="48"/>
      <point x="548" y="58"/>
      <point x="539" y="74" type="curve" smooth="yes"/>
      <point x="500" y="148" type="line" smooth="yes"/>
      <point x="492" y="163"/>
      <point x="484" y="166"/>
      <point x="464" y="156" type="curve" smooth="yes"/>
      <point x="435" y="142"/>
      <point x="408" y="129"/>
      <point x="349" y="129" type="curve" smooth="yes"/>
      <point x="281" y="129"/>
      <point x="240" y="155"/>
      <point x="240" y="194" type="curve"/>
      <point x="528" y="194" type="line" smooth="yes"/>
      <point x="562" y="194"/>
      <point x="577" y="213"/>
      <point x="577" y="251" type="curve" smooth="yes"/>
      <point x="577" y="397"/>
      <point x="487" y="495"/>
      <point x="301" y="495" type="curve" smooth="yes"/>
      <point x="116" y="495"/>
      <point x="15" y="404"/>
      <point x="15" y="236" type="curve" smooth="yes"/>
      <point x="15" y="71"/>
      <point x="142" y="-15"/>
      <point x="312" y="-15" type="curve" smooth="yes"/>
    </contour>
    <contour>
      <point x="240" y="338"/>
      <point x="259" y="360"/>
      <point x="302" y="360" type="curve" smooth="yes"/>
      <point x="347" y="360"/>
      <point x="365" y="338"/>
      <point x="365" y="306" type="curve"/>
      <point x="240" y="306" type="line"/>
    </contour>
    <contour>
      <point x="358" y="526" type="line" smooth="yes"/>
      <point x="406" y="526"/>
      <point x="414" y="534"/>
      <point x="432" y="564" type="curve" smooth="yes"/>
      <point x="496" y="672" type="line" smooth="yes"/>
      <point x="517" y="708"/>
      <point x="496" y="726"/>
      <point x="459" y="726" type="curve" smooth="yes"/>
      <point x="316" y="726" type="line" smooth="yes"/>
      <point x="273" y="726"/>
      <point x="266" y="715"/>
      <point x="256" y="687" type="curve" smooth="yes"/>
      <point x="214" y="571" type="line" smooth="yes"/>
      <point x="205" y="545"/>
      <point x="214" y="526"/>
      <point x="251" y="526" type="curve" smooth="yes"/>
    </contour>
  </outline>
</glyph>
<glyph name="edieresis" format="1">
  <advance width="592"/>
  <unicode hex="00EB"/>
  <note>
	edieresis
  </note>
  <outline>
    <contour>
      <point x="404" y="-15"/>
      <point x="474" y="2"/>
      <point x="531" y="37" type="curve" smooth="yes"/>
      <point x="548" y="48"/>
      <point x="548" y="58"/>
      <point x="539" y="74" type="curve" smooth="yes"/>
      <point x="500" y="148" type="line" smooth="yes"/>
      <point x="492" y="163"/>
      <point x="484" y="166"/>
      <point x="464" y="156" type="curve" smooth="yes"/>
      <point x="435" y="142"/>
      <point x="408" y="129"/>
      <point x="349" y="129" type="curve" smooth="yes"/>
      <point x="281" y="129"/>
      <point x="240" y="155"/>
      <point x="240" y="194" type="curve"/>
      <point x="528" y="194" type="line" smooth="yes"/>
      <point x="562" y="194"/>
      <point x="577" y="213"/>
      <point x="577" y="251" type="curve" smooth="yes"/>
      <point x="577" y="397"/>
      <point x="487" y="495"/>
      <point x="301" y="495" type="curve" smooth="yes"/>
      <point x="116" y="495"/>
      <point x="15" y="404"/>
      <point x="15" y="236" type="curve" smooth="yes"/>
      <point x="15" y="71"/>
      <point x="142" y="-15"/>
      <point x="312" y="-15" type="curve" smooth="yes"/>
    </contour>
    <contour>
      <point x="240" y="338"/>
      <point x="259" y="360"/>
      <point x="302" y="360" type="curve" smooth="yes"/>
      <point x="347" y="360"/>
      <point x="365" y="338"/>
      <point x="365" y="306" type="curve"/>
      <point x="240" y="306" type="line"/>
    </contour>
    <contour>
      <point x="207" y="521" type="line" smooth="yes"/>
      <point x="248" y="521"/>
      <point x="275" y="554"/>
      <point x="275" y="592" type="curve" smooth="yes"/>
      <point x="275" y="621" type="line" smooth="yes"/>
      <point x="275" y="661"/>
      <point x="247" y="692"/>
      <point x="207" y="692" type="curve" smooth="yes"/>
      <point x="177" y="692" type="line" smooth="yes"/>
      <point x="137" y="692"/>
      <point x="109" y="661"/>
      <point x="109" y="621" type="curve" smooth="yes"/>
      <point x="109" y="592" type="line" smooth="yes"/>
      <point x="109" y="554"/>
      <point x="137" y="521"/>
      <point x="177" y="521" type="curve" smooth="yes"/>
    </contour>
    <contour>
      <point x="430" y="521" type="line" smooth="yes"/>
      <point x="471" y="521"/>
      <point x="498" y="554"/>
      <point x="498" y="592" type="curve" smooth="yes"/>
      <point x="498" y="621" type="line" smooth="yes"/>
      <point x="498" y="661"/>
      <point x="470" y="692"/>
      <point x="430" y="692" type="curve" smooth="yes"/>
      <point x="400" y="692" type="line" smooth="yes"/>
      <point x="360" y="692"/>
      <point x="332" y="661"/>
      <point x="332" y="621" type="curve" smooth="yes"/>
      <point x="332" y="592" type="line" smooth="yes"/>
      <point x="332" y="554"/>
      <point x="360" y="521"/>
      <point x="400" y="521" type="curve" smooth="yes"/>
    </contour>
  </outline>
</glyph>
<glyph name="icircumflex" format="1">
  <advance width="320"/>
  <unicode hex="00EE"/>
  <note>
	icircumflex
  </note>
  <outline>
    <contour>
      <point x="219" y="0" type="line" smooth="yes"/>
      <point x="265" y="0"/>
      <point x="280" y="19"/>
      <point x="280" y="57" type="curve" smooth="yes"/>
      <point x="280" y="423" type="line" smooth="yes"/>
      <point x="280" y="461"/>
      <point x="265" y="480"/>
      <point x="219" y="480" type="curve" smooth="yes"/>
      <point x="100" y="480" type="line" smooth="yes"/>
      <point x="55" y="480"/>
      <point x="40" y="461"/>
      <point x="40" y="423" type="curve" smooth="yes"/>
      <point x="40" y="57" type="line" smooth="yes"/>
      <point x="40" y="19"/>
      <point x="55" y="0"/>
      <point x="100" y="0" type="curve" smooth="yes"/>
    </contour>
    <contour>
      <point x="56" y="539" type="line" smooth="yes"/>
      <point x="94" y="539"/>
      <point x="105" y="546"/>
      <point x="119" y="567" type="curve" smooth="yes"/>
      <point x="161" y="632" type="line"/>
      <point x="203" y="567" type="line" smooth="yes"/>
      <point x="217" y="546"/>
      <point x="228" y="539"/>
      <point x="266" y="539" type="curve" smooth="yes"/>
      <point x="355" y="539" type="line" smooth="yes"/>
      <point x="392" y="539"/>
      <point x="402" y="560"/>
      <point x="376" y="593" type="curve" smooth="yes"/>
      <point x="284" y="710" type="line" smooth="yes"/>
      <point x="267" y="732"/>
      <point x="263" y="739"/>
      <point x="223" y="739" type="curve" smooth="yes"/>
      <point x="99" y="739" type="line" smooth="yes"/>
      <point x="59" y="739"/>
      <point x="55" y="732"/>
      <point x="38" y="710" type="curve" smooth="yes"/>
      <point x="-54" y="593" type="line" smooth="yes"/>
      <point x="-80" y="560"/>
      <point x="-70" y="539"/>
      <point x="-33" y="539" type="curve" smooth="yes"/>
    </contour>
  </outline>
</glyph>
<glyph name="idieresis" format="1">
  <advance width="320"/>
  <unicode hex="00EF"/>
  <note>
	idieresis
  </note>
  <outline>
    <contour>
      <point x="219" y="0" type="line" smooth="yes"/>
      <point x="265" y="0"/>
      <point x="280" y="19"/>
      <point x="280" y="57" type="curve" smooth="yes"/>
      <point x="280" y="423" type="line" smooth="yes"/>
      <point x="280" y="461"/>
      <point x="265" y="480"/>
      <point x="219" y="480" type="curve" smooth="yes"/>
      <point x="100" y="480" type="line" smooth="yes"/>
      <point x="55" y="480"/>
      <point x="40" y="461"/>
      <point x="40" y="423" type="curve" smooth="yes"/>
      <point x="40" y="57" type="line" smooth="yes"/>
      <point x="40" y="19"/>
      <point x="55" y="0"/>
      <point x="100" y="0" type="curve" smooth="yes"/>
    </contour>
    <contour>
      <point x="66" y="529" type="line" smooth="yes"/>
      <point x="107" y="529"/>
      <point x="134" y="562"/>
      <point x="134" y="600" type="curve" smooth="yes"/>
      <point x="134" y="629" type="line" smooth="yes"/>
      <point x="134" y="669"/>
      <point x="106" y="700"/>
      <point x="66" y="700" type="curve" smooth="yes"/>
      <point x="36" y="700" type="line" smooth="yes"/>
      <point x="-4" y="700"/>
      <point x="-32" y="669"/>
      <point x="-32" y="629" type="curve" smooth="yes"/>
      <point x="-32" y="600" type="line" smooth="yes"/>
      <point x="-32" y="562"/>
      <point x="-4" y="529"/>
      <point x="36" y="529" type="curve" smooth="yes"/>
    </contour>
    <contour>
      <point x="289" y="529" type="line" smooth="yes"/>
      <point x="330" y="529"/>
      <point x="357" y="562"/>
      <point x="357" y="600" type="curve" smooth="yes"/>
      <point x="357" y="629" type="line" smooth="yes"/>
      <point x="357" y="669"/>
      <point x="329" y="700"/>
      <point x="289" y="700" type="curve" smooth="yes"/>
      <point x="259" y="700" type="line" smooth="yes"/>
      <point x="219" y="700"/>
      <point x="191" y="669"/>
      <point x="191" y="629" type="curve" smooth="yes"/>
      <point x="191" y="600" type="line" smooth="yes"/>
      <point x="191" y="562"/>
      <point x="219" y="529"/>
      <point x="259" y="529" type="curve" smooth="yes"/>
    </contour>
  </outline>
</glyph>
<glyph name="ntilde" format="1">
  <advance width="610"/>
  <unicode hex="00F1"/>
  <note>
	ntilde
  </note>
  <outline>
    <contour>
      <point x="215" y="0" type="line" smooth="yes"/>
      <point x="260" y="0"/>
      <point x="275" y="19"/>
      <point x="275" y="57" type="curve" smooth="yes"/>
      <point x="275" y="297" type="line" smooth="yes"/>
      <point x="275" y="323"/>
      <point x="283" y="336"/>
      <point x="309" y="336" type="curve" smooth="yes"/>
      <point x="332" y="336"/>
      <point x="340" y="323"/>
      <point x="340" y="297" type="curve" smooth="yes"/>
      <point x="340" y="57" type="line" smooth="yes"/>
      <point x="340" y="19"/>
      <point x="355" y="0"/>
      <point x="401" y="0" type="curve" smooth="yes"/>
      <point x="520" y="0" type="line" smooth="yes"/>
      <point x="565" y="0"/>
      <point x="580" y="19"/>
      <point x="580" y="57" type="curve" smooth="yes"/>
      <point x="580" y="312" type="line" smooth="yes"/>
      <point x="580" y="438"/>
      <point x="501" y="495"/>
      <point x="398" y="495" type="curve" smooth="yes"/>
      <point x="326" y="495"/>
      <point x="267" y="471"/>
      <point x="233" y="441" type="curve"/>
      <point x="227" y="466" type="line" smooth="yes"/>
      <point x="224" y="479"/>
      <point x="213" y="480"/>
      <point x="199" y="480" type="curve" smooth="yes"/>
      <point x="73" y="480" type="line" smooth="yes"/>
      <point x="42" y="480"/>
      <point x="35" y="474"/>
      <point x="35" y="447" type="curve" smooth="yes"/>
      <point x="35" y="57" type="line" smooth="yes"/>
      <point x="35" y="19"/>
      <point x="50" y="0"/>
      <point x="96" y="0" type="curve" smooth="yes"/>
    </contour>
    <contour>
      <point x="449" y="539"/>
      <point x="482" y="568"/>
      <point x="524" y="629" type="curve" smooth="yes"/>
      <point x="549" y="665"/>
      <point x="545" y="682"/>
      <point x="502" y="714" type="curve" smooth="yes"/>
      <point x="458" y="747"/>
      <point x="435" y="755"/>
      <point x="416" y="732" type="curve" smooth="yes"/>
      <point x="396" y="708"/>
      <point x="386" y="699"/>
      <point x="363" y="699" type="curve" smooth="yes"/>
      <point x="320" y="699"/>
      <point x="285" y="748"/>
      <point x="207" y="748" type="curve" smooth="yes"/>
      <point x="146" y="748"/>
      <point x="113" y="717"/>
      <point x="71" y="656" type="curve" smooth="yes"/>
      <point x="46" y="620"/>
      <point x="52" y="605"/>
      <point x="95" y="573" type="curve" smooth="yes"/>
      <point x="139" y="540"/>
      <point x="162" y="532"/>
      <point x="181" y="555" type="curve" smooth="yes"/>
      <point x="201" y="579"/>
      <point x="214" y="588"/>
      <point x="238" y="588" type="curve" smooth="yes"/>
      <point x="287" y="588"/>
      <point x="327" y="539"/>
      <point x="388" y="539" type="curve" smooth="yes"/>
    </contour>
  </outline>
</glyph>
<glyph name="oacute" format="1">
  <advance width="627"/>
  <unicode hex="00F3"/>
  <note>
	oacute
  </note>
  <outline>
    <contour>
      <point x="503" y="-15"/>
      <point x="612" y="85"/>
      <point x="612" y="240" type="curve" smooth="yes"/>
      <point x="612" y="396"/>
      <point x="503" y="495"/>
      <point x="313" y="495" type="curve" smooth="yes"/>
      <point x="124" y="495"/>
      <point x="15" y="396"/>
      <point x="15" y="240" type="curve" smooth="yes"/>
      <point x="15" y="85"/>
      <point x="124" y="-15"/>
      <point x="313" y="-15" type="curve" smooth="yes"/>
    </contour>
    <contour>
      <point x="277" y="153"/>
      <point x="254" y="177"/>
      <point x="254" y="240" type="curve" smooth="yes"/>
      <point x="254" y="304"/>
      <point x="277" y="326"/>
      <point x="313" y="326" type="curve" smooth="yes"/>
      <point x="350" y="326"/>
      <point x="373" y="304"/>
      <point x="373" y="240" type="curve" smooth="yes"/>
      <point x="373" y="177"/>
      <point x="350" y="153"/>
      <point x="313" y="153" type="curve" smooth="yes"/>
    </contour>
    <contour>
      <point x="337" y="526" type="line" smooth="yes"/>
      <point x="385" y="526"/>
      <point x="393" y="534"/>
      <point x="411" y="564" type="curve" smooth="yes"/>
      <point x="475" y="672" type="line" smooth="yes"/>
      <point x="496" y="708"/>
      <point x="475" y="726"/>
      <point x="438" y="726" type="curve" smooth="yes"/>
      <point x="295" y="726" type="line" smooth="yes"/>
      <point x="252" y="726"/>
      <point x="245" y="715"/>
      <point x="235" y="687" type="curve" smooth="yes"/>
      <point x="193" y="571" type="line" smooth="yes"/>
      <point x="184" y="545"/>
      <point x="193" y="526"/>
      <point x="230" y="526" type="curve" smooth="yes"/>
    </contour>
  </outline>
</glyph>
<glyph name="ocircumflex" format="1">
  <advance width="627"/>
  <unicode hex="00F4"/>
  <note>
	ocircumflex
  </note>
  <outline>
    <contour>
      <point x="503" y="-15"/>
      <point x="612" y="85"/>
      <point x="612" y="240" type="curve" smooth="yes"/>
      <point x="612" y="396"/>
      <point x="503" y="495"/>
      <point x="313" y="495" type="curve" smooth="yes"/>
      <point x="124" y="495"/>
      <point x="15" y="396"/>
      <point x="15" y="240" type="curve" smooth="yes"/>
      <point x="15" y="85"/>
      <point x="124" y="-15"/>
      <point x="313" y="-15" type="curve" smooth="yes"/>
    </contour>
    <contour>
      <point x="277" y="153"/>
      <point x="254" y="177"/>
      <point x="254" y="240" type="curve" smooth="yes"/>
      <point x="254" y="304"/>
      <point x="277" y="326"/>
      <point x="313" y="326" type="curve" smooth="yes"/>
      <point x="350" y="326"/>
      <point x="373" y="304"/>
      <point x="373" y="240" type="curve" smooth="yes"/>
      <point x="373" y="177"/>
      <point x="350" y="153"/>
      <point x="313" y="153" type="curve" smooth="yes"/>
    </contour>
    <contour>
      <point x="207" y="529" type="line" smooth="yes"/>
      <point x="245" y="529"/>
      <point x="256" y="536"/>
      <point x="270" y="557" type="curve" smooth="yes"/>
      <point x="312" y="622" type="line"/>
      <point x="354" y="557" type="line" smooth="yes"/>
      <point x="368" y="536"/>
      <point x="379" y="529"/>
      <point x="417" y="529" type="curve" smooth="yes"/>
      <point x="506" y="529" type="line" smooth="yes"/>
      <point x="543" y="529"/>
      <point x="553" y="550"/>
      <point x="527" y="583" type="curve" smooth="yes"/>
      <point x="435" y="700" type="line" smooth="yes"/>
      <point x="418" y="722"/>
      <point x="414" y="729"/>
      <point x="374" y="729" type="curve" smooth="yes"/>
      <point x="250" y="729" type="line" smooth="yes"/>
      <point x="210" y="729"/>
      <point x="206" y="722"/>
      <point x="189" y="700" type="curve" smooth="yes"/>
      <point x="97" y="583" type="line" smooth="yes"/>
      <point x="71" y="550"/>
      <point x="81" y="529"/>
      <point x="118" y="529" type="curve" smooth="yes"/>
    </contour>
  </outline>
</glyph>
<glyph name="otilde" format="1">
  <advance width="627"/>
  <unicode hex="00F5"/>
  <note>
	otilde
  </note>
  <outline>
    <contour>
      <point x="503" y="-15"/>
      <point x="612" y="85"/>
      <point x="612" y="240" type="curve" smooth="yes"/>
      <point x="612" y="396"/>
      <point x="503" y="495"/>
      <point x="313" y="495" type="curve" smooth="yes"/>
      <point x="124" y="495"/>
      <point x="15" y="396"/>
      <point x="15" y="240" type="curve" smooth="yes"/>
      <point x="15" y="85"/>
      <point x="124" y="-15"/>
      <point x="313" y="-15" type="curve" smooth="yes"/>
    </contour>
    <contour>
      <point x="277" y="153"/>
      <point x="254" y="177"/>
      <point x="254" y="240" type="curve" smooth="yes"/>
      <point x="254" y="304"/>
      <point x="277" y="326"/>
      <point x="313" y="326" type="curve" smooth="yes"/>
      <point x="350" y="326"/>
      <point x="373" y="304"/>
      <point x="373" y="240" type="curve" smooth="yes"/>
      <point x="373" y="177"/>
      <point x="350" y="153"/>
      <point x="313" y="153" type="curve" smooth="yes"/>
    </contour>
    <contour>
      <point x="465" y="529"/>
      <point x="498" y="558"/>
      <point x="540" y="619" type="curve" smooth="yes"/>
      <point x="565" y="655"/>
      <point x="561" y="672"/>
      <point x="518" y="704" type="curve" smooth="yes"/>
      <point x="474" y="737"/>
      <point x="451" y="745"/>
      <point x="432" y="722" type="curve" smooth="yes"/>
      <point x="412" y="698"/>
      <point x="402" y="689"/>
      <point x="379" y="689" type="curve" smooth="yes"/>
      <point x="336" y="689"/>
      <point x="301" y="738"/>
      <point x="223" y="738" type="curve" smooth="yes"/>
      <point x="162" y="738"/>
      <point x="129" y="707"/>
      <point x="87" y="646" type="curve" smooth="yes"/>
      <point x="62" y="610"/>
      <point x="68" y="595"/>
      <point x="111" y="563" type="curve" smooth="yes"/>
      <point x="155" y="530"/>
      <point x="178" y="522"/>
      <point x="197" y="545" type="curve" smooth="yes"/>
      <point x="217" y="569"/>
      <point x="230" y="578"/>
      <point x="254" y="578" type="curve" smooth="yes"/>
      <point x="303" y="578"/>
      <point x="343" y="529"/>
      <point x="404" y="529" type="curve" smooth="yes"/>
    </contour>
  </outline>
</glyph>
<glyph name="divide" format="1">
  <advance width="467"/>
  <unicode hex="00F7"/>
  <note>
	divide
  </note>
  <outline>
    <contour>
      <point x="397" y="221" type="line" smooth="yes"/>
      <point x="442" y="221"/>
      <point x="452" y="240"/>
      <point x="452" y="278" type="curve" smooth="yes"/>
      <point x="452" y="334" type="line" smooth="yes"/>
      <point x="452" y="372"/>
      <point x="442" y="391"/>
      <point x="397" y="391" type="curve" smooth="yes"/>
      <point x="70" y="391" type="line" smooth="yes"/>
      <point x="25" y="391"/>
      <point x="15" y="372"/>
      <point x="15" y="334" type="curve" smooth="yes"/>
      <point x="15" y="278" type="line" smooth="yes"/>
      <point x="15" y="240"/>
      <point x="25" y="221"/>
      <point x="70" y="221" type="curve" smooth="yes"/>
    </contour>
    <contour>
      <point x="241" y="40" type="line" smooth="yes"/>
      <point x="277" y="40"/>
      <point x="300" y="69"/>
      <point x="300" y="102" type="curve" smooth="yes"/>
      <point x="300" y="127" type="line" smooth="yes"/>
      <point x="300" y="162"/>
      <point x="276" y="189"/>
      <point x="241" y="189" type="curve" smooth="yes"/>
      <point x="215" y="189" type="line" smooth="yes"/>
      <point x="180" y="189"/>
      <point x="156" y="162"/>
      <point x="156" y="127" type="curve" smooth="yes"/>
      <point x="156" y="102" type="line" smooth="yes"/>
      <point x="156" y="69"/>
      <point x="180" y="40"/>
      <point x="215" y="40" type="curve" smooth="yes"/>
    </contour>
    <contour>
      <point x="241" y="423" type="line" smooth="yes"/>
      <point x="277" y="423"/>
      <point x="300" y="452"/>
      <point x="300" y="485" type="curve" smooth="yes"/>
      <point x="300" y="510" type="line" smooth="yes"/>
      <point x="300" y="545"/>
      <point x="276" y="572"/>
      <point x="241" y="572" type="curve" smooth="yes"/>
      <point x="215" y="572" type="line" smooth="yes"/>
      <point x="180" y="572"/>
      <point x="156" y="545"/>
      <point x="156" y="510" type="curve" smooth="yes"/>
      <point x="156" y="485" type="line" smooth="yes"/>
      <point x="156" y="452"/>
      <point x="180" y="423"/>
      <point x="215" y="423" type="curve" smooth="yes"/>
    </contour>
  </outline>
</glyph>
<glyph name="Abreve" format="1">
  <advance width="752"/>
  <unicode hex="0102"/>
  <note>
	Abreve
  </note>
  <outline>
    <contour>
      <point x="225" y="0" type="line" smooth="yes"/>
      <point x="247" y="0"/>
      <point x="259" y="10"/>
      <point x="264" y="27" type="curve" smooth="yes"/>
      <point x="287" y="101" type="line"/>
      <point x="464" y="101" type="line"/>
      <point x="488" y="27" type="line" smooth="yes"/>
      <point x="493" y="10"/>
      <point x="505" y="0"/>
      <point x="527" y="0" type="curve" smooth="yes"/>
      <point x="715" y="0" type="line" smooth="yes"/>
      <point x="739" y="0"/>
      <point x="742" y="20"/>
      <point x="732" y="43" type="curve" smooth="yes"/>
      <point x="484" y="642" type="line" smooth="yes"/>
      <point x="472" y="670"/>
      <point x="460" y="680"/>
      <point x="431" y="680" type="curve" smooth="yes"/>
      <point x="322" y="680" type="line" smooth="yes"/>
      <point x="293" y="680"/>
      <point x="281" y="670"/>
      <point x="269" y="642" type="curve" smooth="yes"/>
      <point x="20" y="43" type="line" smooth="yes"/>
      <point x="10" y="20"/>
      <point x="13" y="0"/>
      <point x="37" y="0" type="curve" smooth="yes"/>
    </contour>
    <contour>
      <point x="376" y="383" type="line"/>
      <point x="415" y="259" type="line"/>
      <point x="337" y="259" type="line"/>
    </contour>
    <contour>
      <point x="510" y="739"/>
      <point x="577" y="816"/>
      <point x="577" y="916" type="curve" smooth="yes"/>
      <point x="577" y="927"/>
      <point x="571" y="934"/>
      <point x="561" y="934" type="curve" smooth="yes"/>
      <point x="432" y="934" type="line" smooth="yes"/>
      <point x="418" y="934"/>
      <point x="415" y="927"/>
      <point x="415" y="915" type="curve" smooth="yes"/>
      <point x="415" y="891"/>
      <point x="400" y="879"/>
      <point x="376" y="879" type="curve" smooth="yes"/>
      <point x="352" y="879"/>
      <point x="337" y="891"/>
      <point x="337" y="915" type="curve" smooth="yes"/>
      <point x="337" y="927"/>
      <point x="334" y="934"/>
      <point x="320" y="934" type="curve" smooth="yes"/>
      <point x="191" y="934" type="line" smooth="yes"/>
      <point x="181" y="934"/>
      <point x="175" y="927"/>
      <point x="175" y="916" type="curve" smooth="yes"/>
      <point x="175" y="816"/>
      <point x="241" y="739"/>
      <point x="376" y="739" type="curve" smooth="yes"/>
    </contour>
  </outline>
</glyph>
<glyph name="abreve" format="1">
  <advance width="620"/>
  <unicode hex="0103"/>
  <note>
	abreve
  </note>
  <outline>
    <contour>
      <point x="292" y="-15"/>
      <point x="340" y="4"/>
      <point x="377" y="39" type="curve"/>
      <point x="393" y="14" type="line" smooth="yes"/>
      <point x="400" y="3"/>
      <point x="407" y="0"/>
      <point x="421" y="0" type="curve" smooth="yes"/>
      <point x="547" y="0" type="line" smooth="yes"/>
      <point x="578" y="0"/>
      <point x="585" y="6"/>
      <point x="585" y="33" type="curve" smooth="yes"/>
      <point x="585" y="429" type="line"/>
      <point x="517" y="473"/>
      <point x="452" y="495"/>
      <point x="341" y="495" type="curve" smooth="yes"/>
      <point x="154" y="495"/>
      <point x="15" y="387"/>
      <point x="15" y="219" type="curve" smooth="yes"/>
      <point x="15" y="68"/>
      <point x="99" y="-15"/>
      <point x="219" y="-15" type="curve" smooth="yes"/>
    </contour>
    <contour>
      <point x="272" y="144"/>
      <point x="254" y="169"/>
      <point x="254" y="219" type="curve" smooth="yes"/>
      <point x="254" y="295"/>
      <point x="287" y="337"/>
      <point x="341" y="337" type="curve" smooth="yes"/>
      <point x="350" y="337"/>
      <point x="358" y="336"/>
      <point x="365" y="333" type="curve"/>
      <point x="365" y="197" type="line" smooth="yes"/>
      <point x="365" y="162"/>
      <point x="340" y="144"/>
      <point x="308" y="144" type="curve" smooth="yes"/>
    </contour>
    <contour>
      <point x="474" y="539"/>
      <point x="541" y="616"/>
      <point x="541" y="716" type="curve" smooth="yes"/>
      <point x="541" y="727"/>
      <point x="535" y="734"/>
      <point x="525" y="734" type="curve" smooth="yes"/>
      <point x="396" y="734" type="line" smooth="yes"/>
      <point x="382" y="734"/>
      <point x="379" y="727"/>
      <point x="379" y="715" type="curve" smooth="yes"/>
      <point x="379" y="691"/>
      <point x="364" y="679"/>
      <point x="340" y="679" type="curve" smooth="yes"/>
      <point x="316" y="679"/>
      <point x="301" y="691"/>
      <point x="301" y="715" type="curve" smooth="yes"/>
      <point x="301" y="727"/>
      <point x="298" y="734"/>
      <point x="284" y="734" type="curve" smooth="yes"/>
      <point x="155" y="734" type="line" smooth="yes"/>
      <point x="145" y="734"/>
      <point x="139" y="727"/>
      <point x="139" y="716" type="curve" smooth="yes"/>
      <point x="139" y="616"/>
      <point x="205" y="539"/>
      <point x="340" y="539" type="curve" smooth="yes"/>
    </contour>
  </outline>
</glyph>
<glyph name="aogonek" format="1">
  <advance width="620"/>
  <unicode hex="0105"/>
  <note>
	aogonek
  </note>
  <outline>
    <contour>
      <point x="292" y="-15"/>
      <point x="340" y="4"/>
      <point x="377" y="39" type="curve"/>
      <point x="393" y="14" type="line" smooth="yes"/>
      <point x="400" y="3"/>
      <point x="407" y="0"/>
      <point x="421" y="0" type="curve" smooth="yes"/>
      <point x="547" y="0" type="line" smooth="yes"/>
      <point x="578" y="0"/>
      <point x="585" y="6"/>
      <point x="585" y="33" type="curve" smooth="yes"/>
      <point x="585" y="429" type="line"/>
      <point x="517" y="473"/>
      <point x="452" y="495"/>
      <point x="341" y="495" type="curve" smooth="yes"/>
      <point x="154" y="495"/>
      <point x="15" y="387"/>
      <point x="15" y="219" type="curve" smooth="yes"/>
      <point x="15" y="68"/>
      <point x="99" y="-15"/>
      <point x="219" y="-15" type="curve" smooth="yes"/>
    </contour>
    <contour>
      <point x="494" y="-225"/>
      <point x="530" y="-220"/>
      <point x="559" y="-207" type="curve" smooth="yes"/>
      <point x="572" y="-201"/>
      <point x="572" y="-197"/>
      <point x="569" y="-190" type="curve"/>
      <point x="545" y="-139" type="line" smooth="yes"/>
      <point x="541" y="-130"/>
      <point x="538" y="-131"/>
      <point x="531" y="-134" type="curve"/>
      <point x="525" y="-137"/>
      <point x="518" y="-138"/>
      <point x="509" y="-138" type="curve" smooth="yes"/>
      <point x="494" y="-138"/>
      <point x="485" y="-128"/>
      <point x="485" y="-111" type="curve" smooth="yes"/>
      <point x="485" y="-82"/>
      <point x="502" y="-67"/>
      <point x="548" y="-11" type="curve" smooth="yes"/>
      <point x="555" y="-3"/>
      <point x="550" y="5"/>
      <point x="538" y="5" type="curve" smooth="yes"/>
      <point x="422" y="5" type="line" smooth="yes"/>
      <point x="409" y="5"/>
      <point x="405" y="1"/>
      <point x="397" y="-8" type="curve" smooth="yes"/>
      <point x="353" y="-58"/>
      <point x="336" y="-95"/>
      <point x="336" y="-131" type="curve" smooth="yes"/>
      <point x="336" y="-182"/>
      <point x="367" y="-225"/>
      <point x="444" y="-225" type="curve" smooth="yes"/>
    </contour>
    <contour>
      <point x="272" y="144"/>
      <point x="254" y="169"/>
      <point x="254" y="219" type="curve" smooth="yes"/>
      <point x="254" y="295"/>
      <point x="287" y="337"/>
      <point x="341" y="337" type="curve" smooth="yes"/>
      <point x="350" y="337"/>
      <point x="358" y="336"/>
      <point x="365" y="333" type="curve"/>
      <point x="365" y="197" type="line" smooth="yes"/>
      <point x="365" y="162"/>
      <point x="340" y="144"/>
      <point x="308" y="144" type="curve" smooth="yes"/>
    </contour>
  </outline>
</glyph>
<glyph name="cacute" format="1">
  <advance width="560"/>
  <unicode hex="0107"/>
  <note>
	cacute
  </note>
  <outline>
    <contour>
      <point x="412" y="-15"/>
      <point x="473" y="6"/>
      <point x="530" y="41" type="curve" smooth="yes"/>
      <point x="547" y="52"/>
      <point x="548" y="62"/>
      <point x="538" y="78" type="curve" smooth="yes"/>
      <point x="485" y="169" type="line" smooth="yes"/>
      <point x="473" y="189"/>
      <point x="465" y="188"/>
      <point x="443" y="175" type="curve" smooth="yes"/>
      <point x="415" y="159"/>
      <point x="384" y="144"/>
      <point x="344" y="144" type="curve" smooth="yes"/>
      <point x="291" y="144"/>
      <point x="254" y="178"/>
      <point x="254" y="240" type="curve" smooth="yes"/>
      <point x="254" y="301"/>
      <point x="291" y="337"/>
      <point x="340" y="337" type="curve" smooth="yes"/>
      <point x="385" y="337"/>
      <point x="408" y="325"/>
      <point x="436" y="307" type="curve" smooth="yes"/>
      <point x="455" y="295"/>
      <point x="466" y="293"/>
      <point x="478" y="313" type="curve" smooth="yes"/>
      <point x="526" y="396" type="line" smooth="yes"/>
      <point x="536" y="414"/>
      <point x="540" y="429"/>
      <point x="523" y="441" type="curve" smooth="yes"/>
      <point x="476" y="473"/>
      <point x="416" y="495"/>
      <point x="317" y="495" type="curve" smooth="yes"/>
      <point x="126" y="495"/>
      <point x="15" y="393"/>
      <point x="15" y="240" type="curve" smooth="yes"/>
      <point x="15" y="74"/>
      <point x="121" y="-15"/>
      <point x="312" y="-15" type="curve" smooth="yes"/>
    </contour>
    <contour>
      <point x="348" y="526" type="line" smooth="yes"/>
      <point x="396" y="526"/>
      <point x="404" y="534"/>
      <point x="422" y="564" type="curve" smooth="yes"/>
      <point x="486" y="672" type="line" smooth="yes"/>
      <point x="507" y="708"/>
      <point x="486" y="726"/>
      <point x="449" y="726" type="curve" smooth="yes"/>
      <point x="306" y="726" type="line" smooth="yes"/>
      <point x="263" y="726"/>
      <point x="256" y="715"/>
      <point x="246" y="687" type="curve" smooth="yes"/>
      <point x="204" y="571" type="line" smooth="yes"/>
      <point x="195" y="545"/>
      <point x="204" y="526"/>
      <point x="241" y="526" type="curve" smooth="yes"/>
    </contour>
  </outline>
</glyph>
<glyph name="cdotaccent" format="1">
  <advance width="560"/>
  <unicode hex="010B"/>
  <note>
	cdotaccent
  </note>
  <outline>
    <contour>
      <point x="412" y="-15"/>
      <point x="473" y="6"/>
      <point x="530" y="41" type="curve" smooth="yes"/>
      <point x="547" y="52"/>
      <point x="548" y="62"/>
      <point x="538" y="78" type="curve" smooth="yes"/>
      <point x="485" y="169" type="line" smooth="yes"/>
      <point x="473" y="189"/>
      <point x="465" y="188"/>
      <point x="443" y="175" type="curve" smooth="yes"/>
      <point x="415" y="159"/>
      <point x="384" y="144"/>
      <point x="344" y="144" type="curve" smooth="yes"/>
      <point x="291" y="144"/>
      <point x="254" y="178"/>
      <point x="254" y="240" type="curve" smooth="yes"/>
      <point x="254" y="301"/>
      <point x="291" y="337"/>
      <point x="340" y="337" type="curve" smooth="yes"/>
      <point x="385" y="337"/>
      <point x="408" y="325"/>
      <point x="436" y="307" type="curve" smooth="yes"/>
      <point x="455" y="295"/>
      <point x="466" y="293"/>
      <point x="478" y="313" type="curve" smooth="yes"/>
      <point x="526" y="396" type="line" smooth="yes"/>
      <point x="536" y="414"/>
      <point x="540" y="429"/>
      <point x="523" y="441" type="curve" smooth="yes"/>
      <point x="476" y="473"/>
      <point x="416" y="495"/>
      <point x="317" y="495" type="curve" smooth="yes"/>
      <point x="126" y="495"/>
      <point x="15" y="393"/>
      <point x="15" y="240" type="curve" smooth="yes"/>
      <point x="15" y="74"/>
      <point x="121" y="-15"/>
      <point x="312" y="-15" type="curve" smooth="yes"/>
    </contour>
    <contour>
      <point x="316" y="531" type="line" smooth="yes"/>
      <point x="357" y="531"/>
      <point x="384" y="564"/>
      <point x="384" y="602" type="curve" smooth="yes"/>
      <point x="384" y="631" type="line" smooth="yes"/>
      <point x="384" y="671"/>
      <point x="356" y="702"/>
      <point x="316" y="702" type="curve" smooth="yes"/>
      <point x="286" y="702" type="line" smooth="yes"/>
      <point x="246" y="702"/>
      <point x="218" y="671"/>
      <point x="218" y="631" type="curve" smooth="yes"/>
      <point x="218" y="602" type="line" smooth="yes"/>
      <point x="218" y="564"/>
      <point x="246" y="531"/>
      <point x="286" y="531" type="curve" smooth="yes"/>
    </contour>
  </outline>
</glyph>
